 <svg
              class="w-[68px] flex items-center justify-center"
              width="36"
              height="44"
              viewBox="0 0 36 44"
              fill="none"
              xmlns="http://www.w3.org/2000/svg"
            >
              <path
                d="M28.2885 44C27.8013 44 27.3973 43.5997 27.3973 43.1169C27.3973 38.0894 23.2623 33.992 18.1886 33.992C13.1149 33.992 8.97995 38.0776 8.97995 43.1169C8.97995 43.5997 8.57595 44 8.08878 44C7.60161 44 7.19762 43.5997 7.19762 43.1169C7.19762 37.1121 12.1287 32.2258 18.1886 32.2258C24.2485 32.2258 29.1796 37.1121 29.1796 43.1169C29.1796 43.5997 28.7757 44 28.2885 44Z"
                fill="#F50269"
              />
              <path
                d="M35.1088 44C34.6217 44 34.2177 43.5997 34.2177 43.1169C34.2177 34.357 27.029 27.2454 18.2005 27.2454C9.37205 27.2454 2.18334 34.3687 2.18334 43.1169C2.18334 43.5997 1.77935 44 1.29218 44C0.80501 44 0.401016 43.5997 0.401016 43.1169C0.401016 33.3915 8.38583 25.4793 18.2005 25.4793C28.0152 25.4793 36 33.3915 36 43.1169C36 43.5997 35.596 44 35.1088 44Z"
                fill="#F50269"
              />
              <path
                d="M17.8916 26.5272C17.6896 26.5272 17.4876 26.4565 17.3212 26.3152L7.73232 18.2853C7.37586 17.9909 7.31644 17.4728 7.57785 17.0961L12.4377 10.3377C12.604 10.1022 12.8773 9.97271 13.1625 9.97271H22.5613C22.8346 9.97271 23.096 10.1022 23.2742 10.3142L28.4905 17.0725C28.7875 17.4493 28.7162 17.9909 28.3479 18.297L18.4738 26.327C18.3075 26.4565 18.1055 26.5272 17.9035 26.5272H17.8916ZM9.50277 17.4611L17.9035 24.4902L26.5418 17.4611L22.1216 11.7271H13.6259L9.51465 17.4493L9.50277 17.4611Z"
                fill="#F50269"
              />
              <path
                d="M17.8916 26.5272C17.4044 26.5272 17.0004 26.1268 17.0004 25.6441V10.8558C17.0004 10.373 17.4044 9.97271 17.8916 9.97271C18.3787 9.97271 18.7827 10.373 18.7827 10.8558V25.6441C18.7827 26.1268 18.3788 26.5272 17.8916 26.5272Z"
                fill="#F50269"
              />
              <path
                d="M27.7656 18.4972H23.999C23.5118 18.4972 23.1078 18.0969 23.1078 17.6141C23.1078 17.1314 23.5118 16.7311 23.999 16.7311H27.7656C28.2528 16.7311 28.6568 17.1314 28.6568 17.6141C28.6568 18.0969 28.2528 18.4972 27.7656 18.4972Z"
                fill="#F50269"
              />
              <path
                d="M20.8978 18.4854C20.6601 18.4854 20.4344 18.3912 20.268 18.2264C20.1848 18.144 20.1135 18.0498 20.066 17.9438C20.0304 17.8378 20.0066 17.7201 20.0066 17.6024C20.0066 17.3669 20.1017 17.1432 20.268 16.9783C20.6007 16.6487 21.1829 16.6487 21.5275 16.9783C21.6939 17.1432 21.7889 17.3669 21.7889 17.6024C21.7889 17.7201 21.7652 17.8378 21.7176 17.9438C21.6701 18.0498 21.6107 18.144 21.5275 18.2264C21.3612 18.3912 21.1354 18.4854 20.8978 18.4854Z"
                fill="#F50269"
              />
              <path
                d="M17.5945 18.4972H9.79982C9.31265 18.4972 8.90866 18.0969 8.90866 17.6141C8.90866 17.1314 9.31265 16.7311 9.79982 16.7311H17.5945C18.0817 16.7311 18.4857 17.1314 18.4857 17.6141C18.4857 18.0969 18.0817 18.4972 17.5945 18.4972Z"
                fill="#F50269"
              />
              <path
                d="M17.8916 8.46561C17.4044 8.46561 17.0004 8.06529 17.0004 7.58255V0.883061C17.0004 0.400321 17.4044 0 17.8916 0C18.3787 0 18.7827 0.400321 18.7827 0.883061V7.58255C18.7827 8.06529 18.3787 8.46561 17.8916 8.46561Z"
                fill="#F50269"
              />
              <path
                d="M5.67671 12.9398C5.45094 12.9398 5.22518 12.8574 5.04695 12.6808L0.258437 7.93577C-0.0861458 7.59432 -0.0861458 7.02916 0.258437 6.68771C0.60302 6.34626 1.17336 6.34626 1.51794 6.68771L6.30646 11.4327C6.65104 11.7741 6.65104 12.3393 6.30646 12.6808C6.12823 12.8574 5.90247 12.9398 5.67671 12.9398Z"
                fill="#F50269"
              />
              <path
                d="M29.1796 12.9398C28.9539 12.9398 28.7281 12.8574 28.5499 12.6808C28.2053 12.3393 28.2053 11.7741 28.5499 11.4327L33.3384 6.68771C33.683 6.34626 34.2533 6.34626 34.5979 6.68771C34.9425 7.02916 34.9425 7.59432 34.5979 7.93577L29.8094 12.6808C29.6312 12.8574 29.4054 12.9398 29.1796 12.9398Z"
                fill="#F50269"
              />
            </svg>