   <svg
              class="w-[68px] flex items-center justify-center"
              width="41"
              height="40"
              viewBox="0 0 41 40"
              fill="none"
              xmlns="http://www.w3.org/2000/svg"
            >
              <path
                d="M19.9497 18.7267C19.9497 16.783 18.4043 15.209 16.496 15.209C14.5877 15.209 13.0423 16.783 13.0423 18.7267C13.0423 20.6704 14.5877 22.2444 16.496 22.2444C18.4043 22.2444 19.9497 20.6704 19.9497 18.7267ZM14.7984 18.7267C14.7984 17.7728 15.5594 16.9977 16.496 16.9977C17.4326 16.9977 18.1936 17.7728 18.1936 18.7267C18.1936 19.6807 17.4326 20.4558 16.496 20.4558C15.5594 20.4558 14.7984 19.6807 14.7984 18.7267Z"
                fill="url(#paint0_linear_759_7687)"
              />
              <path
                d="M28.8475 18.7267C28.8475 16.783 27.3021 15.209 25.3938 15.209C23.4854 15.209 21.94 16.783 21.94 18.7267C21.94 20.6704 23.4854 22.2444 25.3938 22.2444C27.3021 22.2444 28.8475 20.6704 28.8475 18.7267ZM23.6845 18.7267C23.6845 17.7728 24.4455 16.9977 25.3821 16.9977C26.3187 16.9977 27.0797 17.7728 27.0797 18.7267C27.0797 19.6807 26.3187 20.4558 25.3821 20.4558C24.4455 20.4558 23.6845 19.6807 23.6845 18.7267Z"
                fill="url(#paint1_linear_759_7687)"
              />
              <path
                d="M23.1927 34.2047C22.1508 34.2047 21.7644 33.6443 21.6473 33.4177V28.4452L23.6142 24.3193C23.743 24.045 23.7313 23.7112 23.5674 23.4608C23.4035 23.2103 23.1225 23.0434 22.8181 23.0434H18.7204C18.416 23.0434 18.1351 23.1984 17.9712 23.4608C17.8073 23.7231 17.7955 24.045 17.9243 24.3312L19.8912 28.4571V33.4177C19.7624 33.6562 19.3761 34.2047 18.3458 34.2047C17.7838 34.2047 17.3858 34.0735 17.1516 33.835C16.8706 33.5369 16.8824 33.1077 16.8824 33.0719C16.9058 32.583 16.5545 32.1656 16.0745 32.1298C15.6062 32.1179 15.173 32.4637 15.1379 32.9526C15.1379 33.0719 15.0794 34.1689 15.8638 35.0394C16.4375 35.6714 17.2804 35.9934 18.3575 35.9934C19.5283 35.9934 20.2893 35.576 20.781 35.111C21.2844 35.576 22.0454 35.9934 23.2045 35.9934C24.2816 35.9934 25.1128 35.6714 25.6982 35.0394C26.4943 34.1689 26.4357 33.0719 26.424 32.9526C26.3889 32.4637 25.9792 32.106 25.4874 32.1298C25.0074 32.1656 24.6445 32.5949 24.6796 33.0838C24.6796 33.0838 24.6796 33.525 24.4103 33.8231C24.1762 34.0735 23.7781 34.2047 23.2045 34.2047H23.1927ZM21.4132 24.8201L20.7693 26.1915L20.1254 24.8201H21.4249H21.4132Z"
                fill="url(#paint2_linear_759_7687)"
              />
              <path
                d="M40.1102 24.4982H37.4058C37.4409 24.0808 37.4643 23.6635 37.4643 23.2461C37.4643 21.0639 37.0428 18.9891 36.2935 17.0812C36.2935 17.0692 36.3053 17.0573 36.317 17.0454C36.8672 15.7337 37.3355 13.5277 37.4643 11.6913C37.4994 11.2024 37.1365 10.7731 36.6448 10.7373C36.1765 10.7135 35.7433 11.0712 35.7082 11.572C35.6379 12.5856 35.4389 13.7781 35.193 14.7916C33.9169 12.5737 32.1608 10.6777 30.0651 9.25869C30.3695 7.17191 33.0271 4.33389 34.8886 2.61676C34.9706 3.12951 35.0525 3.74959 35.1462 4.39351C35.2164 4.88241 35.6496 5.2163 36.1413 5.15667C36.6214 5.08513 36.9609 4.632 36.8906 4.14309C36.6448 2.31865 36.3872 0.756542 36.3872 0.756542C36.3404 0.446505 36.1296 0.184167 35.837 0.0649222C35.5443 -0.0423981 35.2164 0.00529977 34.9706 0.196091C34.3501 0.696919 29.5383 4.66777 28.4846 8.31666C26.2367 7.13614 23.6962 6.46837 21.0034 6.46837C18.3107 6.46837 15.6999 7.15999 13.4403 8.36436C12.3983 4.70354 7.5514 0.696919 6.9309 0.196091C6.69674 0.00529977 6.36893 -0.0543226 6.08795 0.0529977C5.80697 0.160318 5.58452 0.410732 5.52598 0.708844C5.43232 1.15005 3.30154 11.5959 5.57282 17.0335C5.59623 17.0812 5.61965 17.1169 5.65477 17.1646C4.9289 19.0487 4.51913 21.0997 4.51913 23.2342C4.51913 23.6635 4.55426 24.0689 4.57767 24.4863H0.87807C0.398058 24.4863 0 24.8917 0 25.3806C0 25.8695 0.398058 26.2749 0.87807 26.2749H4.81182C5.11622 27.9444 5.65477 29.5184 6.40405 30.9732L1.52199 33.1076C1.0771 33.2984 0.866362 33.8231 1.06539 34.2882C1.20588 34.6221 1.5337 34.8248 1.87322 34.8248C1.99029 34.8248 2.10737 34.8009 2.22444 34.7532L7.30554 32.5233C10.2676 37.0308 15.3018 40 21.0034 40C26.705 40 31.4817 37.1739 34.4672 32.8572L38.7873 34.7413C38.9043 34.789 39.0214 34.8128 39.1385 34.8128C39.478 34.8128 39.8058 34.6101 39.9463 34.2762C40.1336 33.8231 39.9346 33.2984 39.4897 33.0957L35.4272 31.319C36.2701 29.7688 36.8672 28.0636 37.195 26.263H40.1219C40.6019 26.263 41 25.8576 41 25.3687C41 24.8798 40.6019 24.4743 40.1219 24.4743L40.1102 24.4982ZM6.97773 2.58099C8.86265 4.29811 11.5788 7.19576 11.8481 9.29447C9.75243 10.7254 8.008 12.6452 6.74358 14.8751C5.81868 10.9758 6.54455 5.26399 6.98943 2.58099H6.97773ZM33.7881 30.6274L25.7333 27.1096C25.2884 26.9188 24.7733 27.1216 24.5859 27.5747C24.3986 28.0278 24.5977 28.5525 25.0425 28.7552L32.8047 32.1537C30.1236 35.8384 25.8387 38.2352 20.9917 38.2352C16.1448 38.2352 11.6022 35.6953 8.9446 31.8198L15.9457 28.7552C16.3906 28.5644 16.6014 28.0397 16.4023 27.5747C16.215 27.1216 15.6999 26.9069 15.255 27.1096L8.008 30.2815C7.36408 29.0414 6.87236 27.7059 6.57967 26.2868H15.454C15.934 26.2868 16.3321 25.8814 16.3321 25.3925C16.3321 24.9036 15.934 24.4982 15.454 24.4982H6.34552C6.31039 24.0808 6.28698 23.6635 6.28698 23.2461C6.28698 14.9824 12.8901 8.25704 21.0034 8.25704C23.7664 8.25704 26.3421 9.04405 28.5431 10.4034C28.6368 10.4988 28.7539 10.5704 28.8826 10.6181C32.9803 13.2772 35.7199 17.9397 35.7199 23.258C35.7199 23.6873 35.6965 24.0927 35.6613 24.5101H25.546C25.066 24.5101 24.6679 24.9155 24.6679 25.4044C24.6679 25.8933 25.066 26.2988 25.546 26.2988H35.4155C35.0994 27.849 34.5374 29.3037 33.7998 30.6393L33.7881 30.6274Z"
                fill="url(#paint3_linear_759_7687)"
              />
              <path
                d="M36.0945 7.10036C35.9891 7.14806 35.8955 7.20768 35.8135 7.29116C35.7316 7.37463 35.6613 7.48195 35.6145 7.58927C35.5794 7.69659 35.556 7.81583 35.556 7.92315C35.556 8.0424 35.5677 8.16164 35.6145 8.26896C35.6613 8.37628 35.7316 8.47168 35.8135 8.55515C35.8955 8.63862 35.9891 8.71017 36.0945 8.74594C36.1999 8.79364 36.317 8.81749 36.434 8.81749C36.5394 8.81749 36.6565 8.79364 36.7618 8.74594C36.8672 8.71017 36.9726 8.63862 37.0545 8.55515C37.1365 8.47168 37.195 8.37628 37.2419 8.26896C37.2887 8.16164 37.3121 8.0424 37.3121 7.92315C37.3121 7.81583 37.2887 7.69659 37.2419 7.58927C37.195 7.47002 37.1365 7.37463 37.0545 7.29116C36.9726 7.20768 36.8672 7.14806 36.7618 7.10036C36.5511 7.00497 36.3053 7.00497 36.0945 7.10036Z"
                fill="url(#paint4_linear_759_7687)"
              />
              <defs>
                <linearGradient
                  id="paint0_linear_759_7687"
                  x1="-5.99612e-08"
                  y1="4.46735"
                  x2="41"
                  y2="35.5326"
                  gradientUnits="userSpaceOnUse"
                >
                  <stop stop-color="#F47D41" />
                  <stop offset="1" stop-color="#FFD800" />
                </linearGradient>
                <linearGradient
                  id="paint1_linear_759_7687"
                  x1="-5.99612e-08"
                  y1="4.46735"
                  x2="41"
                  y2="35.5326"
                  gradientUnits="userSpaceOnUse"
                >
                  <stop stop-color="#F47D41" />
                  <stop offset="1" stop-color="#FFD800" />
                </linearGradient>
                <linearGradient
                  id="paint2_linear_759_7687"
                  x1="-5.99612e-08"
                  y1="4.46735"
                  x2="41"
                  y2="35.5326"
                  gradientUnits="userSpaceOnUse"
                >
                  <stop stop-color="#F47D41" />
                  <stop offset="1" stop-color="#FFD800" />
                </linearGradient>
                <linearGradient
                  id="paint3_linear_759_7687"
                  x1="-5.99612e-08"
                  y1="4.46735"
                  x2="41"
                  y2="35.5326"
                  gradientUnits="userSpaceOnUse"
                >
                  <stop stop-color="#F47D41" />
                  <stop offset="1" stop-color="#FFD800" />
                </linearGradient>
                <linearGradient
                  id="paint4_linear_759_7687"
                  x1="-5.99612e-08"
                  y1="4.46735"
                  x2="41"
                  y2="35.5326"
                  gradientUnits="userSpaceOnUse"
                >
                  <stop stop-color="#F47D41" />
                  <stop offset="1" stop-color="#FFD800" />
                </linearGradient>
              </defs>
            </svg>