<svg width="39" height="38" viewBox="0 0 39 38" fill="none" xmlns="http://www.w3.org/2000/svg">
<path d="M14.5989 37.989C12.1456 37.989 9.69224 37.2412 7.42595 35.7787C2.91537 32.8536 0 27.6632 0 22.5387C0 11.9599 5.20367 8.441 9.56023 7.35233C15.0609 5.97775 19.7915 9.28774 19.9896 9.4307C20.3636 9.69462 20.4406 10.2115 20.1766 10.5744C19.9126 10.9482 19.3955 11.0252 19.0214 10.7723C18.9774 10.7393 14.7089 7.75921 9.95628 8.94685C4.52158 10.2994 1.65021 15.006 1.65021 22.5387C1.65021 27.0473 4.33456 31.8089 8.31707 34.3931C11.7385 36.6034 15.589 36.9443 19.1645 35.3388C19.5825 35.1519 20.0666 35.3388 20.2536 35.7567C20.4406 36.1746 20.2536 36.6584 19.8355 36.8454C18.1193 37.6151 16.3481 38 14.5879 38L14.5989 37.989Z" fill="#4063FD"/>
<path d="M24.4231 37.989C22.6629 37.989 20.8917 37.6041 19.1755 36.8344C18.7574 36.6474 18.5704 36.1636 18.7574 35.7457C18.9444 35.3278 19.4285 35.1409 19.8465 35.3278C23.433 36.9333 27.2835 36.6034 30.6939 34.3821C34.6874 31.7979 37.3608 27.0363 37.3608 22.5277C37.3608 15.4129 34.4124 12.5977 33.3013 11.5421L34.4124 10.3214C35.5676 11.4211 39 14.6981 39 22.5277C39 27.6522 36.0846 32.8426 31.574 35.7677C29.2968 37.2412 26.8544 37.978 24.4011 37.978L24.4231 37.989Z" fill="#4063FD"/>
<path d="M19.5055 10.9262C19.2525 10.9262 18.9994 10.8053 18.8344 10.5853C18.5704 10.2115 18.6584 9.70562 19.0214 9.4307C19.2195 9.28774 23.9391 5.97775 29.4508 7.35233C29.8908 7.4623 30.1659 7.91316 30.0559 8.35303C29.9458 8.79289 29.4948 9.06781 29.0547 8.95784C24.2801 7.77021 20.0226 10.7503 19.9896 10.7723C19.8465 10.8713 19.6815 10.9262 19.5055 10.9262Z" fill="#4063FD"/>
<path d="M31.6511 10.2335C32.1128 10.2335 32.4872 9.85929 32.4872 9.39772C32.4872 8.93615 32.1128 8.56197 31.6511 8.56197C31.1893 8.56197 30.8149 8.93615 30.8149 9.39772C30.8149 9.85929 31.1893 10.2335 31.6511 10.2335Z" fill="#4063FD"/>
<path d="M23.653 33.9862C23.29 33.9862 22.9599 33.7443 22.8609 33.3814C22.7399 32.9415 23.0039 32.4907 23.444 32.3697C32.9272 29.8075 31.7281 21.593 31.6731 21.2411C31.5961 20.7902 31.9041 20.3724 32.3551 20.2954C32.8062 20.2184 33.2243 20.5263 33.3013 20.9772C33.3123 21.0761 34.8195 31.0061 23.8731 33.9642C23.796 33.9862 23.73 33.9972 23.653 33.9972V33.9862Z" fill="#4063FD"/>
<path d="M19.5055 9.90356C19.5055 9.90356 19.4175 9.90356 19.3625 9.90356C18.9114 9.82658 18.6144 9.40871 18.6804 8.95785C18.7244 8.71592 19.7145 3.04165 24.5881 0.116538C24.9732 -0.114392 25.4903 0.00657166 25.7213 0.402451C25.9523 0.798331 25.8313 1.30418 25.4353 1.53511C21.2327 4.05334 20.3196 9.17778 20.3086 9.23276C20.2426 9.63964 19.8905 9.91456 19.4945 9.91456L19.5055 9.90356Z" fill="#4063FD"/>
</svg>
