<svg width="39" height="43" viewBox="0 0 39 43" fill="none" xmlns="http://www.w3.org/2000/svg">
<path d="M19.3948 20.0127C14.0535 20.0127 9.72379 15.6283 9.72379 10.25C9.72379 4.87161 14.0535 0.473633 19.3948 0.473633C24.7362 0.473633 29.0659 4.858 29.0659 10.2363C29.0659 15.6147 24.7227 19.999 19.3948 19.999V20.0127ZM19.3948 2.51604C15.173 2.51604 11.747 5.97451 11.747 10.2363C11.747 14.4982 15.1865 17.9566 19.3948 17.9566C23.6032 17.9566 27.0427 14.4982 27.0427 10.2363C27.0427 5.97451 23.6032 2.51604 19.3948 2.51604Z" fill="black"/>
<path d="M37.7118 42.3157C37.1588 42.3157 36.7002 41.8528 36.7002 41.2945C36.7002 31.6544 28.931 23.8115 19.3814 23.8115C9.83169 23.8115 2.07597 31.668 2.07597 41.2945C2.07597 41.8528 1.61737 42.3157 1.06435 42.3157C0.511334 42.3157 0.0527344 41.8528 0.0527344 41.2945C0.0527344 30.5242 8.72566 21.7691 19.3948 21.7691C30.064 21.7691 38.7369 30.5242 38.7369 41.2945C38.7369 41.8528 38.2783 42.3157 37.7253 42.3157H37.7118Z" fill="black"/>
</svg>
