<svg xmlns="http://www.w3.org/2000/svg" width="52" height="58" viewBox="0 0 52 58" fill="none">
<path d="M36.5761 42.3037C36.4172 39.9094 37.3028 37.6307 38.2519 35.2115C39.2519 32.6474 40.2923 30.0087 40.3346 26.8415C40.4394 19.8482 36.3651 15.7223 33.4405 13.6581C34.3316 13.1278 35.0631 12.2897 35.4382 11.2227C36.2671 8.86486 35.1197 6.31547 32.8744 5.52617C30.6292 4.73686 28.1389 6.00747 27.31 8.36534C26.9349 9.4323 26.9811 10.5438 27.3444 11.5151C23.8012 11.2907 18.0162 11.9507 13.7173 17.4844C11.7638 19.9945 10.9241 22.7038 10.1043 25.3165C9.3308 27.7974 8.59106 30.1422 6.96883 31.9104C5.44771 33.5513 4.145 34.4106 3.09662 35.1076C1.7939 35.9669 0.564511 36.7779 0.746965 38.5441C0.92942 40.3103 2.09057 40.8961 2.79242 41.0244L13.1283 44.6579C12.4165 47.6045 13.9043 50.6288 16.689 51.6077C19.4736 52.5867 22.5266 51.1586 23.8153 48.4148L34.1511 52.0483C34.2469 52.0967 34.3426 52.1452 34.4555 52.1849C35.1454 52.4274 36.2521 52.4464 37.2987 51.3935C38.5634 50.1213 38.1073 48.7325 37.6288 47.2471C37.2473 46.0474 36.7563 44.5575 36.6091 42.3301L36.5761 42.3037ZM29.179 9.02236C29.6235 7.75781 30.9631 7.0743 32.1673 7.49762C33.3715 7.92094 33.9887 9.29233 33.5441 10.5569C33.1459 11.6897 32.0269 12.3472 30.9335 12.17C30.717 12.0643 30.5539 12.0069 30.546 11.9894C30.546 11.9894 30.3955 11.9364 30.1855 11.8922C29.239 11.3375 28.79 10.1288 29.1836 9.00919L29.179 9.02236ZM17.3631 49.6099C15.6447 49.0058 14.6606 47.1946 14.9893 45.2973L21.9259 47.7358C21.034 49.3907 19.1067 50.2228 17.3631 49.6099ZM35.9077 49.8981C35.5105 50.3061 35.2379 50.2399 35.1296 50.187C35.059 50.1474 34.9883 50.1078 34.9131 50.0813L3.37876 38.9957C3.37876 38.9957 3.24078 38.9472 3.18134 38.9559C3.04665 38.9381 2.77995 38.8148 2.71759 38.2304C2.68283 37.8482 2.78858 37.7078 4.09592 36.8354C5.17866 36.1208 6.66237 35.1475 8.36719 33.3048C10.3258 31.1812 11.1733 28.4895 11.976 25.8856C12.7356 23.4442 13.5309 20.9413 15.2339 18.7428C20.3557 12.1515 27.7327 13.4572 29.4658 13.8593C29.5992 13.921 29.7154 13.9914 29.8533 14.0399C29.9788 14.084 30.1009 14.0973 30.231 14.1283C31.9051 14.9388 38.444 18.6287 38.3186 26.8432C38.2713 29.6238 37.3208 32.0869 36.3902 34.4535C35.3994 36.9912 34.3763 39.6212 34.5626 42.4987C34.7268 44.9985 35.2751 46.6861 35.6851 47.9254C36.1714 49.4284 36.1614 49.6173 35.8872 49.8761L35.9077 49.8981Z" fill="#CBE8FF"/>
<path d="M31.1236 19.6074C30.6807 19.3037 30.0427 19.4346 29.7321 19.9174C29.4214 20.4002 29.5326 21.0461 29.988 21.3542C30.0257 21.3674 32.9047 23.4008 32.103 27.7662C32.0069 28.28 32.2879 28.7636 32.7395 28.9224C32.7896 28.94 32.8398 28.9576 32.89 28.9753C33.4367 29.0639 33.956 28.6692 34.0659 28.1159C35.1069 22.4285 31.276 19.7349 31.1143 19.6337L31.1236 19.6074Z" fill="#CBE8FF"/>
<path d="M43.955 24.9618C43.8979 25.4449 44.1803 25.8846 44.6068 26.0345C44.682 26.0609 44.7573 26.0874 44.8418 26.0875C45.3899 26.1322 45.8887 25.7155 45.9531 25.1313C46.4658 20.5459 42.5274 14.4697 42.3619 14.2191C42.0465 13.753 41.4246 13.638 40.9661 13.98C40.5122 14.3089 40.3824 14.9588 40.6931 15.4381C41.7182 17.0121 44.3229 21.7906 43.9676 24.9662L43.955 24.9618Z" fill="#CBE8FF"/>
<path d="M51.44 27.8446C51.4389 27.6074 51.4397 22.0724 50.211 17.6296C48.9632 13.1209 45.2438 8.58687 45.0848 8.39777C44.7305 7.9624 44.0933 7.93081 43.6757 8.31682C43.2456 8.69843 43.1956 9.36169 43.5546 9.78388C43.5955 9.82786 47.1513 14.1859 48.2811 18.2684C49.4255 22.43 49.4366 27.8508 49.4432 27.9123C49.4422 28.3559 49.718 28.7341 50.0943 28.8664C50.2072 28.9061 50.3122 28.9282 50.4436 28.9152C50.9976 28.9027 51.4476 28.4245 51.4526 27.8491L51.44 27.8446Z" fill="#CBE8FF"/>
<path d="M27.9806 51.6403C27.5516 51.2971 26.9104 51.3973 26.5667 51.8537C23.9529 55.3601 20.4813 55.6937 20.3374 55.7023C19.7866 55.7455 19.3571 56.2457 19.3818 56.8168C19.3981 57.2518 19.6705 57.5992 20.0343 57.727C20.1597 57.7711 20.2944 57.7889 20.4259 57.7759C20.6121 57.7673 24.9348 57.3777 28.1349 53.0858C28.4785 52.6294 28.4017 51.966 27.9727 51.6227L27.9806 51.6403Z" fill="#CBE8FF"/>
<path d="M20.4688 6.53759C20.1829 6.62946 13.2962 8.90019 10.8392 12.8022C10.5286 13.285 10.6523 13.9353 11.1077 14.2434C11.1784 14.283 11.249 14.3227 11.3243 14.3491C11.7507 14.499 12.2461 14.3328 12.5039 13.9202C14.5649 10.6634 20.9562 8.55896 21.0203 8.53708C21.5453 8.36645 21.8633 7.78263 21.7197 7.22894C21.5715 6.68842 21.019 6.37579 20.4814 6.542L20.4688 6.53759Z" fill="#CBE8FF"/>
<path d="M22.3185 2.31851C22.8673 2.20063 23.2308 1.64762 23.142 1.09839C23.0453 0.531582 22.5285 0.157501 21.9922 0.279788C21.7498 0.327787 16.0115 1.53698 12.2122 4.28625C8.47365 6.98288 4.99825 11.2964 4.86607 11.472C4.50986 11.924 4.56162 12.5786 4.98598 12.935C5.07244 13.0098 5.17607 13.0758 5.28896 13.1155C5.67781 13.2522 6.11701 13.1254 6.39391 12.7787C6.42497 12.7304 9.82571 8.50901 13.335 5.98339C16.7756 3.49282 22.2716 2.33163 22.331 2.32292L22.3185 2.31851Z" fill="#CBE8FF"/>
<path d="M11.6949 52.6642C11.588 52.5674 9.09348 50.1216 9.24415 45.7641C9.26168 45.1931 8.83673 44.7181 8.27479 44.7129C7.7254 44.7122 7.25495 45.1684 7.23279 45.7526C7.04319 51.1029 10.1713 54.1118 10.3112 54.235C10.4055 54.3273 10.5217 54.3978 10.6471 54.4419C11.0109 54.5697 11.4408 54.4693 11.7257 54.1402C12.1023 53.7102 12.0803 53.0512 11.6777 52.6729L11.6949 52.6642Z" fill="#CBE8FF"/>
</svg>