 <svg
          xmlns="http://www.w3.org/2000/svg"
          width="22"
          height="22"
          viewBox="0 0 22 22"
          fill="none"
        >
          <path
            d="M11.7689 5.4039L21.5562 15.1911C21.7831 15.3897 21.8966 15.6379 21.8966 15.9358C21.8966 16.2337 21.7902 16.4961 21.5775 16.7231C21.3647 16.95 21.1023 17.0635 20.7902 17.0635C20.4782 17.0635 20.2228 16.95 20.0243 16.7231L11.003 7.74433L1.98172 16.7231C1.78313 16.95 1.52781 17.0635 1.21576 17.0635C0.903701 17.0635 0.64129 16.95 0.428524 16.7231C0.215758 16.4961 0.109375 16.2337 0.109375 15.9358C0.109375 15.6379 0.22285 15.3755 0.449801 15.1486L10.237 5.4039C10.4356 5.17695 10.6909 5.06348 11.003 5.06348C11.315 5.06348 11.5704 5.17695 11.7689 5.4039Z"
            fill="white"
          />
        </svg>