     <svg
              class="w-[68px] flex items-center justify-center"
              width="59"
              height="33"
              viewBox="0 0 59 33"
              fill="none"
              xmlns="http://www.w3.org/2000/svg"
            >
              <path
                d="M15.6195 20.7C10.6896 20.7 6.69039 16.6778 6.69039 11.7444C6.69039 6.8111 10.7007 2.78888 15.6195 2.78888C20.5383 2.78888 24.5486 6.8111 24.5486 11.7444C24.5486 16.6778 20.5383 20.7 15.6195 20.7ZM15.6195 4.45555C11.6091 4.45555 8.35213 7.72221 8.35213 11.7444C8.35213 15.7667 11.6091 19.0333 15.6195 19.0333C19.6298 19.0333 22.8868 15.7667 22.8868 11.7444C22.8868 7.72221 19.6298 4.45555 15.6195 4.45555Z"
                fill="#F50269"
              />
              <path
                d="M7.85358 13.2222C7.43261 13.2222 7.07811 12.9 7.0338 12.4778C6.98949 12.0222 7.31077 11.6111 7.77606 11.5556C7.83145 11.5556 13.293 10.9 14.8551 6.61111C14.988 6.25555 15.3204 6.02222 15.7192 6.06666C16.0958 6.1 16.406 6.4 16.4614 6.76666C16.4614 6.83333 16.7495 8.46666 18.3115 9.31111C18.7214 9.53333 18.8654 10.0333 18.6439 10.4444C18.4223 10.8556 17.9238 11 17.5139 10.7778C16.5722 10.2667 15.9518 9.56666 15.5419 8.9C13.0604 12.6222 8.18596 13.1778 7.95332 13.2111C7.92008 13.2111 7.89791 13.2111 7.86467 13.2111L7.85358 13.2222Z"
                fill="#F50269"
              />
              <path
                d="M0.829957 16.5444C0.541922 16.5444 0.264971 16.3889 0.109875 16.1222C-0.100613 15.7556 -0.000917634 15.2889 0.34251 15.0333C1.04044 14.5222 1.95995 10.9333 1.00721 7.66667C0.685943 6.57778 0.309302 4.54444 1.33958 3.04444C1.9932 2.08889 3.06777 1.55556 4.5301 1.44445C8.64015 1.12222 10.3684 5.11111 10.4459 5.27778C10.6232 5.7 10.4348 6.18889 10.0139 6.37778C9.5929 6.55555 9.10546 6.37778 8.91713 5.94444C8.86174 5.81111 7.54342 2.87778 4.65198 3.11111C3.71033 3.17778 3.0567 3.47778 2.70219 4C2.03749 4.96667 2.41416 6.56667 2.60249 7.21111C3.17856 9.17778 3.20073 11.5778 2.79084 13.4778C3.58847 12.7778 4.3307 11.8444 4.46364 10.7333C4.64089 9.25556 4.58552 8.46667 4.55228 7.94444C4.50797 7.36667 4.47471 6.81111 5.05079 6.28889C6.46881 4.98889 8.38537 6.04445 9.29379 6.86667C9.63722 7.17778 9.65937 7.7 9.36026 8.04444C9.05007 8.38889 8.52939 8.41111 8.18596 8.11111C8.17488 8.1 6.81225 6.93333 6.1697 7.52222C6.1697 7.51111 6.20295 7.67778 6.21403 7.83333C6.24726 8.37778 6.31374 9.3 6.11433 10.9333C5.69335 14.4889 1.36171 16.4111 1.17338 16.4889C1.0626 16.5333 0.951829 16.5556 0.841046 16.5556L0.829957 16.5444Z"
                fill="#F50269"
              />
              <path
                d="M30.7413 16.5444C30.6306 16.5444 30.5198 16.5222 30.409 16.4778C30.2207 16.4 25.9002 14.4778 25.4681 10.9222C25.2687 9.27778 25.3352 8.36667 25.3684 7.82223C25.3795 7.66667 25.3905 7.48889 25.3795 7.43334C24.7701 6.93334 23.4075 8.08889 23.3854 8.10001C23.0419 8.41112 22.5213 8.37778 22.2111 8.03334C21.9009 7.68889 21.9341 7.16667 22.2775 6.85556C23.186 6.03334 25.1136 4.98889 26.5205 6.27778C27.0966 6.80001 27.0523 7.35556 27.0191 7.93334C26.9858 8.45556 26.9304 9.23334 27.1077 10.7222C27.2406 11.8333 27.9829 12.7667 28.7805 13.4667C28.3706 11.5667 28.3928 9.16667 28.9688 7.20001C29.1572 6.55556 29.5227 4.95556 28.8691 3.9889C28.5146 3.47778 27.861 3.17778 26.9193 3.10001C24.0501 2.90001 22.7096 5.81112 22.6542 5.93334C22.4659 6.35556 21.9895 6.54445 21.5575 6.35556C21.1365 6.16667 20.9481 5.68889 21.1254 5.26667C21.2029 5.10001 22.9644 1.11112 27.0412 1.43334C28.5035 1.54445 29.5781 2.07778 30.2317 3.03334C31.262 4.53334 30.8854 6.57778 30.5641 7.65556C29.6003 10.9222 30.5309 14.5111 31.2177 15.0222C31.5612 15.2778 31.6609 15.7445 31.4504 16.1111C31.2953 16.3778 31.0183 16.5333 30.7303 16.5333L30.7413 16.5444Z"
                fill="#F50269"
              />
              <path
                d="M4.96218 33C4.50797 33 4.1313 32.6222 4.1313 32.1667V26.1444C4.1313 23.2667 8.35212 20.2556 8.82849 19.9222C9.20515 19.6556 9.72584 19.7556 9.98064 20.1333C10.2465 20.5111 10.1468 21.0333 9.77015 21.2889C8.23027 22.3556 5.79305 24.6222 5.79305 26.1444V32.1667C5.79305 32.6222 5.41639 33 4.96218 33Z"
                fill="#F50269"
              />
              <path
                d="M10.1025 33C9.64828 33 9.27162 32.6222 9.27162 32.1667V27.9222C9.27162 27.4667 9.64828 27.0889 10.1025 27.0889C10.5567 27.0889 10.9334 27.4667 10.9334 27.9222V32.1667C10.9334 32.6222 10.5567 33 10.1025 33Z"
                fill="#F50269"
              />
              <path
                d="M26.2103 33C25.7561 33 25.3795 32.6222 25.3795 32.1667V26.1444C25.3795 24.6222 22.9312 22.3667 21.4024 21.2889C21.0257 21.0222 20.926 20.5111 21.1919 20.1333C21.4577 19.7556 21.9674 19.6556 22.344 19.9222C22.8204 20.2556 27.0412 23.2667 27.0412 26.1444V32.1667C27.0412 32.6222 26.6645 33 26.2103 33Z"
                fill="#F50269"
              />
              <path
                d="M21.0589 33C20.6047 33 20.2281 32.6222 20.2281 32.1667V27.9222C20.2281 27.4667 20.6047 27.0889 21.0589 27.0889C21.5131 27.0889 21.8898 27.4667 21.8898 27.9222V32.1667C21.8898 32.6222 21.5131 33 21.0589 33Z"
                fill="#F50269"
              />
              <path
                d="M43.0272 20.7C38.5294 20.7 34.7185 17.3222 34.1645 12.8445C34.1091 12.3889 34.4304 11.9667 34.8847 11.9111C35.3499 11.8556 35.7598 12.1778 35.8152 12.6333C36.2584 16.2778 39.3603 19.0222 43.0272 19.0222C47.0375 19.0222 50.2946 15.7556 50.2946 11.7333C50.2946 10.8778 50.2946 10.6 50.073 9.94445C49.929 9.51112 50.1727 9.03334 50.6048 8.90001C51.0368 8.75556 51.5131 9.00001 51.6461 9.43334C51.9341 10.3222 51.9452 10.8111 51.9452 11.7222C51.9452 16.6667 47.9349 20.6778 43.0161 20.6778L43.0272 20.7Z"
                fill="#F50269"
              />
              <path
                d="M32.3699 33C31.9157 33 31.539 32.6222 31.539 32.1667V26.1444C31.539 23.2667 35.7598 20.2556 36.2362 19.9222C36.6129 19.6556 37.1335 19.7556 37.3883 20.1333C37.6542 20.5111 37.5545 21.0333 37.1778 21.2889C35.638 22.3556 33.2007 24.6222 33.2007 26.1444V32.1667C33.2007 32.6222 32.8241 33 32.3699 33Z"
                fill="#F50269"
              />
              <path
                d="M37.5102 33C37.056 33 36.6793 32.6222 36.6793 32.1667V27.9222C36.6793 27.4667 37.056 27.0889 37.5102 27.0889C37.9644 27.0889 38.3411 27.4667 38.3411 27.9222V32.1667C38.3411 32.6222 37.9644 33 37.5102 33Z"
                fill="#F50269"
              />
              <path
                d="M53.6181 33C53.1639 33 52.7872 32.6222 52.7872 32.1667V26.1444C52.7872 24.6222 50.3389 22.3667 48.8101 21.2889C48.4334 21.0222 48.3337 20.5111 48.5996 20.1333C48.8544 19.7556 49.375 19.6556 49.7517 19.9222C50.2281 20.2556 54.4489 23.2667 54.4489 26.1444V32.1667C54.4489 32.6222 54.0723 33 53.6181 33Z"
                fill="#F50269"
              />
              <path
                d="M48.4777 33C48.0235 33 47.6468 32.6222 47.6468 32.1667V27.9222C47.6468 27.4667 48.0235 27.0889 48.4777 27.0889C48.9319 27.0889 49.3086 27.4667 49.3086 27.9222V32.1667C49.3086 32.6222 48.9319 33 48.4777 33Z"
                fill="#F50269"
              />
              <path
                d="M34.6852 11.3444C34.2975 11.3444 33.943 11.0667 33.8654 10.6667C33.7547 10.1 33.6993 9.53333 33.6993 8.98889C33.6993 4.03333 37.7207 0 42.6616 0C47.104 0 50.915 3.33333 51.5353 7.74444C51.6018 8.18889 51.2916 8.61111 50.8485 8.67778L34.8071 11.3333C34.8071 11.3333 34.7185 11.3333 34.6742 11.3333L34.6852 11.3444ZM42.6727 1.66667C38.6402 1.66667 35.3721 4.95555 35.3721 8.98889C35.3721 9.17778 35.3721 9.35555 35.3943 9.54444L49.7517 7.16666C48.9319 3.97778 46.0294 1.65555 42.6838 1.65555L42.6727 1.66667Z"
                fill="#F50269"
              />
              <path
                d="M50.7266 8.68888C50.3278 8.68888 49.9733 8.4 49.9068 7.98888C49.8404 7.53333 50.1506 7.11111 50.5937 7.03333L58.0383 5.86666C58.4814 5.8 58.9135 6.1 58.991 6.55555C59.0575 7.01111 58.7473 7.43333 58.3042 7.51111L50.8596 8.67777C50.8596 8.67777 50.7709 8.67777 50.7266 8.67777V8.68888Z"
                fill="#F50269"
              />
              <path
                d="M46.672 8.87777C46.2288 8.87777 45.8522 8.52221 45.8411 8.07777C45.8411 8.07777 45.8078 7.26666 45.3536 5.94444C45.2096 5.5111 45.4312 5.03332 45.8633 4.88888C46.2953 4.73332 46.7717 4.96666 46.9157 5.39999C47.4474 6.96666 47.4917 7.92221 47.4917 8.02221C47.5028 8.47777 47.1483 8.86666 46.683 8.87777H46.6609H46.672Z"
                fill="#F50269"
              />
              <path
                d="M38.4629 10.1889C38.0863 10.1889 37.754 9.93333 37.6543 9.55555C37.5878 9.29999 36.1365 3.15555 40.3352 0.499994C40.7229 0.255549 41.2325 0.377771 41.4762 0.76666C41.72 1.15555 41.6092 1.66666 41.2104 1.9111C38.0198 3.92221 39.2384 9.09999 39.2495 9.15555C39.3603 9.59999 39.0833 10.0555 38.6402 10.1667C38.5737 10.1778 38.5073 10.1889 38.4408 10.1889H38.4629Z"
                fill="#F50269"
              />
              <path
                d="M20.5161 12.5778C20.2945 12.5778 20.084 12.4889 19.9179 12.3333C19.8403 12.2556 19.7849 12.1667 19.7406 12.0667C19.6963 11.9556 19.6852 11.8556 19.6852 11.7444C19.6852 11.5222 19.7628 11.3111 19.9179 11.1556C20.2391 10.8444 20.782 10.8444 21.0922 11.1556C21.2583 11.3111 21.3359 11.5222 21.3359 11.7444C21.3359 11.8556 21.3138 11.9556 21.2805 12.0667C21.2362 12.1667 21.1808 12.2556 21.0922 12.3333C20.9371 12.4889 20.7266 12.5778 20.5161 12.5778Z"
                fill="#F50269"
              />
              <path
                d="M44.9881 4.17778C44.7665 4.17778 44.556 4.10001 44.4009 3.93334C44.3234 3.86667 44.2569 3.76667 44.2237 3.66667C44.1793 3.56667 44.1572 3.45556 44.1572 3.34445C44.1572 3.12223 44.2458 2.92223 44.4009 2.75556C44.7111 2.44445 45.265 2.44445 45.5752 2.75556C45.7303 2.92223 45.8189 3.12223 45.8189 3.34445C45.8189 3.45556 45.7968 3.56667 45.7525 3.66667C45.7082 3.76667 45.6528 3.85556 45.5752 3.93334C45.4977 4.02223 45.409 4.07778 45.2983 4.12223C45.1986 4.16667 45.0988 4.17778 44.9881 4.17778Z"
                fill="#F50269"
              />
            </svg>