    <svg
              class="w-[68px] flex items-center justify-center"
              width="38"
              height="35"
              viewBox="0 0 38 35"
              fill="none"
              xmlns="http://www.w3.org/2000/svg"
            >
              <path
                d="M38 10.1237C38 9.9228 37.901 9.72194 37.7525 9.58134L29.6359 2.13952C29.5666 2.07927 29.4874 2.02905 29.3983 1.98888L24.2412 0.0606376C23.9937 -0.0297488 23.7265 0.0204658 23.5186 0.181153C23.3107 0.351883 23.2118 0.612999 23.2514 0.874115C23.2514 0.904244 23.3503 1.63738 22.8059 2.28013C22.212 2.97309 21.0242 3.34468 19.3811 3.34468C17.7379 3.34468 16.4512 2.96305 15.7385 2.22991C15.0852 1.55703 15.0753 0.803814 15.0753 0.783729C15.0753 0.532655 14.9664 0.301668 14.7783 0.151024C14.5804 0.000379682 14.3329 -0.0397917 14.0953 0.0405518L8.50274 1.9688C8.40375 1.99892 8.31465 2.05918 8.23546 2.12948L0.237552 9.57129C0.0890761 9.7119 0 9.90271 0 10.1136C0 10.3245 0.0692901 10.5153 0.217766 10.666L6.36467 16.9328V34.2468C6.36467 34.6585 6.70122 35 7.10706 35H30.5663C30.9721 35 31.3087 34.6585 31.3087 34.2468V17.3144L37.7822 10.6559C37.9208 10.5053 38 10.3145 38 10.1036V10.1237ZM31.3186 10.907C31.3186 10.4952 30.982 10.1538 30.5762 10.1538C30.1704 10.1538 29.8338 10.4952 29.8338 10.907V29.7275H26.4486C26.0427 29.7275 25.7062 30.0689 25.7062 30.4807C25.7062 30.8924 26.0427 31.2339 26.4486 31.2339H29.8338V33.5136H7.85934V31.2339H19.9453C20.3511 31.2339 20.6877 30.8924 20.6877 30.4807C20.6877 30.0689 20.3511 29.7275 19.9453 29.7275H7.85934V11.4594C7.85934 11.0476 7.5228 10.7061 7.11696 10.7061C6.71113 10.7061 6.37458 11.0476 6.37458 11.4594V14.8137L1.83118 10.1739L9.14613 3.3748L13.7687 1.78802C13.9073 2.23995 14.1745 2.78227 14.6596 3.28442C15.6692 4.33893 17.2628 4.88125 19.391 4.88125C21.5192 4.88125 23.0633 4.33893 23.9641 3.26433C24.36 2.79232 24.5679 2.28013 24.6668 1.83824L28.7549 3.36476L36.1886 10.1839L31.3186 15.1953V10.907Z"
                fill="#F47D41"
              />
              <path
                d="M28.0917 15.6975H22.311C21.9052 15.6975 21.5686 16.0389 21.5686 16.4507V19.3832C21.5686 21.4119 23.2019 23.069 25.2013 23.069C27.2008 23.069 28.834 21.4119 28.834 19.3832V16.4507C28.834 16.0389 28.4975 15.6975 28.0917 15.6975ZM27.3493 19.3832C27.3493 20.5884 26.3892 21.5626 25.2013 21.5626C24.0135 21.5626 23.0534 20.5884 23.0534 19.3832V17.2039H27.3493V19.3832Z"
                fill="#F47D41"
              />
              <path
                d="M23.5879 29.7877C23.3998 29.7074 23.2019 29.7074 23.0138 29.7877C22.9247 29.8279 22.8455 29.8781 22.7762 29.9484C22.7069 30.0187 22.6574 30.0991 22.6178 30.1894C22.5782 30.2798 22.5585 30.3802 22.5585 30.4807C22.5585 30.5811 22.5782 30.6815 22.6178 30.7719C22.6574 30.8623 22.7069 30.9427 22.7762 31.013C22.8455 31.0833 22.9247 31.1435 23.0138 31.1736C23.1128 31.2138 23.2019 31.2339 23.3008 31.2339C23.3998 31.2339 23.4988 31.2138 23.5879 31.1736C23.677 31.1435 23.7562 31.0833 23.8255 31.013C23.964 30.8724 24.0432 30.6815 24.0432 30.4807C24.0432 30.2798 23.964 30.089 23.8255 29.9484C23.7562 29.8781 23.677 29.8279 23.5879 29.7877Z"
                fill="#F47D41"
              />
            </svg>