<svg width="42" height="24" viewBox="0 0 42 24" fill="none" xmlns="http://www.w3.org/2000/svg">
<path d="M33.9912 6.21667C32.8985 6.21667 31.8496 6.43067 30.8991 6.82657V4.24788C30.8991 4.24788 30.8772 4.17298 30.8772 4.14088C30.8772 4.06598 30.8991 3.99108 30.8991 3.91618C30.8991 1.69059 27.4027 0 22.7591 0C18.1155 0 14.6192 1.67989 14.6192 3.91618C14.6192 4.00178 14.6301 4.08738 14.641 4.18368C14.641 4.22648 14.6192 4.26928 14.6192 4.31208V9.45876C14.0291 9.09496 13.308 8.77396 12.4448 8.52786C12.0078 8.41016 11.5598 8.64556 11.4287 9.07356C11.2976 9.50156 11.5489 9.94026 11.986 10.0687C13.8106 10.593 14.6301 11.3527 14.6301 11.8769C14.6301 12.8185 12.0952 14.1881 8.12903 14.1881C4.16285 14.1881 1.628 12.8185 1.628 11.8769C1.628 11.4811 2.08688 11.0103 2.86264 10.6037C3.37617 10.3469 5.23361 9.80116 6.04214 9.71556C6.49011 9.66206 6.8179 9.26616 6.76327 8.82746C6.70864 8.38876 6.30437 8.07847 5.8564 8.12127C4.8949 8.22826 2.82987 8.81676 2.10875 9.19126C0.742985 9.89746 0 10.8498 0 11.8769C0 11.9625 0.0109308 12.0481 0.0218569 12.1444C0.0218569 12.1872 0 12.23 0 12.2728V21.1859C0 21.3892 0.0764795 21.5925 0.218519 21.7316C0.305928 21.8279 2.4693 24 8.50052 24C12.2591 24 14.3241 22.9086 15.3293 22.1168C16.2471 22.7695 18.5963 24 23.1415 24C28.9214 24 30.7133 21.4213 30.7789 21.3143C30.7898 21.2929 30.7898 21.2715 30.8007 21.2501C31.7841 21.6674 32.8658 21.9135 34.0021 21.9135C38.4162 21.9135 42 18.4039 42 14.0811C42 9.75836 38.4162 6.24877 34.0021 6.24877L33.9912 6.21667ZM27.1951 9.94026C26.2336 10.2185 24.6165 10.5074 23.1197 10.5074C18.8913 10.5074 16.8808 9.37316 16.2471 8.92376V6.32367C17.7112 7.25457 20.0276 7.83237 22.7482 7.83237C25.4688 7.83237 27.7851 7.25457 29.2492 6.32367V7.75747C28.4298 8.35666 27.7305 9.09496 27.1842 9.95096L27.1951 9.94026ZM16.2581 14.691C17.5146 15.3116 19.6889 16.0178 23.1306 16.0178C24.2341 16.0178 25.2503 15.9001 26.1899 15.7182C26.3647 16.4886 26.6488 17.2162 27.0312 17.8796C25.9277 18.2434 24.6275 18.4467 23.1306 18.4467C18.9022 18.4467 16.8918 17.3125 16.2581 16.8631V14.691ZM25.9932 14.049C25.9932 14.049 25.9932 14.1025 25.9932 14.1239C25.1301 14.3058 24.1686 14.4128 23.1197 14.4128C18.8913 14.4128 16.8808 13.2786 16.2471 12.8292V10.7749C17.5036 11.3955 19.6779 12.1016 23.1197 12.1016C24.256 12.1016 25.4032 11.9625 26.3319 11.7806C26.1134 12.4975 25.9932 13.2572 25.9932 14.0383V14.049ZM22.7591 1.59429C26.7253 1.59429 29.2601 2.96389 29.2601 3.90548C29.2601 4.84708 26.7253 6.21667 22.7591 6.21667C18.7929 6.21667 16.2581 4.84708 16.2581 3.90548C16.2581 2.96389 18.7929 1.59429 22.7591 1.59429ZM8.11811 15.7717C10.8387 15.7717 13.1551 15.1939 14.6192 14.263V16.6384C14.1603 17.1092 12.4776 18.4467 8.4896 18.4467C4.26119 18.4467 2.25078 17.3125 1.61706 16.8631V14.263C3.08116 15.1939 5.39751 15.7717 8.11811 15.7717ZM1.60614 20.7793V18.7249C2.86264 19.3455 5.03695 20.0517 8.47868 20.0517C11.5271 20.0517 13.45 19.3348 14.6082 18.65V20.5546C14.1493 21.0254 12.4667 22.3629 8.47868 22.3629C4.25027 22.3629 2.23986 21.2287 1.60614 20.7793ZM23.1306 22.3629C18.9022 22.3629 16.8918 21.2287 16.2581 20.7793V18.7249C17.5146 19.3455 19.6889 20.0517 23.1306 20.0517C25.0208 20.0517 26.6597 19.7735 28.0255 19.2385C28.4298 19.6879 28.8777 20.0838 29.3803 20.4262C29.1727 20.683 27.5994 22.3629 23.1306 22.3629ZM33.9912 20.2764C30.4839 20.2764 27.6322 17.4837 27.6322 14.049C27.6322 10.6144 30.4839 7.82167 33.9912 7.82167C37.4984 7.82167 40.3502 10.6144 40.3502 14.049C40.3502 17.4837 37.4984 20.2764 33.9912 20.2764Z" fill="#4063FD"/>
<path d="M31.4235 15.6861L33.9584 12.0802V11.3741H30.0031V12.3798H32.3632V12.4119L29.7628 16.0606V16.7133H34.0021V15.7182H31.4235V15.6861Z" fill="#4063FD"/>
<path d="M36.0671 14.0597L37.0832 13.3856V12.5403L36.0671 13.2144V11.3741H34.8325V14.0169L34.2206 14.4235V15.2581L34.8325 14.8515V16.7133H38.2305V15.6968H36.0671V14.0597Z" fill="#4063FD"/>
<path d="M9.13424 9.69416C9.2435 9.69416 9.35277 9.67276 9.4511 9.64066C9.54944 9.59786 9.64776 9.53366 9.71332 9.46946C9.86628 9.31966 9.9537 9.10566 9.9537 8.89166C9.9537 8.79536 9.93184 8.68836 9.89906 8.59206C9.85536 8.48506 9.7898 8.39946 9.71332 8.32456C9.64776 8.24967 9.54944 8.19617 9.4511 8.15337C9.25443 8.07847 9.02498 8.07847 8.82831 8.15337C8.72997 8.19617 8.63164 8.24967 8.55515 8.32456C8.47867 8.39946 8.42404 8.48506 8.38033 8.59206C8.33663 8.68836 8.31478 8.79536 8.31478 8.89166C8.31478 9.10566 8.40219 9.31966 8.55515 9.46946C8.71904 9.60856 8.92664 9.69416 9.13424 9.69416Z" fill="#4063FD"/>
</svg>
