  <svg
              class="flex items-center justify-center"
              width="45"
              height="38"
              viewBox="0 0 45 38"
              fill="none"
              xmlns="http://www.w3.org/2000/svg"
            >
              <path
                d="M44.9347 33.8854C44.9347 33.8854 44.9347 33.831 44.9347 33.8092L41.5728 24.6657V0.816385C41.5728 0.370095 41.2029 0 40.7568 0H4.17795C3.73186 0 3.36194 0.370095 3.36194 0.816385V24.6657L0.043513 33.8092C0.043513 33.8092 0.043513 33.8636 0.043513 33.8854C0.0217528 33.9507 0 34.016 0 34.0814V35.7468C0 36.9877 1.01184 38 2.25217 38H42.7478C43.9881 38 45 36.9877 45 35.7468V34.0814C45 34.0052 44.9782 33.9398 44.9565 33.8745L44.9347 33.8854ZM4.98308 1.63277H39.9299V23.9908H4.98308V1.63277ZM40.1692 25.6236L42.9763 33.2759H1.94753L4.72195 25.6236H40.1692ZM43.3462 35.7577C43.3462 36.0951 43.0634 36.3781 42.7261 36.3781H2.23042C1.89314 36.3781 1.61025 36.0951 1.61025 35.7577V34.9086H43.3462V35.7577Z"
                fill="#696ADB"
              />
              <path
                d="M27.9836 30.0103H16.875C16.4289 30.0103 16.059 30.3804 16.059 30.8267C16.059 31.273 16.4289 31.6431 16.875 31.6431H27.9836C28.4296 31.6431 28.7996 31.273 28.7996 30.8267C28.7996 30.3804 28.4296 30.0103 27.9836 30.0103Z"
                fill="#696ADB"
              />
              <path
                d="M33.0101 30.0103H31.03C30.5839 30.0103 30.214 30.3804 30.214 30.8267C30.214 31.273 30.5839 31.6431 31.03 31.6431H33.0101C33.4562 31.6431 33.8261 31.273 33.8261 30.8267C33.8261 30.3804 33.4562 30.0103 33.0101 30.0103Z"
                fill="#696ADB"
              />
              <path
                d="M37.6777 30.0103H35.6975C35.2514 30.0103 34.8815 30.3804 34.8815 30.8267C34.8815 31.273 35.2514 31.6431 35.6975 31.6431H37.6777C38.1238 31.6431 38.4937 31.273 38.4937 30.8267C38.4937 30.3804 38.1238 30.0103 37.6777 30.0103Z"
                fill="#696ADB"
              />
              <path
                d="M37.6777 27.006H35.6975C35.2514 27.006 34.8815 27.3761 34.8815 27.8224C34.8815 28.2687 35.2514 28.6388 35.6975 28.6388H37.6777C38.1238 28.6388 38.4937 28.2687 38.4937 27.8224C38.4937 27.3761 38.1238 27.006 37.6777 27.006Z"
                fill="#696ADB"
              />
              <path
                d="M9.36774 30.0103H7.38756C6.94148 30.0103 6.57155 30.3804 6.57155 30.8267C6.57155 31.273 6.94148 31.6431 7.38756 31.6431H9.36774C9.81382 31.6431 10.1837 31.273 10.1837 30.8267C10.1837 30.3804 9.81382 30.0103 9.36774 30.0103Z"
                fill="#696ADB"
              />
              <path
                d="M14.0353 30.0103H12.0551C11.609 30.0103 11.2391 30.3804 11.2391 30.8267C11.2391 31.273 11.609 31.6431 12.0551 31.6431H14.0353C14.4814 31.6431 14.8513 31.273 14.8513 30.8267C14.8513 30.3804 14.4814 30.0103 14.0353 30.0103Z"
                fill="#696ADB"
              />
              <path
                d="M9.36774 27.006H7.38756C6.94148 27.006 6.57155 27.3761 6.57155 27.8224C6.57155 28.2687 6.94148 28.6388 7.38756 28.6388H9.36774C9.81382 28.6388 10.1837 28.2687 10.1837 27.8224C10.1837 27.3761 9.81382 27.006 9.36774 27.006Z"
                fill="#696ADB"
              />
              <path
                d="M14.0353 27.006H12.0551C11.609 27.006 11.2391 27.3761 11.2391 27.8224C11.2391 28.2687 11.609 28.6388 12.0551 28.6388H14.0353C14.4814 28.6388 14.8513 28.2687 14.8513 27.8224C14.8513 27.3761 14.4814 27.006 14.0353 27.006Z"
                fill="#696ADB"
              />
              <path
                d="M16.9838 28.6388H18.964C19.41 28.6388 19.78 28.2687 19.78 27.8224C19.78 27.3761 19.41 27.006 18.964 27.006H16.9838C16.5377 27.006 16.1678 27.3761 16.1678 27.8224C16.1678 28.2687 16.5377 28.6388 16.9838 28.6388Z"
                fill="#696ADB"
              />
              <path
                d="M21.6622 28.6388H23.6424C24.0885 28.6388 24.4584 28.2687 24.4584 27.8224C24.4584 27.3761 24.0885 27.006 23.6424 27.006H21.6622C21.2161 27.006 20.8462 27.3761 20.8462 27.8224C20.8462 28.2687 21.2161 28.6388 21.6622 28.6388Z"
                fill="#696ADB"
              />
              <path
                d="M28.1794 27.006H26.1992C25.7531 27.006 25.3832 27.3761 25.3832 27.8224C25.3832 28.2687 25.7531 28.6388 26.1992 28.6388H28.1794C28.6255 28.6388 28.9954 28.2687 28.9954 27.8224C28.9954 27.3761 28.6255 27.006 28.1794 27.006Z"
                fill="#696ADB"
              />
              <path
                d="M30.8776 28.6388H32.8578C33.3039 28.6388 33.6738 28.2687 33.6738 27.8224C33.6738 27.3761 33.3039 27.006 32.8578 27.006H30.8776C30.4316 27.006 30.0616 27.3761 30.0616 27.8224C30.0616 28.2687 30.4316 28.6388 30.8776 28.6388Z"
                fill="#696ADB"
              />
              <path
                d="M26.221 3.39616H7.38756C6.94148 3.39616 6.57155 3.76626 6.57155 4.21255V20.2028C6.57155 20.6491 6.94148 21.0192 7.38756 21.0192C7.83364 21.0192 8.20356 20.6491 8.20356 20.2028V5.02893H26.221C26.6671 5.02893 27.037 4.65884 27.037 4.21255C27.037 3.76626 26.6671 3.39616 26.221 3.39616Z"
                fill="#696ADB"
              />
              <path
                d="M37.6777 3.39616H34.0546C33.6086 3.39616 33.2386 3.76626 33.2386 4.21255C33.2386 4.65884 33.6086 5.02893 34.0546 5.02893H36.8617V20.2028C36.8617 20.6491 37.2316 21.0192 37.6777 21.0192C38.1238 21.0192 38.4937 20.6491 38.4937 20.2028V4.21255C38.4937 3.76626 38.1238 3.39616 37.6777 3.39616Z"
                fill="#696ADB"
              />
              <path
                d="M29.67 4.86565C29.7679 4.90919 29.8767 4.93097 29.9855 4.93097C30.2031 4.93097 30.4098 4.84388 30.5621 4.69149C30.7144 4.5391 30.8015 4.33228 30.8015 4.11458C30.8015 4.00573 30.7797 3.89688 30.7362 3.79891C30.6927 3.70095 30.6383 3.61386 30.5621 3.53767C30.3336 3.2982 29.9637 3.23288 29.67 3.35262C29.572 3.39616 29.485 3.46147 29.4088 3.53767C29.3327 3.61386 29.2674 3.70095 29.2239 3.79891C29.1912 3.89688 29.1695 4.00573 29.1695 4.11458C29.1695 4.33228 29.2456 4.5391 29.4088 4.69149C29.485 4.76769 29.572 4.82211 29.67 4.86565Z"
                fill="#696ADB"
              />
              <path
                d="M17.6366 9.68777C17.3646 9.32856 16.8532 9.26325 16.4942 9.53538L12.1639 12.8771C11.9681 13.0295 11.8484 13.269 11.8484 13.5193C11.8484 13.7697 11.9681 14.0092 12.1639 14.1616L16.3092 17.34C16.4615 17.4489 16.6356 17.5142 16.8097 17.5142C17.06 17.5142 17.2993 17.4053 17.4625 17.1985C17.7345 16.8393 17.6692 16.3277 17.3102 16.0556L14.0135 13.5193L17.4952 10.8307C17.8542 10.5586 17.9195 10.047 17.6475 9.68777H17.6366Z"
                fill="#696ADB"
              />
              <path
                d="M28.4731 9.53538C28.1141 9.26325 27.6027 9.32856 27.3307 9.68777C27.0587 10.047 27.124 10.5586 27.4831 10.8307L30.9647 13.5193L27.668 16.0556C27.309 16.3277 27.2437 16.8393 27.5157 17.1985C27.6789 17.4053 27.9183 17.5142 28.1685 17.5142C28.3426 17.5142 28.5167 17.4598 28.669 17.34L32.8143 14.1616C33.0101 14.0092 33.1298 13.7697 33.1298 13.5193C33.1298 13.269 33.0101 13.0295 32.8143 12.8771L28.484 9.53538H28.4731Z"
                fill="#696ADB"
              />
              <path
                d="M24.1864 9.69865L19.3012 16.2188C19.0292 16.5781 19.1054 17.0897 19.4645 17.3618C19.6168 17.4706 19.78 17.5251 19.9541 17.5251C20.2043 17.5251 20.4437 17.4162 20.6069 17.1985L25.492 10.6783C25.764 10.3191 25.6879 9.8075 25.3288 9.53538C24.9698 9.26325 24.4584 9.33944 24.1864 9.69865Z"
                fill="#696ADB"
              />
            </svg>