 <svg
              class="w-[68px] flex items-center justify-center"
              width="57"
              height="34"
              viewBox="0 0 57 34"
              fill="none"
              xmlns="http://www.w3.org/2000/svg"
            >
              <path
                d="M54.6963 20.9272C54.3124 11.093 46.6663 3.06646 36.8701 1.89367C36.5739 0.806962 35.5756 0 34.3799 0C33.1842 0 32.1859 0.806962 31.8897 1.89367C22.0935 3.07721 14.4475 11.093 14.0635 20.9272C12.7581 21.1424 11.7598 22.2614 11.7598 23.6063C11.7598 25.1019 12.9994 26.3285 14.5352 26.3285H54.2246C55.7494 26.3285 57 25.1127 57 23.6063C57 22.2614 56.0017 21.1532 54.6963 20.9272ZM34.3799 1.61392C34.5445 1.61392 34.698 1.66772 34.8406 1.74304C34.6871 1.74304 34.5335 1.72152 34.3799 1.72152C34.2263 1.72152 34.0728 1.74304 33.9192 1.74304C34.0618 1.66772 34.2044 1.61392 34.3799 1.61392ZM34.3799 3.33544C44.4174 3.33544 52.612 11.1361 53.0398 20.8734H15.72C16.1588 11.1361 24.3424 3.33544 34.3799 3.33544ZM54.2356 24.7038H14.5352C13.9099 24.7038 13.4053 24.2089 13.4053 23.5956C13.4053 22.9823 13.9099 22.4873 14.5352 22.4873H54.2246C54.8499 22.4873 55.3545 22.9823 55.3545 23.5956C55.3545 24.2089 54.8499 24.7038 54.2246 24.7038H54.2356Z"
                fill="#4063FD"
              />
              <path
                d="M24.4192 26.7696C22.3897 26.7696 20.7333 28.3943 20.7333 30.3848C20.7333 32.3753 22.3897 34 24.4192 34C26.4486 34 28.1051 32.3753 28.1051 30.3848C28.1051 28.3943 26.4486 26.7696 24.4192 26.7696ZM24.4192 32.3861C23.3002 32.3861 22.3788 31.493 22.3788 30.3848C22.3788 29.2766 23.2893 28.3835 24.4192 28.3835C25.5491 28.3835 26.4596 29.2766 26.4596 30.3848C26.4596 31.493 25.5491 32.3861 24.4192 32.3861Z"
                fill="#4063FD"
              />
              <path
                d="M44.3516 26.7696C42.3222 26.7696 40.6657 28.3943 40.6657 30.3848C40.6657 32.3753 42.3222 34 44.3516 34C46.3811 34 48.0375 32.3753 48.0375 30.3848C48.0375 28.3943 46.3811 26.7696 44.3516 26.7696ZM44.3516 32.3861C43.2327 32.3861 42.3112 31.493 42.3112 30.3848C42.3112 29.2766 43.2217 28.3835 44.3516 28.3835C45.4815 28.3835 46.392 29.2766 46.392 30.3848C46.392 31.493 45.4815 32.3861 44.3516 32.3861Z"
                fill="#4063FD"
              />
              <path
                d="M3.94919 12.5671H12.6703C13.1201 12.5671 13.4931 12.2013 13.4931 11.7601C13.4931 11.319 13.1201 10.9532 12.6703 10.9532H3.94919C3.49942 10.9532 3.12644 11.319 3.12644 11.7601C3.12644 12.2013 3.49942 12.5671 3.94919 12.5671Z"
                fill="#4063FD"
              />
              <path
                d="M12.3412 15.2785C12.3412 14.8373 11.9682 14.4715 11.5185 14.4715H1.67841C1.22864 14.4715 0.855658 14.8373 0.855658 15.2785C0.855658 15.7196 1.22864 16.0854 1.67841 16.0854H11.5185C11.9682 16.0854 12.3412 15.7196 12.3412 15.2785Z"
                fill="#4063FD"
              />
              <path
                d="M10.6738 18.2158H6.59296C6.14319 18.2158 5.77021 18.5816 5.77021 19.0228C5.77021 19.4639 6.14319 19.8297 6.59296 19.8297H10.6738C11.1236 19.8297 11.4965 19.4639 11.4965 19.0228C11.4965 18.5816 11.1236 18.2158 10.6738 18.2158Z"
                fill="#4063FD"
              />
              <path
                d="M3.90531 18.4525C3.68591 18.2266 3.33487 18.162 3.03868 18.2589C2.95092 18.2266 2.87413 18.2051 2.7754 18.2051H0.822748C0.372979 18.2051 0 18.5709 0 19.012C0 19.4532 0.372979 19.819 0.822748 19.819H2.78637C2.8851 19.819 2.97286 19.7975 3.06062 19.7652C3.14838 19.7975 3.23614 19.819 3.33487 19.819C3.55427 19.819 3.7627 19.7329 3.91628 19.5823C3.99307 19.507 4.05889 19.4209 4.0918 19.3133C4.13568 19.2165 4.15762 19.1089 4.15762 19.012C4.15762 18.9044 4.13568 18.7968 4.0918 18.7C4.05889 18.6032 3.99307 18.5171 3.91628 18.4418L3.90531 18.4525Z"
                fill="#4063FD"
              />
              <path
                d="M18.5831 19.8082C18.5831 19.8082 18.6819 19.819 18.7367 19.819C19.1207 19.819 19.4717 19.55 19.5485 19.1627C19.5704 19.0443 21.9838 7.00443 34.3909 7.00443C34.8406 7.00443 35.2136 6.63861 35.2136 6.19747C35.2136 5.75633 34.8406 5.39051 34.3909 5.39051C20.6345 5.39051 17.9579 18.743 17.9359 18.8722C17.8482 19.3133 18.1443 19.7329 18.5941 19.8082H18.5831Z"
                fill="#4063FD"
              />
            </svg>