  <svg
              class="w-[68px] flex items-center justify-center"
              width="37"
              height="40"
              viewBox="0 0 37 40"
              fill="none"
              xmlns="http://www.w3.org/2000/svg"
            >
              <path
                d="M36.1633 40H31.8122C31.3403 40 30.9489 39.6063 30.9489 39.1314C30.9489 38.6566 31.3403 38.2629 31.8122 38.2629H35.1734L31.6166 12.1135H5.40646L1.84961 38.2629H24.3417C24.8137 38.2629 25.2051 38.6566 25.2051 39.1314C25.2051 39.6063 24.8137 40 24.3417 40H0.859697C0.606459 40 0.376228 39.8958 0.215077 39.6989C0.0539258 39.5136 -0.0266414 39.2588 0.007891 39.0156L3.79494 11.1291C3.85249 10.7006 4.22085 10.3764 4.64675 10.3764H32.3533C32.7907 10.3764 33.1475 10.7006 33.2051 11.1291L36.9921 39.0156C37.0266 39.2588 36.9461 39.5136 36.7849 39.6989C36.6238 39.8842 36.382 40 36.1403 40H36.1633Z"
                fill="#9A33AE"
              />
              <path
                d="M23.6971 7.51592C23.2252 7.51592 22.8338 7.12218 22.8338 6.64736C22.8338 3.94904 20.6468 1.73712 17.9647 1.73712C15.2827 1.73712 13.0842 3.93746 13.0842 6.64736C13.0842 7.12218 12.6928 7.51592 12.2209 7.51592C11.7489 7.51592 11.3575 7.12218 11.3575 6.64736C11.3575 2.98784 14.3158 0 17.9647 0C21.6137 0 24.5604 2.97626 24.5604 6.64736C24.5604 7.12218 24.1691 7.51592 23.6971 7.51592Z"
                fill="#9A33AE"
              />
              <path
                d="M15.2827 25.1187H14.7187C12.9345 25.1187 11.4726 23.6595 11.4726 21.8529V17.0237C11.4726 16.5489 11.864 16.1552 12.3359 16.1552C12.8079 16.1552 13.1992 16.5489 13.1992 17.0237V21.8529C13.1992 22.6983 13.8784 23.3816 14.7187 23.3816H15.2827C16.123 23.3816 16.8021 22.6983 16.8021 21.8529V17.0237C16.8021 16.5489 17.1935 16.1552 17.6654 16.1552C18.1374 16.1552 18.5288 16.5489 18.5288 17.0237V21.8529C18.5288 23.6479 17.0784 25.1187 15.2827 25.1187Z"
                fill="#9A33AE"
              />
              <path
                d="M15.0065 34.8813C14.5345 34.8813 14.1431 34.4875 14.1431 34.0127V17.0237C14.1431 16.5489 14.5345 16.1552 15.0065 16.1552C15.4784 16.1552 15.8698 16.5489 15.8698 17.0237V34.0127C15.8698 34.4875 15.4784 34.8813 15.0065 34.8813Z"
                fill="#9A33AE"
              />
              <path
                d="M21.959 34.8813C21.487 34.8813 21.0956 34.4875 21.0956 34.0127V17.0237C21.0956 16.6531 21.3259 16.3173 21.6827 16.2015C22.028 16.0857 22.4194 16.2015 22.6496 16.491C22.8223 16.7111 26.8741 22.0498 26.8741 27.9097C26.8741 28.1413 26.782 28.3729 26.6093 28.535C26.4367 28.6972 26.1834 28.7898 25.9877 28.7782L22.8223 28.7087V34.0127C22.8223 34.4875 22.4309 34.8813 21.959 34.8813ZM22.8223 26.9716L25.1014 27.0179C24.8942 24.3428 23.7892 21.7834 22.8223 20.0116V26.9716Z"
                fill="#9A33AE"
              />
              <path
                d="M28.0367 40C27.8065 40 27.5878 39.9074 27.4266 39.7452C27.2655 39.5831 27.1734 39.3631 27.1734 39.1314C27.1734 39.0156 27.1964 38.9114 27.231 38.7956C27.277 38.6914 27.3461 38.5987 27.4266 38.5177C27.7489 38.1934 28.3245 38.1934 28.6468 38.5177C28.8079 38.6798 28.9 38.9114 28.9 39.1314C28.9 39.2473 28.877 39.3631 28.8309 39.4673C28.7849 39.5715 28.7273 39.6642 28.6468 39.7452C28.4856 39.9074 28.2554 40 28.0367 40Z"
                fill="#9A33AE"
              />
            </svg>