    <svg
              class="w-[68px] flex items-center justify-center"
              width="42"
              height="47"
              viewBox="0 0 42 47"
              fill="none"
              xmlns="http://www.w3.org/2000/svg"
            >
              <path
                d="M0.93517 10.0472H9.41174C9.66068 10.0472 9.89718 9.94694 10.0714 9.77156C10.2457 9.59617 10.3453 9.35814 10.3453 9.10759V1.87915H27.7216V25.7693C27.7216 26.283 28.1448 26.7089 28.6552 26.7089C29.1655 26.7089 29.5887 26.283 29.5887 25.7693V0.939573C29.5887 0.42594 29.1655 0 28.6552 0H9.38684C9.1379 0 8.91385 0.100221 8.73959 0.26308L0.287913 8.4311C0.0140741 8.69418 -0.0730566 9.10759 0.063863 9.45836C0.200783 9.80914 0.549305 10.0472 0.93517 10.0472ZM8.46575 3.13191V8.16802H3.25036L8.46575 3.13191Z"
                fill="#F50269"
              />
              <path
                d="M15.15 39.5372H1.86884V11.4503C1.86884 10.9366 1.44564 10.5107 0.935299 10.5107C0.424962 10.5107 0.00175592 10.9366 0.00175592 11.4503V40.4768C0.00175592 40.9904 0.424962 41.4164 0.935299 41.4164H15.15C15.6604 41.4164 16.0836 40.9904 16.0836 40.4768C16.0836 39.9632 15.6604 39.5372 15.15 39.5372Z"
                fill="#F50269"
              />
              <path
                d="M5.35407 35.566C4.84373 35.566 4.42053 35.9919 4.42053 36.5055C4.42053 37.0192 4.84373 37.4451 5.35407 37.4451H11.03C11.5403 37.4451 11.9636 37.0192 11.9636 36.5055C11.9636 35.9919 11.5403 35.566 11.03 35.566H5.35407Z"
                fill="#F50269"
              />
              <path
                d="M15.0007 33.3861C15.0007 32.8725 14.5775 32.4466 14.0671 32.4466H5.35407C4.84373 32.4466 4.42053 32.8725 4.42053 33.3861C4.42053 33.8998 4.84373 34.3257 5.35407 34.3257H14.0671C14.5775 34.3257 15.0007 33.8998 15.0007 33.3861Z"
                fill="#F50269"
              />
              <path
                d="M4.7815 29.0641C4.7815 29.5777 5.2047 30.0037 5.71504 30.0037H9.00111C9.51145 30.0037 9.93465 29.5777 9.93465 29.0641V22.2741C9.93465 21.7605 9.51145 21.3346 9.00111 21.3346H5.71504C5.2047 21.3346 4.7815 21.7605 4.7815 22.2741V29.0641ZM6.64858 23.2137H8.06757V28.1245H6.64858V23.2137Z"
                fill="#F50269"
              />
              <path
                d="M17.3781 29.0641V19.28C17.3781 18.7664 16.9549 18.3405 16.4446 18.3405H13.1585C12.6481 18.3405 12.2249 18.7664 12.2249 19.28V29.0641C12.2249 29.5777 12.6481 30.0037 13.1585 30.0037H16.4446C16.9549 30.0037 17.3781 29.5777 17.3781 29.0641ZM15.511 28.1245H14.092V20.2196H15.511V28.1245Z"
                fill="#F50269"
              />
              <path
                d="M23.888 16.3736H20.6019C20.0916 16.3736 19.6684 16.7996 19.6684 17.3132V29.0641C19.6684 29.5777 20.0916 30.0037 20.6019 30.0037H23.888C24.3983 30.0037 24.8215 29.5777 24.8215 29.0641V17.3132C24.8215 16.7996 24.3983 16.3736 23.888 16.3736ZM22.9545 28.1245H21.5355V18.2528H22.9545V28.1245Z"
                fill="#F50269"
              />
              <path
                d="M6.17559 18.5158L10.5695 15.9477C11.0176 15.6846 11.1669 15.1083 10.9055 14.6699C10.6441 14.2189 10.0716 14.0685 9.63592 14.3316L5.24204 16.8998C4.79394 17.1629 4.64458 17.7391 4.90597 18.1776C5.08023 18.4783 5.39141 18.6411 5.71504 18.6411C5.87685 18.6411 6.03867 18.6035 6.18803 18.5158H6.17559Z"
                fill="#F50269"
              />
              <path
                d="M13.1585 14.294C13.283 14.294 13.4074 14.269 13.5195 14.2314C13.6315 14.1813 13.7311 14.1061 13.8182 14.0184C13.9925 13.843 14.092 13.605 14.092 13.3545C14.092 13.1039 13.9925 12.8659 13.8182 12.6905C13.7311 12.6028 13.6315 12.5402 13.5195 12.4901C13.1709 12.3522 12.7602 12.4274 12.4988 12.6905C12.3245 12.8659 12.2249 13.1039 12.2249 13.3545C12.2249 13.605 12.3245 13.843 12.4988 14.0184C12.673 14.1938 12.9095 14.294 13.1585 14.294Z"
                fill="#F50269"
              />
              <path
                d="M24.8091 6.86514C24.8091 6.71481 24.7718 6.57701 24.6971 6.4392C24.6224 6.3014 24.5104 6.20118 24.3859 6.12601C24.3486 6.10096 24.3237 6.08843 24.2863 6.0759C24.1867 6.02579 24.0747 6.00074 23.9627 5.98821C23.9378 5.98821 23.9129 5.96315 23.888 5.96315H18.7473C18.237 5.96315 17.8138 6.38909 17.8138 6.90273C17.8138 7.41636 18.237 7.8423 18.7473 7.8423H20.3654L15.6728 10.5357C15.2247 10.7988 15.0629 11.3626 15.3243 11.8136C15.4986 12.1142 15.8097 12.2896 16.1334 12.2896C16.2952 12.2896 16.4446 12.252 16.5939 12.1643L21.2865 9.47089L20.7015 10.4731C20.4401 10.9241 20.5895 11.5004 21.0251 11.7634C21.1745 11.8511 21.3363 11.9013 21.4981 11.9013C21.8218 11.9013 22.1205 11.7384 22.3072 11.4377L24.6971 7.3913C24.6971 7.3913 24.6971 7.34119 24.722 7.31614C24.7718 7.21592 24.7967 7.10317 24.8091 6.99042C24.8091 6.95284 24.8091 6.91525 24.8091 6.86514Z"
                fill="#F50269"
              />
              <path
                d="M41.0776 29.941C41.0776 25.4186 27.7218 25.4186 27.7218 29.941C27.7218 30.0162 27.7342 30.0788 27.7467 30.154C27.7467 30.1916 27.7218 30.2167 27.7218 30.2542V33.9123C24.0498 32.0707 16.2454 32.885 16.233 36.3427C16.233 36.4178 16.2454 36.4805 16.2578 36.5556C16.2578 36.5932 16.233 36.6183 16.233 36.6559V43.8342C16.233 44.0722 16.3201 44.3102 16.4819 44.4731C16.6686 44.6735 18.4237 46.3898 23.191 46.3898C26.0289 46.3898 27.672 45.6131 28.5557 44.9492C29.4146 45.5254 31.2817 46.3898 34.6673 46.3898C39.2728 46.3898 40.754 44.3228 40.9034 44.0973C41.003 43.9469 41.0527 43.7716 41.0527 43.5836V30.2041C41.0527 30.2041 41.0403 30.1415 41.0403 30.1164C41.0403 30.0538 41.0527 29.9912 41.0527 29.9285L41.0776 29.941ZM18.1125 38.7981C19.3821 39.4495 21.1621 39.7878 22.9171 39.7878C24.6722 39.7878 26.4521 39.4495 27.7218 38.7981V40.0759C27.2985 40.4643 26.0289 41.3662 23.2034 41.3662C20.1912 41.3662 18.6602 40.6021 18.1125 40.2262V38.7981ZM39.2106 36.8187C38.7873 37.2071 37.5177 38.1091 34.6922 38.1091C31.68 38.1091 30.149 37.3449 29.6013 36.969V35.9293C30.6593 36.3928 32.2899 36.8187 34.6922 36.8187C36.7958 36.8187 38.2397 36.3928 39.2106 35.9042V36.8187ZM29.5888 39.0987C30.6469 39.5623 32.2774 39.9882 34.6798 39.9882C36.7833 39.9882 38.2272 39.5623 39.1981 39.0737V40.0759C38.7749 40.4643 37.5053 41.3662 34.6798 41.3662C31.6675 41.3662 30.1365 40.6021 29.5888 40.2262V39.0987ZM39.2106 33.6743C38.7873 34.0626 37.5177 34.9646 34.6922 34.9646C31.68 34.9646 30.149 34.2004 29.6013 33.8246V32.3965C30.8709 33.0479 32.6509 33.3861 34.4059 33.3861C36.161 33.3861 37.9409 33.0479 39.2106 32.3965V33.6743ZM34.3935 28.3751C37.5177 28.3751 39.1981 29.4901 39.1981 29.941C39.1981 30.392 37.5177 31.507 34.3935 31.507C31.2692 31.507 29.5888 30.392 29.5888 29.941C29.5888 29.4901 31.2692 28.3751 34.3935 28.3751ZM22.9171 34.7767C26.0414 34.7767 27.7218 35.8917 27.7218 36.3427C27.7218 36.7937 26.0414 37.9086 22.9171 37.9086C19.7929 37.9086 18.1125 36.7937 18.1125 36.3427C18.1125 35.8917 19.7929 34.7767 22.9171 34.7767ZM18.1125 43.3832V42.3434C19.1705 42.8069 20.8011 43.2329 23.2034 43.2329C25.307 43.2329 26.7509 42.8069 27.7218 42.3183V43.2203C27.2985 43.6087 26.0289 44.5107 23.2034 44.5107C20.1912 44.5107 18.6602 43.7465 18.1125 43.3707V43.3832ZM34.6922 44.5232C31.68 44.5232 30.149 43.759 29.6013 43.3832V42.3434C30.6593 42.8069 32.2899 43.2329 34.6922 43.2329C36.7958 43.2329 38.2397 42.8069 39.2106 42.3183V43.2203C38.7873 43.6087 37.5177 44.5107 34.6922 44.5107V44.5232Z"
                fill="#F50269"
              />
            </svg>