<svg width="37" height="42" viewBox="0 0 37 42" fill="none" xmlns="http://www.w3.org/2000/svg">
<path d="M0.842339 9.09641H8.47747C8.7017 9.09641 8.91472 9.00567 9.07168 8.84688C9.22865 8.68809 9.31834 8.47259 9.31834 8.24575V1.70132H24.9698V23.3308C24.9698 23.7958 25.351 24.1815 25.8107 24.1815C26.2703 24.1815 26.6515 23.7958 26.6515 23.3308V0.850662C26.6515 0.385633 26.2703 0 25.8107 0H8.45504C8.23081 0 8.029 0.0907372 7.87204 0.238185L0.259333 7.63327C0.012677 7.87146 -0.0658045 8.24575 0.0575235 8.56333C0.180852 8.88091 0.494778 9.09641 0.842339 9.09641ZM7.62538 2.83554V7.39509H2.9277L7.62538 2.83554Z" fill="#4063FD"/>
<path d="M13.6462 35.7958H1.68333V10.3667C1.68333 9.9017 1.30213 9.51607 0.842455 9.51607C0.382777 9.51607 0.00158161 9.9017 0.00158161 10.3667V36.6465C0.00158161 37.1115 0.382777 37.4972 0.842455 37.4972H13.6462C14.1058 37.4972 14.487 37.1115 14.487 36.6465C14.487 36.1815 14.1058 35.7958 13.6462 35.7958Z" fill="#4063FD"/>
<path d="M4.82259 32.2004C4.36291 32.2004 3.98171 32.586 3.98171 33.051C3.98171 33.5161 4.36291 33.9017 4.82259 33.9017H9.9351C10.3948 33.9017 10.776 33.5161 10.776 33.051C10.776 32.586 10.3948 32.2004 9.9351 32.2004H4.82259Z" fill="#4063FD"/>
<path d="M13.5116 30.2268C13.5116 29.7618 13.1304 29.3762 12.6707 29.3762H4.82259C4.36291 29.3762 3.98171 29.7618 3.98171 30.2268C3.98171 30.6919 4.36291 31.0775 4.82259 31.0775H12.6707C13.1304 31.0775 13.5116 30.6919 13.5116 30.2268Z" fill="#4063FD"/>
<path d="M4.30685 26.3138C4.30685 26.7788 4.68805 27.1645 5.14773 27.1645H8.1076C8.56728 27.1645 8.94847 26.7788 8.94847 26.3138V20.1664C8.94847 19.7013 8.56728 19.3157 8.1076 19.3157H5.14773C4.68805 19.3157 4.30685 19.7013 4.30685 20.1664V26.3138ZM5.9886 21.017H7.26673V25.4631H5.9886V21.017Z" fill="#4063FD"/>
<path d="M15.653 26.3138V17.4556C15.653 16.9906 15.2718 16.6049 14.8122 16.6049H11.8523C11.3926 16.6049 11.0114 16.9906 11.0114 17.4556V26.3138C11.0114 26.7788 11.3926 27.1645 11.8523 27.1645H14.8122C15.2718 27.1645 15.653 26.7788 15.653 26.3138ZM13.9713 25.4631H12.6932V18.3062H13.9713V25.4631Z" fill="#4063FD"/>
<path d="M21.5167 14.8242H18.5568C18.0972 14.8242 17.716 15.2098 17.716 15.6749V26.3138C17.716 26.7788 18.0972 27.1645 18.5568 27.1645H21.5167C21.9764 27.1645 22.3576 26.7788 22.3576 26.3138V15.6749C22.3576 15.2098 21.9764 14.8242 21.5167 14.8242ZM20.6759 25.4631H19.3977V16.5255H20.6759V25.4631Z" fill="#4063FD"/>
<path d="M5.56256 16.7637L9.52027 14.4386C9.92389 14.2004 10.0584 13.6786 9.82298 13.2817C9.58754 12.8733 9.0718 12.7372 8.67939 12.9754L4.72168 15.3006C4.31806 15.5388 4.18352 16.0605 4.41897 16.4575C4.57593 16.7297 4.85622 16.8771 5.14773 16.8771C5.29348 16.8771 5.43923 16.8431 5.57377 16.7637H5.56256Z" fill="#4063FD"/>
<path d="M11.8523 12.9414C11.9644 12.9414 12.0765 12.9187 12.1774 12.8847C12.2783 12.8393 12.368 12.7713 12.4465 12.6919C12.6035 12.5331 12.6932 12.3176 12.6932 12.0907C12.6932 11.8639 12.6035 11.6484 12.4465 11.4896C12.368 11.4102 12.2783 11.3535 12.1774 11.3081C11.8635 11.1834 11.4935 11.2514 11.2581 11.4896C11.1011 11.6484 11.0114 11.8639 11.0114 12.0907C11.0114 12.3176 11.1011 12.5331 11.2581 12.6919C11.415 12.8507 11.6281 12.9414 11.8523 12.9414Z" fill="#4063FD"/>
<path d="M22.3464 6.2155C22.3464 6.0794 22.3127 5.95463 22.2455 5.82987C22.1782 5.7051 22.0773 5.61437 21.9652 5.54631C21.9316 5.52363 21.9091 5.51229 21.8755 5.50095C21.7858 5.45558 21.6849 5.43289 21.584 5.42155C21.5616 5.42155 21.5391 5.39887 21.5167 5.39887H16.8863C16.4266 5.39887 16.0454 5.7845 16.0454 6.24953C16.0454 6.71456 16.4266 7.10019 16.8863 7.10019H18.3438L14.117 9.53875C13.7134 9.77694 13.5677 10.2873 13.8031 10.6957C13.9601 10.9679 14.2404 11.1267 14.5319 11.1267C14.6776 11.1267 14.8122 11.0926 14.9467 11.0132L19.1735 8.57467L18.6465 9.48204C18.4111 9.89036 18.5456 10.4121 18.938 10.6503C19.0726 10.7297 19.2183 10.775 19.3641 10.775C19.6556 10.775 19.9247 10.6276 20.0928 10.3554L22.2455 6.69187C22.2455 6.69187 22.2455 6.6465 22.2679 6.62382C22.3127 6.53308 22.3352 6.431 22.3464 6.32892C22.3464 6.2949 22.3464 6.26087 22.3464 6.2155Z" fill="#4063FD"/>
<path d="M37 27.1078C37 23.0132 24.9699 23.0132 24.9699 27.1078C24.9699 27.1758 24.9811 27.2325 24.9923 27.3006C24.9923 27.3346 24.9699 27.3573 24.9699 27.3913V30.7032C21.6625 29.0359 14.6328 29.7732 14.6216 32.9036C14.6216 32.9716 14.6328 33.0284 14.644 33.0964C14.644 33.1304 14.6216 33.1531 14.6216 33.1871V39.6862C14.6216 39.9017 14.7 40.1172 14.8458 40.2646C15.014 40.4461 16.5948 42 20.8889 42C23.4451 42 24.9251 41.2968 25.7211 40.6957C26.4947 41.2174 28.1764 42 31.226 42C35.3743 42 36.7085 40.1285 36.843 39.9244C36.9327 39.7883 36.9776 39.6295 36.9776 39.4594V27.3459C36.9776 27.3459 36.9664 27.2892 36.9664 27.2665C36.9664 27.2098 36.9776 27.1531 36.9776 27.0964L37 27.1078ZM16.3145 35.1267C17.4581 35.7164 19.0614 36.0227 20.6422 36.0227C22.2231 36.0227 23.8263 35.7164 24.9699 35.1267V36.2836C24.5887 36.6352 23.4451 37.4518 20.9001 37.4518C18.1869 37.4518 16.8078 36.7599 16.3145 36.4197V35.1267ZM35.3183 33.3346C34.9371 33.6862 33.7935 34.5028 31.2484 34.5028C28.5352 34.5028 27.1562 33.811 26.6629 33.4707V32.5293C27.6159 32.949 29.0846 33.3346 31.2484 33.3346C33.1432 33.3346 34.4437 32.949 35.3183 32.5066V33.3346ZM26.6517 35.3989C27.6046 35.8185 29.0734 36.2042 31.2372 36.2042C33.132 36.2042 34.4325 35.8185 35.307 35.3762V36.2836C34.9258 36.6352 33.7823 37.4518 31.2372 37.4518C28.524 37.4518 27.145 36.7599 26.6517 36.4197V35.3989ZM35.3183 30.4877C34.9371 30.8393 33.7935 31.656 31.2484 31.656C28.5352 31.656 27.1562 30.9641 26.6629 30.6238V29.3308C27.8065 29.9206 29.4097 30.2268 30.9906 30.2268C32.5714 30.2268 34.1747 29.9206 35.3183 29.3308V30.4877ZM30.9793 25.69C33.7935 25.69 35.307 26.6994 35.307 27.1078C35.307 27.5161 33.7935 28.5255 30.9793 28.5255C28.1652 28.5255 26.6517 27.5161 26.6517 27.1078C26.6517 26.6994 28.1652 25.69 30.9793 25.69ZM20.6422 31.4858C23.4563 31.4858 24.9699 32.4953 24.9699 32.9036C24.9699 33.3119 23.4563 34.3214 20.6422 34.3214C17.8281 34.3214 16.3145 33.3119 16.3145 32.9036C16.3145 32.4953 17.8281 31.4858 20.6422 31.4858ZM16.3145 39.2779V38.3365C17.2675 38.7561 18.7362 39.1418 20.9001 39.1418C22.7948 39.1418 24.0954 38.7561 24.9699 38.3138V39.1304C24.5887 39.482 23.4451 40.2987 20.9001 40.2987C18.1869 40.2987 16.8078 39.6068 16.3145 39.2665V39.2779ZM31.2484 40.31C28.5352 40.31 27.1562 39.6181 26.6629 39.2779V38.3365C27.6159 38.7561 29.0846 39.1418 31.2484 39.1418C33.1432 39.1418 34.4437 38.7561 35.3183 38.3138V39.1304C34.9371 39.482 33.7935 40.2987 31.2484 40.2987V40.31Z" fill="#4063FD"/>
</svg>
