   <svg
              class="w-[68px] flex items-center justify-center"
              width="68"
              height="62"
              viewBox="0 0 68 62"
              fill="none"
              xmlns="http://www.w3.org/2000/svg"
            >
              <path
                d="M68 41.4792C68 39.8064 66.8148 38.3962 65.2409 38.0656V26.7354C65.2409 25.578 64.2985 24.6249 63.1424 24.6249H45.1207C44.4406 24.6249 43.848 24.9556 43.4594 25.4516C43.0708 24.9459 42.4782 24.6249 41.7981 24.6249H23.7764C22.6203 24.6249 21.6682 25.5683 21.6682 26.7354V38.0656C20.0943 38.406 18.9091 39.8064 18.9091 41.4792V45.0679C18.9091 45.8362 19.1617 46.5365 19.5794 47.1103C19.2005 47.1395 18.9091 47.4409 18.9091 47.83V53.8598C18.9091 54.2585 19.2394 54.5892 19.6377 54.5892H20.9881L21.8722 61.3484C21.9208 61.7082 22.2317 61.9805 22.5911 61.9805H23.8735C24.2427 61.9805 24.5439 61.7082 24.5925 61.3484L25.4765 54.5892H61.656L62.5401 61.3484C62.5886 61.7082 62.8995 61.9805 63.259 61.9805H64.5414C64.9106 61.9805 65.2117 61.7082 65.2603 61.3484L66.1444 54.5892H67.2325C67.6308 54.5892 67.9611 54.2585 67.9611 53.8598V47.83C67.9611 47.4507 67.66 47.1395 67.2908 47.1103C67.7085 46.5365 67.9611 45.8265 67.9611 45.0679V41.4792H68ZM66.5427 41.4792V45.0679C66.5427 46.1864 65.6295 47.1005 64.5122 47.1005C64.3179 47.1005 64.1236 47.0616 63.9488 47.013C63.9488 47.013 63.939 47.013 63.9293 47.013C63.5116 46.8866 63.1618 46.6337 62.9092 46.3031C62.8995 46.2933 62.8898 46.2739 62.8801 46.2642C62.7732 46.1085 62.6858 45.9432 62.6178 45.7584C62.6081 45.7195 62.5983 45.6904 62.5886 45.6515C62.5303 45.4667 62.4915 45.2722 62.4915 45.0679V41.4792C62.4915 40.3608 63.4047 39.4466 64.522 39.4466C65.6392 39.4466 66.5524 40.3608 66.5524 41.4792H66.5427ZM44.4698 26.7354C44.4698 26.3755 44.7612 26.0838 45.111 26.0838H63.1327C63.4921 26.0838 63.7739 26.3755 63.7739 26.7354V38.0656C63.5699 38.1142 63.3658 38.1726 63.1715 38.2504C63.1133 38.2795 63.055 38.3087 62.9967 38.3379C62.8607 38.406 62.7344 38.4643 62.6081 38.5518C62.5401 38.6005 62.4818 38.6491 62.4138 38.6977C62.3069 38.7755 62.2097 38.8533 62.1126 38.9409C62.0543 38.9992 61.996 39.0576 61.9377 39.1256C61.8503 39.2229 61.7726 39.3104 61.6948 39.4174C61.6463 39.4855 61.5977 39.5536 61.5491 39.6314C61.4811 39.7384 61.4228 39.8551 61.3645 39.9718C61.3257 40.0496 61.2868 40.1176 61.2576 40.1955C61.2091 40.3316 61.1702 40.4678 61.1313 40.6039C61.1119 40.672 61.0925 40.7401 61.0731 40.8082C61.0342 41.0221 61.0051 41.2458 61.0051 41.4695V45.0582C61.0051 45.2819 61.0342 45.4958 61.0731 45.7001C61.0828 45.7584 61.1022 45.8168 61.1119 45.8751C61.1508 46.021 61.1896 46.1669 61.2479 46.3128C61.2674 46.3711 61.2965 46.4295 61.3257 46.4878C61.3937 46.6337 61.4617 46.7699 61.5491 46.8963C61.5782 46.9449 61.5977 46.9936 61.6365 47.0325C61.6463 47.0519 61.656 47.0714 61.6657 47.0811H45.111C44.7515 47.0811 44.4698 46.7893 44.4698 46.4295V26.7062V26.7354ZM23.1255 26.7354C23.1255 26.3755 23.4169 26.0838 23.7764 26.0838H41.7981C42.1576 26.0838 42.449 26.3755 42.449 26.7354V46.4587C42.449 46.8185 42.1576 47.1103 41.7981 47.1103H25.2434C25.2434 47.1103 25.2628 47.0811 25.2725 47.0616C25.3017 47.013 25.3308 46.9741 25.36 46.9255C25.4474 46.7893 25.5154 46.6532 25.5834 46.517C25.6126 46.4587 25.632 46.4003 25.6611 46.342C25.7194 46.1961 25.7583 46.0502 25.7971 45.9043C25.8166 45.846 25.8263 45.7876 25.836 45.7293C25.8749 45.5153 25.904 45.3013 25.904 45.0874V41.4987C25.904 41.275 25.8749 41.0513 25.836 40.8373C25.8263 40.7693 25.7971 40.7012 25.7777 40.6331C25.7388 40.4969 25.7 40.3511 25.6514 40.2246C25.6223 40.1468 25.5834 40.069 25.5445 40.0009C25.4863 39.8842 25.428 39.7675 25.36 39.6605C25.3114 39.5827 25.2628 39.5147 25.2142 39.4466C25.1365 39.3493 25.0588 39.2521 24.9713 39.1548C24.9131 39.0867 24.8548 39.0284 24.7965 38.97C24.6993 38.8825 24.6022 38.8047 24.4953 38.7269C24.4273 38.6783 24.369 38.6296 24.301 38.581C24.1747 38.5032 24.0484 38.4351 23.9124 38.3671C23.8541 38.3379 23.7958 38.299 23.7375 38.2795C23.5432 38.2017 23.3489 38.1336 23.1352 38.0947V26.7645L23.1255 26.7354ZM20.3663 41.4792C20.3663 40.3608 21.2796 39.4466 22.3968 39.4466C23.5141 39.4466 24.4273 40.3608 24.4273 41.4792V45.0679C24.4273 45.2722 24.3884 45.4569 24.3301 45.6417C24.3204 45.6806 24.3107 45.7195 24.2913 45.7487C24.2233 45.9238 24.1358 46.0988 24.029 46.2447C24.0193 46.2544 24.0095 46.2739 23.9998 46.2836C23.7472 46.6143 23.3975 46.8671 22.9797 46.9936C22.9797 46.9936 22.97 46.9936 22.9603 46.9936C22.7757 47.0422 22.5911 47.0811 22.3968 47.0811C21.2796 47.0811 20.3663 46.1669 20.3663 45.0485V41.4598V41.4792ZM23.242 60.5412L22.4648 54.5989H24.029L23.2518 60.5412H23.242ZM63.9293 60.5412L63.1521 54.5989H64.7163L63.939 60.5412H63.9293ZM66.5427 53.1401H20.3663V48.5691H66.5427V53.1401Z"
                fill="#F50269"
              />
              <path
                d="M32.7824 37.8711C33.4819 37.8711 34.0454 37.2973 34.0454 36.6067C34.0454 35.9162 33.4722 35.3424 32.7824 35.3424C32.0926 35.3424 31.5194 35.9162 31.5194 36.6067C31.5194 37.2973 32.0926 37.8711 32.7824 37.8711Z"
                fill="#F50269"
              />
              <path
                d="M54.1267 37.8711C54.8262 37.8711 55.3897 37.2973 55.3897 36.6067C55.3897 35.9162 54.8165 35.3424 54.1267 35.3424C53.4369 35.3424 52.8637 35.9162 52.8637 36.6067C52.8637 37.2973 53.4369 37.8711 54.1267 37.8711Z"
                fill="#F50269"
              />
              <path
                d="M15.0521 0H3.64647C3.27729 0 2.95669 0.282039 2.91783 0.651608L0.00326556 27.9024C-0.0161649 28.1067 0.0518416 28.3109 0.187854 28.4665C0.323867 28.6221 0.518172 28.7096 0.731906 28.7096H8.62066V53.8987C5.35635 54.2585 2.81096 57.04 2.81096 60.405C2.81096 60.7065 2.84011 61.0177 2.88868 61.3776C2.94697 61.7374 3.24814 62 3.60761 62H15.091C15.4504 62 15.7613 61.7374 15.8099 61.3776C15.8682 61.0177 15.8876 60.7065 15.8876 60.405C15.8876 57.04 13.3422 54.2682 10.0779 53.8987V28.7096H13.7891V35.8287C12.9439 36.422 12.5553 38.0267 12.5553 39.6411C12.5553 41.664 13.1674 43.7064 14.5178 43.7064C15.8682 43.7064 16.4803 41.664 16.4803 39.6411C16.4803 38.0267 16.0819 36.422 15.2464 35.8287V28.7096H17.9667C18.1707 28.7096 18.3747 28.6221 18.5107 28.4665C18.6467 28.3109 18.7148 28.1067 18.6953 27.9024L15.7808 0.651608C15.7419 0.282039 15.431 0 15.0521 0ZM14.4303 60.405C14.4303 60.405 14.4303 60.4925 14.4303 60.5412H4.26824C4.26824 60.5412 4.26824 60.4536 4.26824 60.405C4.26824 57.6041 6.55132 55.3186 9.3493 55.3186C12.1473 55.3186 14.4303 57.6041 14.4303 60.405ZM14.5178 42.16C14.3041 41.8391 14.0126 40.954 14.0126 39.6411C14.0126 38.3282 14.3041 37.4431 14.5178 37.1222C14.7315 37.4431 15.023 38.3282 15.023 39.6411C15.023 40.954 14.7315 41.8391 14.5178 42.16ZM1.53827 27.2508L4.29739 1.45882H14.3915L17.1506 27.2508H1.53827Z"
                fill="#F50269"
              />
            </svg>