      <svg
              class="w-[68px] flex items-center justify-center"
              width="45"
              height="40"
              viewBox="0 0 45 40"
              fill="none"
              xmlns="http://www.w3.org/2000/svg"
            >
              <path
                d="M37.7999 40H8.08074C7.64774 40 7.28866 39.6413 7.28866 39.2088V20.2947C7.28866 19.8622 7.64774 19.5036 8.08074 19.5036C8.51375 19.5036 8.87283 19.8622 8.87283 20.2947V38.4177H37.0078V20.2947C37.0078 19.8622 37.3669 19.5036 37.7999 19.5036C38.2329 19.5036 38.592 19.8622 38.592 20.2947V39.2088C38.592 39.6413 38.2329 40 37.7999 40Z"
                fill="#4063FD"
              />
              <path
                d="M44.2106 22.8264C44.0099 22.8264 43.8092 22.7526 43.6508 22.5944L33.5649 12.5202C33.2586 12.2143 33.2586 11.7079 33.5649 11.402C33.8712 11.0961 34.3781 11.0961 34.6844 11.402L44.7703 21.4762C45.0766 21.7821 45.0766 22.2884 44.7703 22.5944C44.6119 22.7526 44.4112 22.8264 44.2106 22.8264Z"
                fill="#4063FD"
              />
              <path
                d="M31.8117 10.4526C31.611 10.4526 31.3998 10.3682 31.252 10.2206C31.178 10.1467 31.1252 10.0623 31.083 9.96738C31.0407 9.87244 31.0302 9.76695 31.0302 9.66146C31.0302 9.45048 31.1041 9.25005 31.252 9.10237C31.4738 8.88084 31.8222 8.81755 32.118 8.93359C32.213 8.97578 32.3081 9.02853 32.382 9.10237C32.5193 9.25005 32.6038 9.45048 32.6038 9.66146C32.6038 9.76695 32.6038 9.87244 32.551 9.96738C32.4982 10.0623 32.4559 10.1467 32.382 10.2206C32.3081 10.2944 32.213 10.3577 32.118 10.3893C32.0229 10.4315 31.9173 10.4526 31.8117 10.4526Z"
                fill="#4063FD"
              />
              <path
                d="M0.793542 22.8264C0.582318 22.8264 0.381679 22.7421 0.223261 22.5838C-0.0830127 22.2674 -0.0724631 21.7716 0.244372 21.4656L22.3912 0.220225C22.6974 -0.0751433 23.1938 -0.0751433 23.5001 0.230774L30.1431 6.86601C30.4493 7.17193 30.4493 7.67827 30.1431 7.98419C29.8368 8.29011 29.3299 8.29011 29.0236 7.98419L22.9298 1.89749L1.34274 22.6049C1.18433 22.7526 0.994204 22.8264 0.793542 22.8264Z"
                fill="#4063FD"
              />
              <path
                d="M28.2632 40H17.6175C17.1845 40 16.8254 39.6413 16.8254 39.2088V20.2947C16.8254 19.8622 17.1845 19.5036 17.6175 19.5036H28.2632C28.6962 19.5036 29.0553 19.8622 29.0553 20.2947V39.2088C29.0553 39.6413 28.6962 40 28.2632 40ZM18.4096 38.4177H27.4711V21.0859H18.4096V38.4177Z"
                fill="#4063FD"
              />
              <path
                d="M25.38 31.4132C24.9469 31.4132 24.5879 31.0546 24.5879 30.6221V28.4068C24.5879 27.9743 24.9469 27.6156 25.38 27.6156C25.813 27.6156 26.172 27.9743 26.172 28.4068V30.6221C26.172 31.0546 25.813 31.4132 25.38 31.4132Z"
                fill="#4063FD"
              />
            </svg>