<svg width="52" height="56" viewBox="0 0 52 56" fill="none" xmlns="http://www.w3.org/2000/svg">
<path d="M51.7651 19.3433C51.9101 18.8384 51.6588 18.3101 51.1908 18.1059L42.602 14.359L43.6377 11.9848C45.3695 8.01522 43.5325 3.35605 39.5227 1.60676C35.5129 -0.14253 30.8537 1.66769 29.1164 5.64981L28.0807 8.02401L20.7189 4.81238C20.2382 4.60269 19.68 4.77784 19.4211 5.23312L0.468506 37.3222C0.315474 37.5694 0.283455 37.8844 0.37286 38.1627C0.462266 38.4409 0.678577 38.6699 0.94421 38.7858L39.7266 55.7048C39.9923 55.8206 40.3072 55.8235 40.572 55.6997C40.8368 55.576 41.0459 55.3383 41.123 55.0579L51.7525 19.3378L51.7651 19.3433ZM31.0265 6.48307C32.3034 3.55614 35.7534 2.20529 38.7133 3.49657C41.6732 4.78784 43.0353 8.22307 41.753 11.1626L40.7172 13.5368L30.0034 8.86279L31.0391 6.48859L31.0265 6.48307ZM2.85407 37.376L20.757 7.07191L49.5339 19.626L39.4988 53.3625L2.85407 37.376Z" fill="#CBE8FF"/>
</svg>
