<svg width="39" height="34" viewBox="0 0 39 34" fill="none" xmlns="http://www.w3.org/2000/svg">
<path d="M19.48 34C19.2847 34 19.1008 33.9338 18.9399 33.8123C13.4014 29.4851 9.78187 26.5487 6.55299 23.4357C-0.490796 16.7903 -0.00818969 10.6747 0.0147917 10.4097C0.0147917 10.3766 0.00328977 10.2442 0.00328977 10.1117C0.00328977 4.62532 4.86383 0 10.6207 0C14.1598 0 17.5035 1.79935 19.4914 4.69156C21.4908 1.79935 24.8231 0 28.3623 0C34.1191 0 38.9796 4.63636 38.9796 10.1117C38.9796 10.2442 38.9796 10.3656 38.9796 10.4981C39.129 11.9883 38.6004 17.6182 32.43 23.4357C32.0852 23.7558 31.5452 23.7558 31.2119 23.4357C30.8787 23.1156 30.8787 22.5857 31.2119 22.2656C37.6467 16.2052 37.2561 10.6195 37.2561 10.5643C37.2561 10.5312 37.2561 10.4318 37.2561 10.3987V10.1227C37.2561 5.54156 33.1884 1.66689 28.3623 1.66689C25.03 1.66689 21.7781 3.69805 20.2729 6.73376C19.9856 7.30779 18.9974 7.30779 18.7216 6.73376C17.2163 3.69805 13.9645 1.66689 10.6207 1.66689C5.79458 1.66689 1.72689 5.54156 1.72689 10.1227C1.72689 10.2331 1.72689 10.3435 1.72689 10.4539C1.72689 10.487 1.72689 10.5312 1.72689 10.5643C1.72689 10.6968 1.37069 16.2383 7.771 22.2545C10.8505 25.224 14.2976 28.0279 19.4914 32.0903C20.2383 31.4831 21.4564 30.4896 22.5939 29.5623C23.7775 28.5909 24.8691 27.6968 25.2368 27.4097C25.6045 27.1227 26.1445 27.1669 26.4548 27.5201C26.7535 27.8734 26.7076 28.3922 26.3399 28.6903C25.9722 28.9883 24.8921 29.8714 23.7201 30.8318C22.2263 32.0571 20.5946 33.3929 20.0545 33.8123C19.8937 33.9338 19.7098 34 19.5144 34H19.48Z" fill="#4063FD"/>
<path d="M28.8104 26.2396C28.6955 26.2396 28.5806 26.2175 28.4772 26.1734C28.3737 26.1292 28.2703 26.074 28.2014 25.9968C28.121 25.9195 28.052 25.8312 28.0061 25.7318C27.9716 25.6325 27.9486 25.5221 27.9486 25.4117C27.9486 25.3013 27.9716 25.1909 28.0061 25.0916C28.052 24.9922 28.121 24.9039 28.2014 24.8266C28.2703 24.7493 28.3737 24.6942 28.4772 24.65C28.684 24.5617 28.9253 24.5617 29.1321 24.65C29.2356 24.6831 29.339 24.7493 29.4194 24.8266C29.4883 24.9039 29.5573 24.9922 29.6033 25.0916C29.6493 25.1909 29.6722 25.3013 29.6722 25.4117C29.6722 25.5221 29.6493 25.6325 29.6033 25.7318C29.5573 25.8312 29.4883 25.9195 29.4194 25.9968C29.339 26.074 29.2356 26.1292 29.1321 26.1734C29.0287 26.2175 28.9138 26.2396 28.8104 26.2396Z" fill="#4063FD"/>
<path d="M5.59928 12.4519C5.22009 12.4519 4.87533 12.2201 4.77191 11.8558C4.72595 11.7013 3.69181 8.06948 7.09305 5.71818C10.3909 3.44415 13.3095 4.77987 14.3896 5.80649C14.7228 6.12662 14.7343 6.65649 14.3896 6.97662C14.0564 7.29675 13.5163 7.30779 13.1716 6.97662C12.9533 6.77792 10.9654 5.07792 8.09274 7.06493C5.65671 8.74285 6.41514 11.3812 6.41514 11.4032C6.54154 11.8448 6.27724 12.2974 5.82911 12.4299C5.74867 12.4519 5.66821 12.463 5.58778 12.463L5.59928 12.4519Z" fill="#4063FD"/>
</svg>
