<svg width="46" height="43" viewBox="0 0 46 43" fill="none" xmlns="http://www.w3.org/2000/svg">
<path d="M18.1016 42.4447C17.8801 42.4032 17.6733 42.2831 17.5309 42.1073C12.2229 35.8136 8.77122 31.5618 5.79135 27.1683C-0.734034 17.8009 1.18963 10.6425 1.25916 10.3439C1.26653 10.3047 1.28298 10.1452 1.31245 9.98814C2.53082 3.49674 9.07505 -0.965353 15.6041 0.260079C19.618 1.01344 22.9969 3.85603 24.6209 7.71055C27.532 4.70723 31.7117 3.2833 35.7256 4.03666C42.2546 5.2621 46.7355 11.7935 45.5171 18.2849C45.4876 18.4419 45.4606 18.5859 45.4311 18.7429C45.2689 20.5416 43.4167 27.1037 35.124 32.6873C34.4572 33.077 20.0306 41.6552 18.7689 42.3397C18.5595 42.4494 18.3232 42.4863 18.1147 42.4472L18.1016 42.4447ZM3.17958 10.8941C3.1501 11.0511 1.51301 17.5452 7.43066 26.0534C10.2755 30.2319 13.5587 34.303 18.5217 40.2068C21.747 38.3328 33.9255 31.0939 34.0625 31.0112C42.6625 25.2279 43.4623 18.5225 43.4746 18.457C43.482 18.4178 43.5041 18.3 43.5115 18.2607L43.5729 17.9335C44.5923 12.5022 40.8411 7.04263 35.3677 6.01532C31.5884 5.30599 27.4483 7.02187 25.0656 10.3005C24.6121 10.9199 23.5044 10.712 23.3063 9.9703C22.2746 6.05082 19.0385 2.95051 15.2462 2.23874C9.77522 1.19834 4.28666 4.92373 3.26726 10.355C3.24269 10.4859 3.21813 10.6168 3.19357 10.7477C3.1862 10.7869 3.17637 10.8393 3.169 10.8785L3.17958 10.8941Z" fill="#CBE8FF"/>
</svg>
