<svg width="41" height="36" viewBox="0 0 41 36" fill="none" xmlns="http://www.w3.org/2000/svg">
<path d="M34.4399 36H7.36246C6.96794 36 6.64078 35.6772 6.64078 35.288V18.2652C6.64078 17.876 6.96794 17.5532 7.36246 17.5532C7.75697 17.5532 8.08414 17.876 8.08414 18.2652V34.5759H33.7182V18.2652C33.7182 17.876 34.0454 17.5532 34.4399 17.5532C34.8344 17.5532 35.1616 17.876 35.1616 18.2652V35.288C35.1616 35.6772 34.8344 36 34.4399 36Z" fill="#4063FD"/>
<path d="M40.2807 20.5438C40.0979 20.5438 39.9151 20.4773 39.7707 20.3349L30.5814 11.2682C30.3023 10.9929 30.3023 10.5371 30.5814 10.2618C30.8604 9.98649 31.3223 9.98649 31.6013 10.2618L40.7907 19.3286C41.0698 19.6039 41.0698 20.0596 40.7907 20.3349C40.6464 20.4773 40.4636 20.5438 40.2807 20.5438Z" fill="#4063FD"/>
<path d="M28.984 9.40736C28.8012 9.40736 28.6087 9.33141 28.474 9.1985C28.4067 9.13204 28.3585 9.05609 28.3201 8.97064C28.2816 8.88519 28.2719 8.79025 28.2719 8.69531C28.2719 8.50543 28.3393 8.32505 28.474 8.19213C28.6761 7.99276 28.9936 7.9358 29.263 8.04023C29.3496 8.07821 29.4362 8.12568 29.5036 8.19213C29.6287 8.32505 29.7057 8.50543 29.7057 8.69531C29.7057 8.79025 29.7057 8.88519 29.6576 8.97064C29.6094 9.05609 29.5709 9.13204 29.5036 9.1985C29.4362 9.26495 29.3496 9.32192 29.263 9.3504C29.1764 9.38838 29.0802 9.40736 28.984 9.40736Z" fill="#4063FD"/>
<path d="M0.723005 20.5438C0.530557 20.5438 0.347752 20.4678 0.203416 20.3254C-0.0756338 20.0406 -0.0660219 19.5944 0.22265 19.3191L20.4008 0.198202C20.6799 -0.067629 21.1321 -0.067629 21.4112 0.207696L27.4637 6.17941C27.7427 6.45473 27.7427 6.91044 27.4637 7.18577C27.1846 7.4611 26.7228 7.4611 26.4437 7.18577L20.8916 1.70775L1.22339 20.3444C1.07905 20.4773 0.90583 20.5438 0.723005 20.5438Z" fill="#4063FD"/>
<path d="M25.7509 36H16.0515C15.657 36 15.3298 35.6772 15.3298 35.288V18.2652C15.3298 17.876 15.657 17.5532 16.0515 17.5532H25.7509C26.1454 17.5532 26.4726 17.876 26.4726 18.2652V35.288C26.4726 35.6772 26.1454 36 25.7509 36ZM16.7732 34.5759H25.0292V18.9773H16.7732V34.5759Z" fill="#4063FD"/>
<path d="M23.124 28.2719C22.7294 28.2719 22.4023 27.9491 22.4023 27.5599V25.5661C22.4023 25.1769 22.7294 24.8541 23.124 24.8541C23.5185 24.8541 23.8456 25.1769 23.8456 25.5661V27.5599C23.8456 27.9491 23.5185 28.2719 23.124 28.2719Z" fill="#4063FD"/>
</svg>
