<svg width="40" height="39" viewBox="0 0 40 39" fill="none" xmlns="http://www.w3.org/2000/svg">
<path d="M29.0333 23.738C29.0333 23.738 29.0593 23.6694 29.0679 23.6351C29.4139 22.6399 29.6128 21.5847 29.6128 20.478C29.6128 19.4914 29.4658 18.5477 29.189 17.6555L32.1814 16.3601C32.6484 16.9606 33.3662 17.3467 34.1878 17.3467C35.5889 17.3467 36.7391 16.2143 36.7391 14.8159C36.7391 13.4175 35.5975 12.2851 34.1878 12.2851C32.7781 12.2851 31.6365 13.4175 31.6365 14.8159C31.6365 14.936 31.6538 15.0561 31.6711 15.1676L28.7134 16.4459C27.1653 13.1001 23.7751 10.7752 19.8314 10.7752C19.2952 10.7752 18.7676 10.8267 18.2487 10.9125C18.2314 10.9125 18.2141 10.9125 18.2054 10.9125C14.9709 11.4529 12.2812 13.5634 10.9494 16.4373L8.00887 15.1676C8.02617 15.0475 8.04347 14.936 8.04347 14.8159C8.04347 13.4261 6.90187 12.2851 5.49216 12.2851C4.08246 12.2851 2.94086 13.4175 2.94086 14.8159C2.94086 16.2143 4.08246 17.3467 5.49216 17.3467C6.31377 17.3467 7.03159 16.952 7.49861 16.3601L10.4737 17.6469C10.1969 18.5392 10.0499 19.4914 10.0499 20.478C10.0499 21.5933 10.2488 22.6656 10.6034 23.6694C10.6034 23.6865 10.6121 23.7037 10.6207 23.7209C11.9093 27.3069 15.2563 29.9149 19.2433 30.1465C19.226 30.198 19.2087 30.2495 19.2087 30.3095V34.0414C19.0962 34.0671 18.9925 34.0928 18.8887 34.1271C18.2573 34.3759 17.7557 34.8478 17.4876 35.4655C17.2195 36.0832 17.2022 36.7695 17.453 37.3957C17.7038 38.022 18.1795 38.5196 18.8022 38.7855C19.1308 38.9314 19.4768 39 19.8227 39C20.1341 39 20.454 38.9399 20.7567 38.8198C21.3881 38.5711 21.8897 38.0992 22.1578 37.4815C22.4259 36.8638 22.4432 36.1775 22.1924 35.5513C21.9416 34.925 21.4659 34.4274 20.8432 34.1615C20.7308 34.11 20.6184 34.0843 20.4973 34.0499V30.3009C20.4973 30.2409 20.48 30.1894 20.4713 30.1293C24.4237 29.872 27.7361 27.2725 29.0161 23.7209L29.0333 23.738ZM34.1878 13.5805C34.8797 13.5805 35.4419 14.1381 35.4419 14.8245C35.4419 15.5108 34.8797 16.0684 34.1878 16.0684C33.496 16.0684 32.9338 15.5108 32.9338 14.8245C32.9338 14.1381 33.496 13.5805 34.1878 13.5805ZM5.49216 16.0598C4.80028 16.0598 4.23813 15.5022 4.23813 14.8159C4.23813 14.1296 4.80028 13.5719 5.49216 13.5719C6.18404 13.5719 6.74619 14.1296 6.74619 14.8159C6.74619 15.5022 6.18404 16.0598 5.49216 16.0598ZM20.48 28.8511V24.0898H22.8497C22.227 26.4061 21.2065 28.2077 20.8346 28.8168C20.7135 28.8339 20.6011 28.8425 20.48 28.8511ZM18.733 28.8082C18.3525 28.1905 17.3492 26.3975 16.7266 24.0898H19.1741V28.8511C19.027 28.8425 18.8714 28.8253 18.7243 28.8082H18.733ZM16.4412 22.8029C16.3028 22.0565 16.2163 21.2758 16.2163 20.4694C16.2163 19.8088 16.2768 19.1654 16.372 18.5392H23.2043C23.2994 19.1654 23.3599 19.8088 23.3599 20.4694C23.3599 21.2673 23.2735 22.048 23.1351 22.8029H16.4325H16.4412ZM11.3472 20.478C11.3472 19.8174 11.4337 19.174 11.5807 18.5477H15.0574C14.9709 19.174 14.919 19.8174 14.919 20.478C14.919 21.2844 14.9969 22.0565 15.1179 22.8115H11.6845C11.4683 22.0737 11.3472 21.293 11.3472 20.478ZM19.1827 12.0963V17.2609H16.6228C17.2282 14.7644 18.3352 12.7912 18.733 12.1392C18.88 12.1221 19.027 12.1049 19.1741 12.0963H19.1827ZM20.8346 12.1221C21.2238 12.7655 22.3481 14.7473 22.9535 17.2609H20.48V12.0963C20.6011 12.1049 20.7222 12.1135 20.8346 12.1307V12.1221ZM24.5188 18.5477H28.0734C28.2204 19.1654 28.3069 19.8088 28.3069 20.478C28.3069 21.2844 28.1858 22.0651 27.9696 22.8115H24.4583C24.5794 22.0651 24.6572 21.2844 24.6572 20.478C24.6572 19.8174 24.6053 19.174 24.5188 18.5477ZM27.6669 17.2609H24.2853C23.8443 15.2791 23.1005 13.5977 22.5297 12.5081C24.8475 13.2888 26.7242 15.0304 27.6582 17.2609H27.6669ZM17.0292 12.5425C16.4671 13.632 15.732 15.2963 15.2995 17.2609H12.0045C12.9212 15.0647 14.7633 13.3403 17.0379 12.5425H17.0292ZM12.1861 24.0898H15.386C15.8271 25.8742 16.5017 27.3841 17.0292 28.405C14.9017 27.6586 13.1547 26.0972 12.1861 24.0898ZM20.9989 36.0317C21.12 36.3405 21.1113 36.6751 20.9816 36.9839C20.7049 37.6102 19.9697 37.9019 19.3297 37.6274C19.027 37.4987 18.7849 37.2499 18.6638 36.941C18.5427 36.6322 18.5514 36.2976 18.6811 35.9888C18.8887 35.5255 19.347 35.2424 19.8314 35.2424C19.9957 35.2424 20.1686 35.2767 20.333 35.3454C20.6357 35.474 20.8778 35.7228 20.9989 36.0317ZM22.5383 28.4393C23.0659 27.427 23.7491 25.8999 24.1988 24.0898H27.4766C26.4907 26.123 24.7178 27.7101 22.5383 28.4393Z" fill="#4063FD"/>
<path d="M20.2897 20.1949C20.1081 20.0147 19.8141 19.9633 19.5805 20.0576C19.5027 20.0919 19.4335 20.1348 19.373 20.1949C19.2519 20.315 19.1827 20.478 19.1827 20.6496C19.1827 20.8212 19.2519 20.9842 19.373 21.1043C19.4335 21.1643 19.5027 21.2158 19.5805 21.2415C19.6584 21.2758 19.7449 21.293 19.8314 21.293C20.0043 21.293 20.1686 21.2244 20.2897 21.1043C20.4108 20.9842 20.48 20.8212 20.48 20.6496C20.48 20.478 20.4108 20.315 20.2897 20.1949Z" fill="#4063FD"/>
<path d="M11.7883 4.52112C12.091 4.70986 12.4888 4.60691 12.6791 4.30664C12.7569 4.18654 14.6077 1.28685 19.84 1.28685C24.5188 1.28685 26.4474 4.18654 26.5253 4.31522C26.6464 4.51254 26.8626 4.61549 27.0788 4.61549C27.1999 4.61549 27.3123 4.58117 27.4247 4.51254C27.7274 4.3238 27.8226 3.92917 27.6323 3.6289C27.5372 3.48306 25.2713 0 19.8487 0C13.8553 0 11.6672 3.49164 11.5807 3.63748C11.3991 3.93775 11.4942 4.33238 11.7969 4.51254L11.7883 4.52112Z" fill="#4063FD"/>
<path d="M24.3632 6.50286C24.4842 6.70018 24.7005 6.80312 24.9167 6.80312C25.0377 6.80312 25.1502 6.76881 25.2626 6.70018C25.5653 6.51144 25.6604 6.11681 25.4615 5.80796C25.3923 5.70502 23.8356 3.32006 19.84 3.32006C16.2076 3.32006 14.3742 5.61065 14.2963 5.70502C14.0801 5.98812 14.1234 6.38275 14.4088 6.60581C14.6942 6.82886 15.092 6.77739 15.3168 6.50286C15.3774 6.42565 16.8649 4.60691 19.84 4.60691C23.0918 4.60691 24.3199 6.41707 24.3718 6.49428L24.3632 6.50286Z" fill="#4063FD"/>
<path d="M19.8314 6.41707C17.3665 6.41707 16.4239 8.10713 16.3806 8.18434C16.2163 8.49318 16.3287 8.87924 16.6401 9.05081C16.9514 9.22239 17.3406 9.10229 17.5222 8.80202C17.5482 8.75913 18.1622 7.71249 19.8314 7.71249C21.5005 7.71249 22.0194 8.73339 22.0367 8.76771C22.1491 8.99934 22.3827 9.1366 22.6248 9.1366C22.7199 9.1366 22.8151 9.11945 22.9016 9.07655C23.2216 8.92213 23.3599 8.54466 23.2043 8.21865C23.1697 8.14144 22.3135 6.42565 19.8227 6.42565L19.8314 6.41707Z" fill="#4063FD"/>
<path d="M38.8407 19.7231C38.6332 19.4314 38.2267 19.3713 37.9326 19.5772C37.6472 19.7831 37.578 20.1863 37.7856 20.478C37.8029 20.5037 39.844 23.3777 37.7856 28.1905C35.9608 32.4628 32.5187 33.0891 32.3717 33.1148C32.0171 33.1749 31.7749 33.5009 31.8355 33.8526C31.8873 34.17 32.1641 34.3931 32.4754 34.3931C32.51 34.3931 32.5446 34.3931 32.5792 34.3931C32.7522 34.3674 36.8689 33.6467 38.9791 28.6967C41.3142 23.2147 38.9272 19.8689 38.8234 19.7231H38.8407Z" fill="#4063FD"/>
<path d="M35.9002 27.4012C37.3186 24.0898 35.9002 21.5161 35.8484 21.4131C35.6754 21.1043 35.2776 20.9927 34.9662 21.1643C34.6549 21.3359 34.5424 21.7305 34.7154 22.0394C34.724 22.0565 35.8743 24.1584 34.7154 26.9037C33.4527 29.872 31.282 30.2923 31.1955 30.3009C30.8409 30.361 30.5987 30.687 30.6593 31.0387C30.7112 31.3561 30.9879 31.5792 31.2992 31.5792C31.3338 31.5792 31.3684 31.5792 31.403 31.5792C31.5241 31.562 34.3435 31.0645 35.9002 27.4098V27.4012Z" fill="#4063FD"/>
<path d="M33.0376 26.1916C33.9976 23.9353 32.7954 22.4168 32.7435 22.3568C32.5187 22.0823 32.1209 22.0394 31.8441 22.2624C31.5674 22.4769 31.5155 22.8801 31.7317 23.1632C31.7663 23.2061 32.4927 24.1755 31.8441 25.694C31.2041 27.1953 30.0452 27.2983 30.002 27.2983C29.6474 27.3154 29.3706 27.6157 29.3793 27.9674C29.3966 28.3106 29.682 28.5851 30.0279 28.5851C30.0366 28.5851 30.0452 28.5851 30.0539 28.5851C30.1317 28.5851 32.0603 28.4736 33.0376 26.2002V26.1916Z" fill="#4063FD"/>
<path d="M7.63699 33.1234C7.48996 33.0977 4.03922 32.4714 2.22303 28.1991C0.19064 23.4377 2.1452 20.6153 2.23168 20.4866C2.43925 20.2035 2.37871 19.8003 2.08466 19.5944C1.79926 19.3885 1.39278 19.4485 1.17657 19.7402C1.07279 19.8775 -1.3142 23.2319 1.02089 28.7138C3.13113 33.6639 7.24781 34.3759 7.42078 34.4103C7.45537 34.4103 7.48996 34.4103 7.52456 34.4103C7.8359 34.4103 8.11265 34.1872 8.16455 33.8698C8.22509 33.518 7.98293 33.192 7.62834 33.132L7.63699 33.1234Z" fill="#4063FD"/>
<path d="M8.83048 30.3009C8.73535 30.2838 6.57322 29.8634 5.31054 26.8951C4.15165 24.1841 5.25865 22.1166 5.31054 22.0308C5.48351 21.722 5.37108 21.3273 5.05974 21.1557C4.74839 20.9842 4.35056 21.0957 4.17759 21.4045C4.11705 21.5075 2.70735 24.0812 4.1257 27.3927C5.68243 31.0473 8.51048 31.5449 8.62292 31.562C8.65751 31.562 8.6921 31.562 8.7267 31.562C9.03804 31.562 9.30615 31.339 9.36669 31.0301C9.42723 30.6784 9.19372 30.3524 8.83913 30.2838L8.83048 30.3009Z" fill="#4063FD"/>
<path d="M10.024 27.2983C9.97208 27.2983 8.81318 27.1953 8.17319 25.694C7.52456 24.1841 8.25103 23.2147 8.28562 23.1632C8.50184 22.8887 8.45859 22.4855 8.18184 22.2624C7.90509 22.0394 7.49861 22.0823 7.27375 22.3568C7.22186 22.4168 6.01107 23.9353 6.9797 26.1916C7.94833 28.465 9.87695 28.5766 9.96343 28.5766C9.97208 28.5766 9.98073 28.5766 9.98938 28.5766C10.3267 28.5766 10.6121 28.3106 10.6294 27.9674C10.6467 27.6157 10.3786 27.3154 10.024 27.2897V27.2983Z" fill="#4063FD"/>
</svg>
