<svg xmlns="http://www.w3.org/2000/svg" width="49" height="52" viewBox="0 0 49 52" fill="none">
<path d="M13.8234 40.189C11.983 41.1238 11.247 43.3588 12.1767 45.1893C13.1064 47.0197 15.3579 47.7373 17.1858 46.8089C19.0136 45.8805 19.7622 43.6392 18.8325 41.8087C17.9027 39.9782 15.6638 39.2543 13.8234 40.189ZM16.2305 44.9283C15.4364 45.3316 14.4687 45.0187 14.0676 44.2289C13.6664 43.439 13.9845 42.473 14.7786 42.0697C15.5728 41.6663 16.5404 41.9792 16.9416 42.7691C17.3428 43.5589 17.0247 44.5249 16.2305 44.9283Z" fill="#CBE8FF"/>
<path d="M44.3372 14.4703C43.7641 13.3419 42.9779 12.6057 41.9972 12.2048C42.1101 12.0212 42.2168 11.8566 42.3044 11.6544C42.7421 10.5804 42.6297 9.36001 41.961 8.04356C41.2924 6.72711 40.424 5.98527 39.2983 5.64224C37.5149 5.09703 35.8889 5.95444 35.7376 6.03127L24.3169 11.832C23.6861 8.96649 21.86 2.68618 17.4951 1.05478C13.9209 -0.300008 11.9279 0.396825 10.8828 1.21154C10.1022 1.82885 9.62589 2.73318 9.71726 3.44383C9.76301 3.81489 9.98615 4.31667 11.3177 7.09442C12.2289 9.01321 13.4903 11.6216 13.6639 12.3693C14.3191 15.0017 13.0013 21.6486 12.1943 25.0552C11.176 24.7049 10.0203 24.7399 8.98661 25.2649L2.99893 28.3062C0.994634 29.3242 0.183748 31.7864 1.19627 33.7799L8.99076 49.1259C10.0033 51.1194 12.4699 51.917 14.4742 50.8989L20.4618 47.8577C22.4661 46.8397 23.277 44.3775 22.2645 42.384L24.0353 42.9356C25.5468 43.4139 27.1568 43.2743 28.5687 42.5572L45.7376 33.8369C45.7376 33.8369 45.933 33.7534 46.1347 33.6509C46.6893 33.3692 47.6531 32.7378 48.1157 31.588C48.5534 30.514 48.441 29.2936 47.7723 27.9772C47.2883 27.0243 46.6475 26.3246 45.8752 25.8967C46.2023 25.5729 46.5101 25.1799 46.7101 24.6683C47.1478 23.5943 47.0354 22.3738 46.3667 21.0574C45.8318 20.0042 45.1089 19.2989 44.2292 18.8783C44.4114 18.6438 44.5745 18.3717 44.6995 18.0558C45.1371 16.9818 45.0247 15.7614 44.3561 14.445L44.3372 14.4703ZM20.38 43.3569C20.8704 44.3223 20.4836 45.4966 19.513 45.9896L13.5253 49.0308C12.5547 49.5238 11.3783 49.1435 10.888 48.1781L3.09348 32.832C2.60314 31.8666 2.98987 30.6923 3.96051 30.1993L9.94819 27.1581C10.9188 26.6651 12.0952 27.0455 12.5855 28.0109L20.38 43.3569ZM44.7426 23.8854C44.4614 24.6118 43.61 24.9338 43.4902 24.9789L40.9439 26.2722C40.427 26.5347 40.215 27.1787 40.4761 27.6927C40.7371 28.2067 41.3822 28.4153 41.8991 28.1528L42.542 27.8263C42.542 27.8263 43.5504 27.3141 44.4864 27.5958C45.0492 27.7673 45.5121 28.2104 45.8815 28.9375C46.2508 29.6647 46.3545 30.306 46.1608 30.7987C45.8796 31.5251 45.0282 31.8471 44.9084 31.8922L27.6135 40.6766C26.7059 41.1376 25.6578 41.2283 24.6775 40.9218L20.9208 39.7386L14.47 27.0379C14.349 26.7997 14.2092 26.5869 14.0441 26.3868C14.473 24.7022 16.6585 15.6114 15.7208 11.8608C15.4961 10.9813 14.5466 8.9558 13.2214 6.19058C12.6735 5.04939 12.0109 3.65105 11.845 3.26211C11.9077 3.13567 12.0709 2.89504 12.4491 2.70296L12.4743 2.69016C13.0163 2.41485 14.2845 2.1019 16.739 3.03177C20.4017 4.40469 22.1286 11.114 22.4861 13.5663C22.5318 13.9059 22.7414 14.1937 23.0452 14.3548C23.3491 14.5159 23.709 14.5066 24.0116 14.3529L36.7181 7.89911C36.7181 7.89911 37.7391 7.3805 38.6751 7.66218C39.2379 7.83369 39.6882 8.28317 40.0512 8.99782C40.4142 9.71246 40.5242 10.3663 40.3305 10.859C40.0493 11.5854 39.1979 11.9074 39.0781 11.9525L36.5318 13.2458C36.015 13.5083 35.8029 14.1523 36.064 14.6663C36.3251 15.1804 36.9702 15.389 37.487 15.1265L39.0879 14.3133C39.0879 14.3133 40.109 13.7947 41.0449 14.0764C41.6078 14.2479 42.0581 14.6974 42.421 15.412C42.784 16.1267 42.8941 16.7805 42.7003 17.2732C42.4191 17.9996 41.5678 18.3216 41.448 18.3667L38.9016 19.66C38.3848 19.9225 38.1727 20.5665 38.4338 21.0805C38.6949 21.5946 39.34 21.8032 39.8568 21.5407L41.0922 20.9132C41.0922 20.9132 42.1133 20.3946 43.0492 20.6763C43.612 20.8478 44.0623 21.2973 44.4253 22.0119C44.7883 22.7266 44.8984 23.3804 44.7046 23.8731L44.7426 23.8854Z" fill="#CBE8FF"/>
</svg>