<svg xmlns="http://www.w3.org/2000/svg" width="37" height="50" viewBox="0 0 37 50" fill="none">
<path d="M18.5 0.75C17.8096 0.75 17.25 1.30964 17.25 2C17.25 2.69036 17.8096 3.25 18.5 3.25V0.75ZM28.1493 21.9048V23.1548C28.8397 23.1548 29.3993 22.5952 29.3993 21.9048H28.1493ZM8.86528 21.9048H7.61528C7.61528 22.5952 8.17493 23.1548 8.86528 23.1548V21.9048ZM18.5146 3.25C19.2049 3.25 19.7646 2.69036 19.7646 2C19.7646 1.30964 19.2049 0.75 18.5146 0.75V3.25ZM3.8803 23.1113H33.1197V20.6113H3.8803V23.1113ZM33.1197 23.1113C33.4742 23.1113 33.75 23.3953 33.75 23.7315H36.25C36.25 22.0019 34.8421 20.6113 33.1197 20.6113V23.1113ZM33.75 23.7315V46.1299H36.25V23.7315H33.75ZM33.75 46.1299C33.75 46.466 33.4742 46.75 33.1197 46.75V49.25C34.8421 49.25 36.25 47.8594 36.25 46.1299H33.75ZM33.1197 46.75H3.8803V49.25H33.1197V46.75ZM3.8803 46.75C3.52581 46.75 3.25 46.466 3.25 46.1299H0.75C0.75 47.8594 2.15787 49.25 3.8803 49.25V46.75ZM3.25 46.1299V23.7315H0.75V46.1299H3.25ZM3.25 23.7315C3.25 23.3954 3.52581 23.1113 3.8803 23.1113V20.6113C2.15787 20.6113 0.75 22.0019 0.75 23.7315H3.25ZM18.5 30.6354H18.5146V28.1354H18.5V30.6354ZM18.5146 30.6354C18.8127 30.6354 19.0428 30.874 19.0428 31.1541H21.5428C21.5428 29.4806 20.1807 28.1354 18.5146 28.1354V30.6354ZM19.0428 31.1541V38.4173H21.5428V31.1541H19.0428ZM19.0428 38.4173C19.0428 38.6974 18.8127 38.9359 18.5146 38.9359V41.4359C20.1807 41.4359 21.5428 40.0908 21.5428 38.4173H19.0428ZM18.5146 38.9359H18.5V41.4359H18.5146V38.9359ZM18.5 38.9359C18.2019 38.9359 17.9717 38.6974 17.9717 38.4173H15.4717C15.4717 40.0908 16.8339 41.4359 18.5 41.4359V38.9359ZM17.9717 38.4173V31.1541H15.4717V38.4173H17.9717ZM17.9717 31.1541C17.9717 30.874 18.2019 30.6354 18.5 30.6354V28.1354C16.8339 28.1354 15.4717 29.4806 15.4717 31.1541H17.9717ZM18.5 3.25C23.1375 3.25 26.8993 6.98916 26.8993 11.5972H29.3993C29.3993 5.59326 24.503 0.75 18.5 0.75V3.25ZM26.8993 11.5972V21.9048H29.3993V11.5972H26.8993ZM28.1493 20.6548H8.86528V23.1548H28.1493V20.6548ZM10.1153 21.9048V11.5972H7.61528V21.9048H10.1153ZM10.1153 11.5972C10.1153 7.0012 13.865 3.25 18.5146 3.25V0.75C12.4946 0.75 7.61528 5.61021 7.61528 11.5972H10.1153ZM18.5146 0.75H18.5V3.25H18.5146V0.75Z" fill="white"/>
</svg>