 <svg
            xmlns="http://www.w3.org/2000/svg"
            width="25"
            height="14"
            viewBox="0 0 25 14"
            fill="none"
          >
            <path
              d="M0.5 1C0.5 0.447715 0.947715 0 1.5 0H23.5C24.0523 0 24.5 0.447715 24.5 1C24.5 1.55228 24.0523 2 23.5 2H1.5C0.947716 2 0.5 1.55228 0.5 1Z"
              fill="#243237"
            />
            <path
              d="M0.5 7C0.5 6.44772 0.947715 6 1.5 6H23.5C24.0523 6 24.5 6.44772 24.5 7C24.5 7.55228 24.0523 8 23.5 8H1.5C0.947716 8 0.5 7.55228 0.5 7Z"
              fill="#243237"
            />
            <path
              d="M0.5 13C0.5 12.4477 0.947715 12 1.5 12H23.5C24.0523 12 24.5 12.4477 24.5 13C24.5 13.5523 24.0523 14 23.5 14H1.5C0.947716 14 0.5 13.5523 0.5 13Z"
              fill="#243237"
            />
          </svg>