<svg width="64" height="59" viewBox="0 0 64 59" fill="none" xmlns="http://www.w3.org/2000/svg">
<path d="M46.3526 21.7022C45.1702 18.7756 41.8962 17.3303 39.0464 18.4657L34.9358 8.29103C34.5049 7.22432 33.499 6.53307 32.3818 6.52309C31.2646 6.51311 30.2687 7.1859 29.8604 8.24169L28.0229 12.9928C26.6427 16.5411 20.7801 23.0774 13.3371 26.0843L6.30619 28.9248C1.8404 30.729 -0.287505 35.9474 1.56889 40.5425C3.42528 45.1375 8.58087 47.4133 13.0467 45.6092L13.9106 45.2601L20.6851 56.8243C21.437 58.1113 22.9512 58.6449 24.2936 58.1026C25.7689 57.5066 26.4756 55.7735 25.8624 54.2555L22.3153 45.4757L23.897 44.8367C25.133 44.3373 25.7233 42.8899 25.2094 41.6181L25.0492 41.2215C31.9562 39.7196 37.2108 41.3986 41.192 43.1786L44.6033 44.6957C45.2994 45.003 46.0424 45.0051 46.7069 44.7366C47.0259 44.6077 47.3306 44.4051 47.5865 44.1585C48.3833 43.3753 48.6134 42.1847 48.1825 41.118L43.3316 29.1108C46.1703 27.948 47.5216 24.6341 46.3393 21.7075L46.3526 21.7022ZM3.57584 39.7317C2.17802 36.2717 3.7723 32.3347 7.14823 30.9708L13.1824 28.533L18.2598 41.101L12.2257 43.5388C8.86305 44.8973 4.97366 43.1916 3.57031 39.718L3.57584 39.7317ZM23.8765 55.0419C24.0367 55.4384 23.8581 55.8765 23.4726 56.0322C23.1271 56.1718 22.7297 56.0301 22.5517 55.7043L15.9441 44.4386L19.0941 43.166L23.8898 55.0365L23.8765 55.0419ZM23.2291 42.4181C23.2843 42.5549 23.2277 42.7209 23.0815 42.78L21.4999 43.419L21.0855 42.3933C21.7157 42.1546 22.3437 41.9486 22.9639 41.7617L23.2291 42.4181ZM46.2021 41.9181C46.3347 42.2463 46.164 42.4743 46.0743 42.5583C45.9845 42.6423 45.7596 42.8127 45.4397 42.6715L42.0285 41.1544C36.9316 38.8708 29.8836 36.7708 20.2435 40.3473L15.1439 27.7247C22.997 24.202 28.6272 17.4733 30.0307 13.8678L31.8682 9.11677C32.0002 8.793 32.2803 8.75936 32.4032 8.75743C32.5261 8.7555 32.8073 8.80097 32.9399 9.12919L46.1999 41.9508L46.2021 41.9181ZM42.5161 27.054L39.8696 20.5034C41.6108 19.8 43.6296 20.7024 44.3534 22.4939C45.0771 24.2854 44.2595 26.3179 42.5106 27.0404L42.5161 27.054Z" fill="#CBE8FF"/>
<path d="M61.3026 14.4692L48.942 19.463C48.397 19.6831 48.133 20.3307 48.3595 20.8914C48.586 21.4521 49.2258 21.7345 49.7707 21.5143L62.1314 16.5206C62.6763 16.3004 62.9403 15.6529 62.7138 15.0922C62.4873 14.5315 61.8476 14.2491 61.3026 14.4692Z" fill="#CBE8FF"/>
<path d="M49.8335 27.2953C49.2879 27.0544 48.6499 27.3121 48.4247 27.8644C48.1995 28.4167 48.4647 29.0732 49.0103 29.3141L61.523 34.8376C61.8052 34.9622 62.0964 34.9559 62.349 34.8539C62.6015 34.7519 62.8154 34.5541 62.9318 34.2684C63.1571 33.7161 62.8919 33.0597 62.3462 32.8188L49.8335 27.2953Z" fill="#CBE8FF"/>
<path d="M44.1677 15.2991C44.4202 15.1971 44.6341 14.9993 44.7506 14.7136L49.915 2.04854C50.1402 1.49623 49.875 0.839798 49.3293 0.598922C48.7837 0.358045 48.1457 0.615786 47.9205 1.1681L42.7561 13.8332C42.5308 14.3855 42.796 15.0419 43.3417 15.2828C43.624 15.4074 43.9152 15.4011 44.1677 15.2991Z" fill="#CBE8FF"/>
</svg>
