<svg width="39" height="32" viewBox="0 0 39 32" fill="none" xmlns="http://www.w3.org/2000/svg">
<path d="M38.9434 28.5351C38.9434 28.5351 38.9434 28.4893 38.9434 28.4709L36.0297 20.7711V0.687482C36.0297 0.311659 35.7091 0 35.3225 0H3.62089C3.23428 0 2.91368 0.311659 2.91368 0.687482V20.7711L0.0377113 28.4709C0.0377113 28.4709 0.0377113 28.5168 0.0377113 28.5351C0.0188525 28.5901 0 28.6451 0 28.7001V30.1025C0 31.1475 0.876927 32 1.95188 32H37.0481C38.1231 32 39 31.1475 39 30.1025V28.7001C39 28.6359 38.9811 28.5809 38.9623 28.5259L38.9434 28.5351ZM4.31867 1.37496H34.6059V20.2028H4.31867V1.37496ZM34.8133 21.5778L37.2461 28.0218H1.68786L4.09236 21.5778H34.8133ZM37.5667 30.1117C37.5667 30.3959 37.3216 30.6342 37.0293 30.6342H1.93303C1.64072 30.6342 1.39555 30.3959 1.39555 30.1117V29.3967H37.5667V30.1117Z" fill="#4063FD"/>
<path d="M24.2524 25.2718H14.625C14.2384 25.2718 13.9178 25.5835 13.9178 25.9593C13.9178 26.3351 14.2384 26.6468 14.625 26.6468H24.2524C24.639 26.6468 24.9596 26.3351 24.9596 25.9593C24.9596 25.5835 24.639 25.2718 24.2524 25.2718Z" fill="#4063FD"/>
<path d="M28.6088 25.2718H26.8926C26.506 25.2718 26.1854 25.5835 26.1854 25.9593C26.1854 26.3351 26.506 26.6468 26.8926 26.6468H28.6088C28.9954 26.6468 29.316 26.3351 29.316 25.9593C29.316 25.5835 28.9954 25.2718 28.6088 25.2718Z" fill="#4063FD"/>
<path d="M32.654 25.2718H30.9378C30.5512 25.2718 30.2306 25.5835 30.2306 25.9593C30.2306 26.3351 30.5512 26.6468 30.9378 26.6468H32.654C33.0406 26.6468 33.3612 26.3351 33.3612 25.9593C33.3612 25.5835 33.0406 25.2718 32.654 25.2718Z" fill="#4063FD"/>
<path d="M32.654 22.7419H30.9378C30.5512 22.7419 30.2306 23.0536 30.2306 23.4294C30.2306 23.8052 30.5512 24.1169 30.9378 24.1169H32.654C33.0406 24.1169 33.3612 23.8052 33.3612 23.4294C33.3612 23.0536 33.0406 22.7419 32.654 22.7419Z" fill="#4063FD"/>
<path d="M8.11871 25.2718H6.40255C6.01595 25.2718 5.69535 25.5835 5.69535 25.9593C5.69535 26.3351 6.01595 26.6468 6.40255 26.6468H8.11871C8.50531 26.6468 8.82591 26.3351 8.82591 25.9593C8.82591 25.5835 8.50531 25.2718 8.11871 25.2718Z" fill="#4063FD"/>
<path d="M12.1639 25.2718H10.4478C10.0612 25.2718 9.74057 25.5835 9.74057 25.9593C9.74057 26.3351 10.0612 26.6468 10.4478 26.6468H12.1639C12.5505 26.6468 12.8711 26.3351 12.8711 25.9593C12.8711 25.5835 12.5505 25.2718 12.1639 25.2718Z" fill="#4063FD"/>
<path d="M8.11871 22.7419H6.40255C6.01595 22.7419 5.69535 23.0536 5.69535 23.4294C5.69535 23.8052 6.01595 24.1169 6.40255 24.1169H8.11871C8.50531 24.1169 8.82591 23.8052 8.82591 23.4294C8.82591 23.0536 8.50531 22.7419 8.11871 22.7419Z" fill="#4063FD"/>
<path d="M12.1639 22.7419H10.4478C10.0612 22.7419 9.74057 23.0536 9.74057 23.4294C9.74057 23.8052 10.0612 24.1169 10.4478 24.1169H12.1639C12.5505 24.1169 12.8711 23.8052 12.8711 23.4294C12.8711 23.0536 12.5505 22.7419 12.1639 22.7419Z" fill="#4063FD"/>
<path d="M14.7193 24.1169H16.4354C16.822 24.1169 17.1426 23.8052 17.1426 23.4294C17.1426 23.0536 16.822 22.7419 16.4354 22.7419H14.7193C14.3327 22.7419 14.0121 23.0536 14.0121 23.4294C14.0121 23.8052 14.3327 24.1169 14.7193 24.1169Z" fill="#4063FD"/>
<path d="M18.7739 24.1169H20.4901C20.8767 24.1169 21.1973 23.8052 21.1973 23.4294C21.1973 23.0536 20.8767 22.7419 20.4901 22.7419H18.7739C18.3873 22.7419 18.0667 23.0536 18.0667 23.4294C18.0667 23.8052 18.3873 24.1169 18.7739 24.1169Z" fill="#4063FD"/>
<path d="M24.4221 22.7419H22.706C22.3194 22.7419 21.9988 23.0536 21.9988 23.4294C21.9988 23.8052 22.3194 24.1169 22.706 24.1169H24.4221C24.8087 24.1169 25.1293 23.8052 25.1293 23.4294C25.1293 23.0536 24.8087 22.7419 24.4221 22.7419Z" fill="#4063FD"/>
<path d="M26.7606 24.1169H28.4768C28.8634 24.1169 29.184 23.8052 29.184 23.4294C29.184 23.0536 28.8634 22.7419 28.4768 22.7419H26.7606C26.374 22.7419 26.0534 23.0536 26.0534 23.4294C26.0534 23.8052 26.374 24.1169 26.7606 24.1169Z" fill="#4063FD"/>
<path d="M22.7248 2.85993H6.40255C6.01595 2.85993 5.69535 3.17158 5.69535 3.54741V17.0129C5.69535 17.3887 6.01595 17.7004 6.40255 17.7004C6.78916 17.7004 7.10976 17.3887 7.10976 17.0129V4.23489H22.7248C23.1114 4.23489 23.432 3.92323 23.432 3.54741C23.432 3.17158 23.1114 2.85993 22.7248 2.85993Z" fill="#4063FD"/>
<path d="M32.654 2.85993H29.514C29.1274 2.85993 28.8068 3.17158 28.8068 3.54741C28.8068 3.92323 29.1274 4.23489 29.514 4.23489H31.9468V17.0129C31.9468 17.3887 32.2674 17.7004 32.654 17.7004C33.0406 17.7004 33.3612 17.3887 33.3612 17.0129V3.54741C33.3612 3.17158 33.0406 2.85993 32.654 2.85993Z" fill="#4063FD"/>
<path d="M25.714 4.09739C25.7988 4.13406 25.8931 4.15239 25.9874 4.15239C26.176 4.15239 26.3552 4.07906 26.4872 3.95073C26.6192 3.8224 26.6946 3.64824 26.6946 3.46491C26.6946 3.37325 26.6758 3.28158 26.638 3.19908C26.6003 3.11659 26.5532 3.04325 26.4872 2.97909C26.2891 2.77743 25.9686 2.72243 25.714 2.82326C25.6291 2.85993 25.5537 2.91492 25.4877 2.97909C25.4217 3.04325 25.3651 3.11659 25.3274 3.19908C25.2991 3.28158 25.2802 3.37325 25.2802 3.46491C25.2802 3.64824 25.3462 3.8224 25.4877 3.95073C25.5537 4.01489 25.6291 4.06073 25.714 4.09739Z" fill="#4063FD"/>
<path d="M15.285 8.15812C15.0493 7.85563 14.6061 7.80063 14.295 8.02979L10.5421 10.8439C10.3723 10.9722 10.2686 11.1739 10.2686 11.3847C10.2686 11.5955 10.3723 11.7972 10.5421 11.9255L14.1347 14.6021C14.2667 14.6938 14.4175 14.7488 14.5684 14.7488C14.7853 14.7488 14.9927 14.6571 15.1342 14.483C15.3699 14.1805 15.3133 13.7496 15.0022 13.5205L12.1451 11.3847L15.1625 9.12059C15.4736 8.89143 15.5302 8.46061 15.2945 8.15812H15.285Z" fill="#4063FD"/>
<path d="M24.6767 8.02979C24.3656 7.80063 23.9224 7.85563 23.6866 8.15812C23.4509 8.46061 23.5075 8.89143 23.8186 9.12059L26.8361 11.3847L23.9789 13.5205C23.6678 13.7496 23.6112 14.1805 23.8469 14.483C23.9884 14.6571 24.1958 14.7488 24.4127 14.7488C24.5636 14.7488 24.7144 14.7029 24.8464 14.6021L28.439 11.9255C28.6088 11.7972 28.7125 11.5955 28.7125 11.3847C28.7125 11.1739 28.6088 10.9722 28.439 10.8439L24.6862 8.02979H24.6767Z" fill="#4063FD"/>
<path d="M20.9615 8.16729L16.7277 13.658C16.492 13.9605 16.558 14.3913 16.8692 14.6205C17.0012 14.7121 17.1426 14.7579 17.2935 14.7579C17.5104 14.7579 17.7178 14.6663 17.8593 14.483L22.0931 8.99227C22.3288 8.68977 22.2628 8.25895 21.9516 8.02979C21.6405 7.80063 21.1973 7.86479 20.9615 8.16729Z" fill="#4063FD"/>
</svg>
