<svg xmlns="http://www.w3.org/2000/svg" width="39" height="39" viewBox="0 0 39 39" fill="none">
<path d="M9.35162 18.4852C14.1482 18.3063 17.9055 14.2478 17.7262 9.43931C17.5469 4.63083 13.4845 0.877766 8.70163 1.05614C3.91879 1.23451 0.147732 5.29351 0.327059 10.102C0.506385 14.9105 4.55555 18.6778 9.35214 18.4989L9.35162 18.4852ZM8.7787 3.12282C12.4346 2.98648 15.5285 5.86506 15.6651 9.52997C15.8018 13.1949 12.9309 16.2959 9.27506 16.4323C5.61921 16.5686 2.52531 13.69 2.38863 10.0251C2.25195 6.36019 5.12285 3.25916 8.7787 3.12282Z" fill="#CBE8FF"/>
<path d="M29.0384 20.8553C24.2418 21.0342 20.4845 25.0927 20.6638 29.9012C20.8432 34.7096 24.8923 38.477 29.6889 38.2981C34.4855 38.1192 38.2428 34.0607 38.0635 29.2523C37.8842 24.4438 33.835 20.6764 29.0384 20.8553ZM29.6113 36.2176C25.9555 36.354 22.8616 33.4754 22.7249 29.8105C22.5882 26.1456 25.4591 23.0446 29.115 22.9082C32.7708 22.7719 35.8647 25.6504 36.0014 29.3154C36.1381 32.9803 33.2672 36.0813 29.6113 36.2176Z" fill="#CBE8FF"/>
<path d="M36.6816 0.316194C36.2681 -0.0685004 35.6079 -0.0576756 35.2247 0.370525L1.60518 36.2549C1.22152 36.6693 1.23244 37.3312 1.65965 37.7154C1.87351 37.9144 2.13824 38.0011 2.39938 37.9913C2.66051 37.9816 2.91804 37.8754 3.11649 37.661L36.736 1.77665C37.1197 1.36223 37.1088 0.700376 36.6816 0.316194Z" fill="#CBE8FF"/>
</svg>