   <svg
              class="w-[68px] flex items-center justify-center"
              width="48"
              height="45"
              viewBox="0 0 48 45"
              fill="none"
              xmlns="http://www.w3.org/2000/svg"
            >
              <path
                d="M31.4702 31.25H13.7675C13.3181 31.25 12.9454 30.8804 12.9454 30.4348C12.9454 29.9891 13.3181 29.6196 13.7675 29.6196H31.4702C31.9196 29.6196 32.2923 29.9891 32.2923 30.4348C32.2923 30.8804 31.9196 31.25 31.4702 31.25Z"
                fill="#F47D41"
              />
              <path
                d="M6.99335 31.25H1.33726C0.887842 31.25 0.515154 30.8804 0.515154 30.4348C0.515154 29.9891 0.887842 29.6196 1.33726 29.6196H6.99335C7.44276 29.6196 7.81545 29.9891 7.81545 30.4348C7.81545 30.8804 7.44276 31.25 6.99335 31.25Z"
                fill="#F47D41"
              />
              <path
                d="M10.4133 31.25C10.3037 31.25 10.2051 31.2283 10.1064 31.1848C9.9968 31.1413 9.90911 31.087 9.83238 31C9.75565 30.9348 9.70084 30.837 9.657 30.7391C9.61315 30.6413 9.59123 30.5326 9.59123 30.4239C9.59123 30.3261 9.61315 30.2174 9.657 30.1196C9.70084 30.0217 9.75565 29.9239 9.83238 29.8478C9.90911 29.7717 9.9968 29.7174 10.1064 29.6739C10.4024 29.5544 10.7751 29.6304 10.9943 29.8478C11.071 29.9239 11.1368 30.0217 11.1806 30.1196C11.2135 30.2174 11.2354 30.3261 11.2354 30.4239C11.2354 30.5326 11.2135 30.6413 11.1806 30.7391C11.1368 30.837 11.071 30.9348 10.9943 31C10.8408 31.1522 10.6326 31.25 10.4133 31.25Z"
                fill="#F47D41"
              />
              <path
                d="M22.2626 18.3696H10.5119C10.0625 18.3696 9.68984 18 9.68984 17.5544V10.2283C9.68984 9.78261 10.0625 9.41305 10.5119 9.41305H22.2626C22.712 9.41305 23.0847 9.78261 23.0847 10.2283V17.5544C23.0847 18 22.712 18.3696 22.2626 18.3696ZM11.3231 16.7391H21.4295V11.0435H11.3231V16.7391Z"
                fill="#F47D41"
              />
              <path
                d="M24.3782 45H8.38547C8.23201 45 8.07856 44.9565 7.94702 44.8804C3.2665 41.9674 0.471332 36.9783 0.471332 31.5217C0.471332 25.0326 4.58185 19.1196 10.7093 16.7935C10.797 16.7609 10.9066 16.7391 11.0053 16.7391H21.7584C21.857 16.7391 21.9557 16.7609 22.0543 16.7935C28.1708 19.1087 32.2923 25.0326 32.2923 31.5217C32.2923 36.9783 29.4972 41.9674 24.8166 44.8804C24.6851 44.9565 24.5316 45 24.3782 45ZM8.62662 43.3696H24.137C28.2146 40.7391 30.6481 36.3261 30.6481 31.5109C30.6481 25.75 27.0198 20.4783 21.6049 18.3587H11.1587C5.74377 20.4783 2.11554 25.7391 2.11554 31.5109C2.11554 36.3261 4.53802 40.7391 8.62662 43.3696Z"
                fill="#F47D41"
              />
              <path
                d="M16.3763 16.3152C15.9269 16.3152 15.5542 15.9457 15.5542 15.5V12.2283C15.5542 11.7826 15.9269 11.413 16.3763 11.413C16.8258 11.413 17.1984 11.7826 17.1984 12.2283V15.5C17.1984 15.9457 16.8258 16.3152 16.3763 16.3152Z"
                fill="#F47D41"
              />
              <path
                d="M13.1866 16.3152C12.7372 16.3152 12.3645 15.9457 12.3645 15.5V12.2283C12.3645 11.7826 12.7372 11.413 13.1866 11.413C13.636 11.413 14.0087 11.7826 14.0087 12.2283V15.5C14.0087 15.9457 13.636 16.3152 13.1866 16.3152Z"
                fill="#F47D41"
              />
              <path
                d="M19.3359 16.3152C18.8865 16.3152 18.5138 15.9457 18.5138 15.5V12.2283C18.5138 11.7826 18.8865 11.413 19.3359 11.413C19.7854 11.413 20.158 11.7826 20.158 12.2283V15.5C20.158 15.9457 19.7854 16.3152 19.3359 16.3152Z"
                fill="#F47D41"
              />
              <path
                d="M19.9278 11.0543H12.8249C12.3754 11.0543 12.0028 10.6848 12.0028 10.2391V3.69565C12.0028 3.24999 12.3754 2.88043 12.8249 2.88043H19.9278C20.3772 2.88043 20.7499 3.24999 20.7499 3.69565V10.2391C20.7499 10.6848 20.3772 11.0543 19.9278 11.0543ZM13.647 9.42391H19.1057V4.51086H13.647V9.42391Z"
                fill="#F47D41"
              />
              <path
                d="M36.4357 13.5435C29.9575 13.5435 24.8714 10.5652 24.8714 6.77174C24.8714 2.97826 29.9465 0 36.4357 0C42.9249 0 48 2.97826 48 6.77174C48 10.5652 42.9249 13.5435 36.4357 13.5435ZM36.4357 1.63043C31.0646 1.63043 26.5156 3.98913 26.5156 6.77174C26.5156 9.55435 31.0536 11.913 36.4357 11.913C41.8177 11.913 46.3558 9.55435 46.3558 6.77174C46.3558 3.98913 41.8177 1.63043 36.4357 1.63043Z"
                fill="#F47D41"
              />
              <path
                d="M30.1438 12.413C30.0123 12.413 29.8917 12.3804 29.7712 12.3261C29.3656 12.1196 29.2121 11.6304 29.4204 11.2283C29.4313 11.2065 30.6481 8.84782 30.6481 6.44565C30.6481 4.04347 29.9465 2.5326 29.9465 2.52173C29.7492 2.11956 29.9246 1.63043 30.3411 1.43478C30.7577 1.23912 31.24 1.41304 31.4373 1.82608C31.4702 1.90217 32.3032 3.66304 32.3032 6.45652C32.3032 9.24999 30.955 11.8804 30.8892 11.9891C30.7467 12.2717 30.4508 12.4239 30.1548 12.4239L30.1438 12.413Z"
                fill="#F47D41"
              />
              <path
                d="M41.3245 7.70652H37.8498C37.4003 7.70652 37.0277 7.33695 37.0277 6.8913C37.0277 6.44565 37.4003 6.07608 37.8498 6.07608H41.3245C41.774 6.07608 42.1466 6.44565 42.1466 6.8913C42.1466 7.33695 41.774 7.70652 41.3245 7.70652Z"
                fill="#F47D41"
              />
              <path
                d="M38.332 11.0544C38.1018 11.0544 37.9593 11.0435 37.9374 11.0435C37.488 11 37.1591 10.587 37.203 10.1413C37.2468 9.69566 37.6524 9.36957 38.1018 9.41305C38.1347 9.41305 39.8228 9.55435 41.4231 8.43479C41.7958 8.17392 42.311 8.26087 42.5741 8.61957C42.8371 8.97826 42.7495 9.48913 42.3877 9.76087C40.7654 10.913 39.0884 11.0544 38.343 11.0544H38.332Z"
                fill="#F47D41"
              />
              <path
                d="M41.9054 5.34783C41.741 5.34783 41.5766 5.30435 41.4341 5.19566C39.8337 4.06522 38.1347 4.20653 38.1128 4.2174C37.6633 4.25 37.2578 3.93479 37.2139 3.48914C37.1701 3.04348 37.4879 2.64131 37.9374 2.59783C38.0251 2.59783 40.2612 2.36957 42.3768 3.86957C42.7494 4.13044 42.8371 4.64131 42.5631 5.01087C42.3987 5.23914 42.1466 5.34783 41.8944 5.34783H41.9054Z"
                fill="#F47D41"
              />
              <path
                d="M25.6935 7.26086H20.3444C19.8949 7.26086 19.5223 6.8913 19.5223 6.44565C19.5223 5.99999 19.8949 5.63043 20.3444 5.63043H25.6935C26.143 5.63043 26.5156 5.99999 26.5156 6.44565C26.5156 6.8913 26.143 7.26086 25.6935 7.26086Z"
                fill="#F47D41"
              />
              <path
                d="M3.72688 2.92391C3.63919 2.92391 3.55151 2.91304 3.46382 2.88043L1.16192 2.13043C0.734425 1.98913 0.493262 1.53261 0.63576 1.09782C0.778259 0.67391 1.23865 0.43478 1.67711 0.576084L3.97901 1.32608C4.4065 1.46739 4.64763 1.92391 4.50514 2.35869C4.39552 2.70652 4.06669 2.91304 3.72688 2.91304V2.92391Z"
                fill="#F47D41"
              />
              <path
                d="M8.40736 4.51087C8.31967 4.51087 8.23196 4.5 8.14427 4.4674L5.84236 3.7174C5.41487 3.57609 5.17374 3.11957 5.31624 2.68479C5.45874 2.26087 5.9191 2.02174 6.35755 2.16305L8.65945 2.91305C9.08695 3.05435 9.32811 3.51087 9.18561 3.94566C9.076 4.29348 8.74716 4.5 8.40736 4.5V4.51087Z"
                fill="#F47D41"
              />
              <path
                d="M1.46879 12.1087C1.12898 12.1087 0.822085 11.9022 0.70151 11.5761C0.54805 11.1522 0.767258 10.6848 1.19475 10.5326L3.47474 9.70653C3.90224 9.55435 4.37357 9.77174 4.52703 10.1957C4.68049 10.6196 4.46125 11.087 4.03375 11.2391L1.7538 12.0652C1.6661 12.0978 1.56744 12.1196 1.46879 12.1196V12.1087Z"
                fill="#F47D41"
              />
              <path
                d="M6.12738 10.4783C5.78758 10.4783 5.48068 10.2717 5.36011 9.94566C5.20665 9.52174 5.42586 9.05435 5.85335 8.90218L8.13334 8.07609C8.56083 7.92392 9.03217 8.14131 9.18563 8.56522C9.33909 8.98914 9.11984 9.45653 8.69235 9.6087L6.41239 10.4348C6.3247 10.4674 6.22604 10.4891 6.12738 10.4891V10.4783Z"
                fill="#F47D41"
              />
              <path
                d="M3.25554 7.17391H0.822105C0.372688 7.17391 0 6.79348 0 6.34782C0 5.90217 0.372688 5.53261 0.822105 5.53261H3.25554C3.70496 5.53261 4.07764 5.91304 4.07764 6.35869C4.07764 6.80434 3.70496 7.17391 3.25554 7.17391Z"
                fill="#F47D41"
              />
              <path
                d="M8.19914 7.25001H5.76571C5.31629 7.25001 4.9436 6.86957 4.9436 6.42392C4.9436 5.97827 5.31629 5.6087 5.76571 5.6087H8.19914C8.64856 5.6087 9.02125 5.98914 9.02125 6.43479C9.02125 6.88044 8.64856 7.25001 8.19914 7.25001Z"
                fill="#F47D41"
              />
            </svg>