   <svg
              xmlns="http://www.w3.org/2000/svg"
              width="36"
              height="55"
              viewBox="0 0 36 55"
              fill="none"
            >
              <path
                d="M35.1442 38.2614L31.681 34.829C31.3393 34.4881 30.8038 34.4999 30.4735 34.8525C30.1431 35.2052 30.1545 35.7576 30.4963 36.0985L33.948 39.5191C34.4151 40.0011 34.4151 40.7769 33.948 41.2588L22.7042 52.8607C22.2485 53.3308 21.4738 53.3308 21.0182 52.8607L20.9954 52.8371C21.6903 52.2847 22.146 51.4383 22.146 50.4745V27.4001L24.7547 30.1742C24.9256 30.3505 25.142 30.4445 25.3699 30.4445C25.5977 30.4445 25.8028 30.3623 25.9623 30.1977C26.304 29.8568 26.304 29.3043 25.985 28.9517L21.451 24.144C21.3599 24.0265 21.2574 23.9207 21.1549 23.8267L21.0409 23.7091C21.0409 23.7091 20.9384 23.6386 20.8814 23.5916C20.8701 23.5916 20.8587 23.5798 20.8473 23.5681C20.8017 23.5446 20.7675 23.5211 20.722 23.4975C20.2891 23.2272 19.7878 23.0626 19.241 23.0626H18.9106C18.4777 19.3364 15.5728 16.3625 11.9616 15.9393C12.121 14.9402 12.9527 14.1644 13.9665 14.1644H16.3816C18.4436 14.1644 20.1296 12.4247 20.1296 10.2971V0.881599C20.1296 0.399658 19.7423 0 19.2752 0C18.8081 0 18.4208 0.399658 18.4208 0.881599V10.3088C18.4208 11.4725 17.5094 12.4129 16.3816 12.4129H13.9665C12.0185 12.4129 10.4236 13.9645 10.2528 15.9393C6.60733 16.339 3.6796 19.3129 3.23531 23.0744H2.90495C1.31007 23.0744 0 24.4144 0 26.0718V50.4862C0 52.1319 1.29868 53.4837 2.90495 53.4837H19.1954L19.8106 54.1184C20.3574 54.6826 21.0865 55 21.8612 55C22.6358 55 23.3649 54.6944 23.9117 54.1184L35.1556 42.5166C36.2834 41.3528 36.2834 39.4486 35.1442 38.2731V38.2614ZM11.0616 24.9199C11.5287 24.9199 11.916 24.5202 11.916 24.0383V21.7461C12.8159 22.0987 13.4539 22.9921 13.4539 24.0383C13.4539 25.4018 12.3831 26.5067 11.0616 26.5067C9.74012 26.5067 8.66928 25.4018 8.66928 24.0383C8.66928 22.9921 9.30723 22.0987 10.2072 21.7461V24.0383C10.2072 24.5202 10.5945 24.9199 11.0616 24.9199ZM1.6974 50.4862V26.0718C1.6974 25.39 2.23282 24.8376 2.89356 24.8376H4.03275C4.49982 24.8376 4.88715 24.4497 4.88715 23.9677C4.92132 20.794 7.24528 18.1844 10.2186 17.7495V19.9124C8.36169 20.3238 6.97187 22.0165 6.97187 24.05C6.97187 26.3774 8.81737 28.2817 11.073 28.2817C13.3286 28.2817 15.1741 26.3774 15.1741 24.05C15.1741 22.0165 13.7843 20.3238 11.9274 19.9124V17.7495C14.9007 18.1844 17.2246 20.794 17.2588 23.9677C17.2588 24.4497 17.6461 24.8376 18.1132 24.8376H19.2524C19.5486 24.8376 19.7992 24.9551 20.0043 25.1432L20.1524 25.3078C20.3232 25.5193 20.4372 25.7779 20.4372 26.0718V50.4862C20.4372 51.0034 20.1296 51.4383 19.6967 51.6264C19.4461 51.5324 19.1727 51.5676 18.9448 51.7205H2.89356C2.23282 51.7205 1.6974 51.168 1.6974 50.4862Z"
                fill="#243237"
              />
              <path
                d="M6.98327 37.0742C9.09078 37.0742 10.7996 35.311 10.7996 33.1364C10.7996 30.9617 9.09078 29.1985 6.98327 29.1985C4.87576 29.1985 3.16696 30.9617 3.16696 33.1364C3.16696 35.311 4.87576 37.0742 6.98327 37.0742ZM6.98327 30.9617C8.14525 30.9617 9.09078 31.9374 9.09078 33.1364C9.09078 34.3353 8.14525 35.311 6.98327 35.311C5.82129 35.311 4.87576 34.3353 4.87576 33.1364C4.87576 31.9374 5.82129 30.9617 6.98327 30.9617Z"
                fill="#243237"
              />
              <path
                d="M10.7312 41.3058C10.7312 43.4804 12.44 45.2436 14.5475 45.2436C16.655 45.2436 18.3638 43.4804 18.3638 41.3058C18.3638 39.1312 16.655 37.368 14.5475 37.368C12.44 37.368 10.7312 39.1312 10.7312 41.3058ZM16.655 41.3058C16.655 42.5048 15.7095 43.4804 14.5475 43.4804C13.3855 43.4804 12.44 42.5048 12.44 41.3058C12.44 40.1069 13.3855 39.1312 14.5475 39.1312C15.7095 39.1312 16.655 40.1069 16.655 41.3058Z"
                fill="#243237"
              />
              <path
                d="M5.86686 41.9171C6.03773 42.0934 6.25418 42.1874 6.48202 42.1874C6.70986 42.1874 6.91492 42.1052 7.0744 41.9406L15.8234 33.1951C16.1652 32.8542 16.1766 32.3018 15.8462 31.9491C15.5158 31.5965 14.9804 31.5965 14.6387 31.9256L5.88964 40.6711C5.54788 41.012 5.53649 41.5644 5.86686 41.9171Z"
                fill="#243237"
              />
              <path
                d="M17.1221 47.0068H5.01246C4.54539 47.0068 4.15806 47.4065 4.15806 47.8884C4.15806 48.3704 4.54539 48.77 5.01246 48.77H17.1221C17.5892 48.77 17.9765 48.3704 17.9765 47.8884C17.9765 47.4065 17.5892 47.0068 17.1221 47.0068Z"
                fill="#243237"
              />
              <path
                d="M28.1381 33.4537C28.2407 33.4537 28.3546 33.4302 28.4571 33.3832C28.5596 33.3362 28.6622 33.2657 28.7419 33.1834C28.8216 33.1128 28.8786 33.0071 28.9242 32.9013C28.9697 32.7955 28.9925 32.6779 28.9925 32.5721C28.9925 32.4546 28.9697 32.337 28.9242 32.2312C28.8786 32.1255 28.8216 32.0197 28.7419 31.9374C28.6622 31.8669 28.5596 31.7963 28.4571 31.7493C28.1495 31.62 27.7736 31.7023 27.5344 31.9374C27.4546 32.0197 27.3863 32.1255 27.3407 32.2312C27.3065 32.337 27.2837 32.4546 27.2837 32.5721C27.2837 32.7955 27.3749 33.0306 27.5344 33.1834C27.6938 33.3597 27.9103 33.4537 28.1381 33.4537Z"
                fill="#243237"
              />
            </svg>