       <svg
              class="w-[68px] flex items-center justify-center"
              width="38"
              height="30"
              viewBox="0 0 38 30"
              fill="none"
              xmlns="http://www.w3.org/2000/svg"
            >
              <path
                d="M27.9055 30H10.0844C9.66587 30 9.31884 29.6478 9.31884 29.2231C9.31884 28.7983 9.66587 28.4461 10.0844 28.4461H27.9055C28.3239 28.4461 28.671 28.7983 28.671 29.2231C28.671 29.6478 28.3239 30 27.9055 30Z"
                fill="#F47D41"
              />
              <path
                d="M18.9949 30C18.5764 30 18.2294 29.6478 18.2294 29.2231V24.4061C18.2294 23.9814 18.5764 23.6291 18.9949 23.6291C19.4134 23.6291 19.7604 23.9814 19.7604 24.4061V29.2231C19.7604 29.6478 19.4134 30 18.9949 30Z"
                fill="#F47D41"
              />
              <path
                d="M37.2243 17.3101C37.0202 17.3101 36.8364 17.2272 36.6833 17.0822C36.5404 16.9372 36.469 16.7403 36.469 16.5331C36.469 16.326 36.5404 16.1291 36.6833 15.9841C36.9079 15.7666 37.2447 15.6941 37.5203 15.808C37.6122 15.8494 37.6938 15.9116 37.7755 15.9841C37.9184 16.1291 37.9898 16.326 37.9898 16.5331C37.9898 16.7403 37.9184 16.9372 37.7755 17.0822C37.6938 17.1547 37.6122 17.2065 37.5203 17.2479C37.4284 17.2894 37.3264 17.3101 37.2243 17.3101Z"
                fill="#F47D41"
              />
              <path
                d="M37.2345 25.183H0.765512C0.347032 25.183 0 24.8308 0 24.4061V0.776934C0 0.35221 0.347032 0 0.765512 0H37.2345C37.653 0 38 0.35221 38 0.776934V13.5808C38 14.0055 37.653 14.3577 37.2345 14.3577C36.816 14.3577 36.469 14.0055 36.469 13.5808V1.55387H1.53102V23.6291H36.469V19.5891C36.469 19.1644 36.816 18.8122 37.2345 18.8122C37.653 18.8122 38 19.1644 38 19.5891V24.4061C38 24.8308 37.653 25.183 37.2345 25.183Z"
                fill="#F47D41"
              />
              <path
                d="M2.95997 9.67542C2.54149 9.67542 2.19446 9.32321 2.19446 8.89848V3.30456C2.19446 2.87984 2.54149 2.52763 2.95997 2.52763H10.0945C10.513 2.52763 10.86 2.87984 10.86 3.30456C10.86 3.72928 10.513 4.08149 10.0945 4.08149H3.72549V8.89848C3.72549 9.32321 3.37845 9.67542 2.95997 9.67542Z"
                fill="#F47D41"
              />
            </svg>