<svg width="49" height="67" viewBox="0 0 49 67" fill="none" xmlns="http://www.w3.org/2000/svg">
<path d="M45.9599 33.4867L40.416 31.5799C39.8678 31.3894 39.2796 31.6765 39.0879 32.2242C38.8961 32.7719 39.1826 33.3588 39.7308 33.5493L45.2562 35.4493C46.0134 35.7269 46.398 36.5592 46.1187 37.3157L39.3951 55.5269C39.1226 56.2649 38.2631 56.6621 37.5245 56.3913L37.4875 56.3777C37.9847 55.4288 38.0707 54.2872 37.5929 53.2531L26.1541 28.4985L30.4237 30.1371C30.7007 30.2387 30.9874 30.2286 31.2402 30.1118C31.493 29.995 31.6797 29.8016 31.7751 29.5432C31.9853 29.0023 31.7114 28.4096 31.1827 28.1948L23.7689 25.3616C23.6095 25.2822 23.4433 25.2213 23.283 25.173L23.0983 25.1053C23.0983 25.1053 22.9496 25.0822 22.8689 25.0735C22.8563 25.0794 22.832 25.06 22.8067 25.0717C22.7571 25.064 22.6949 25.0621 22.6453 25.0544C22.031 24.9863 21.3933 25.0668 20.7866 25.3471L20.4201 25.5165C18.0926 21.7408 13.3953 20.0397 9.17881 21.4371C8.86044 20.2835 9.39852 19.0248 10.5234 18.505L13.203 17.2668C15.4907 16.2097 16.4989 13.4789 15.4441 11.1964L10.7707 1.08271C10.5318 0.565678 9.90396 0.335494 9.38575 0.574953C8.86753 0.814413 8.63592 1.44175 8.87484 1.95878L13.5483 12.0725C14.1251 13.3209 13.5802 14.797 12.3289 15.3752L9.64934 16.6134C7.47538 17.618 6.4877 20.0944 7.27708 22.3006C3.43062 24.5983 1.65659 29.2898 3.02836 33.553L2.66182 33.7223C0.879676 34.5458 0.103093 36.6493 0.924728 38.4274L13.0278 64.6196C13.8436 66.3851 15.9546 67.1695 17.7368 66.346L35.811 57.9941L36.8082 58.3597C37.6946 58.6847 38.6609 58.6514 39.5203 58.2542C40.3798 57.857 41.0372 57.1554 41.3584 56.2571L48.082 38.0459C48.7564 36.2192 47.8123 34.1763 45.9657 33.4993L45.9599 33.4867ZM12.6265 31.5204C13.1447 31.281 13.3763 30.6536 13.1374 30.1366L11.9952 27.6649C13.1686 27.5818 14.3192 28.2132 14.8437 29.3481C15.5196 30.811 14.8793 32.5454 13.4131 33.2229C11.947 33.9003 10.2111 33.264 9.53515 31.8011C9.01653 30.6788 9.28147 29.3933 10.0993 28.541L11.2415 31.0127C11.4804 31.5297 12.1082 31.7599 12.6265 31.5204ZM14.9111 63.7494L2.80799 37.5571C2.47001 36.8257 2.79018 35.9585 3.52326 35.6198L4.78719 35.0357C5.30541 34.7963 5.54285 34.1815 5.30393 33.6645C3.76851 30.2421 5.05329 26.2511 8.13655 24.2601L9.20875 26.5805C7.35249 27.9739 6.64961 30.5023 7.65772 32.684C8.8115 35.1809 11.8031 36.2776 14.3057 35.1212C16.8083 33.9648 17.9118 30.9757 16.758 28.4788C15.7499 26.2972 13.3688 25.1938 11.1047 25.7044L10.0324 23.3841C13.5469 22.3263 17.419 23.9344 19.0302 27.3217C19.2692 27.8388 19.8912 28.0564 20.4094 27.8169L21.6733 27.2328C22.002 27.081 22.3383 27.0786 22.659 27.1752L22.9049 27.2759C23.1994 27.4153 23.454 27.6343 23.5997 27.9496L35.7028 54.1418C35.9592 54.6967 35.8335 55.3209 35.4465 55.7446C35.1218 55.7722 34.8359 55.9503 34.6589 56.231L16.8501 64.4602C16.117 64.799 15.2491 64.4808 14.9111 63.7494Z" fill="#CBE8FF"/>
<path d="M14.1269 46.6507C16.4652 45.5702 17.487 42.8025 16.409 40.4696C15.3309 38.1366 12.5609 37.1211 10.2227 38.2016C7.8844 39.2821 6.86258 42.0497 7.94061 44.3827C9.01864 46.7156 11.7886 47.7312 14.1269 46.6507ZM11.0968 40.0932C12.386 39.4974 13.9187 40.0594 14.5131 41.3456C15.1074 42.6319 14.542 44.1634 13.2528 44.7591C11.9636 45.3548 10.4309 44.7929 9.83651 43.5066C9.24213 42.2203 9.80754 40.6889 11.0968 40.0932Z" fill="#CBE8FF"/>
<path d="M20.383 49.269C21.4611 51.6019 24.231 52.6175 26.5693 51.537C28.9076 50.4565 29.9294 47.6888 28.8514 45.3559C27.7733 43.0229 25.0034 42.0074 22.6651 43.0879C20.3268 44.1684 19.305 46.936 20.383 49.269ZM26.9555 46.2319C27.5499 47.5182 26.9844 49.0497 25.6952 49.6454C24.406 50.2411 22.8733 49.6792 22.2789 48.3929C21.6846 47.1066 22.25 45.5752 23.5392 44.9795C24.8284 44.3837 26.3611 44.9457 26.9555 46.2319Z" fill="#CBE8FF"/>
<path d="M15.289 52.4186C15.566 52.5202 15.8528 52.5101 16.1056 52.3933C16.3584 52.2765 16.5451 52.0831 16.6405 51.8247L22.012 37.957C22.2222 37.416 21.961 36.8175 21.4196 36.6086C20.8783 36.3996 20.2842 36.6741 20.0682 37.2024L14.6966 51.0702C14.4865 51.6111 14.7477 52.2097 15.289 52.4186Z" fill="#CBE8FF"/>
<path d="M30.2999 52.1086L16.8643 58.317C16.3461 58.5565 16.1145 59.1838 16.3534 59.7009C16.5923 60.2179 17.2201 60.4481 17.7384 60.2086L31.174 54.0002C31.6922 53.7608 31.9238 53.1334 31.6849 52.6164C31.446 52.0993 30.8181 51.8692 30.2999 52.1086Z" fill="#CBE8FF"/>
<path d="M34.9994 31.9404C35.1287 31.9877 35.2648 32.0167 35.396 32.002C35.5331 31.9998 35.6711 31.9667 35.7975 31.9082C36.0503 31.7914 36.2438 31.5796 36.3392 31.3213C36.3869 31.1921 36.4161 31.0562 36.4016 30.9252C36.3997 30.7883 36.3667 30.6505 36.3084 30.5244C36.1919 30.2722 35.9801 30.0793 35.7215 29.9845C35.3337 29.8424 34.8758 29.9468 34.5919 30.2617C34.5014 30.3647 34.4294 30.4745 34.3818 30.6036C34.2864 30.8619 34.296 31.1483 34.4125 31.4005C34.4708 31.5266 34.5544 31.641 34.6574 31.7311C34.7477 31.8271 34.8702 31.893 34.9994 31.9404Z" fill="#CBE8FF"/>
</svg>
