       <svg
              xmlns="http://www.w3.org/2000/svg"
              width="12"
              height="12"
              viewBox="0 0 12 12"
              fill="none"
            >
              <path
                d="M6.92881 5.9989L11.8094 1.11918C12.0635 0.865121 12.0635 0.444607 11.8094 0.190546C11.5553 -0.0635152 11.1347 -0.0635152 10.8806 0.190546L6 5.07027L1.11939 0.190546C0.865279 -0.0635152 0.444688 -0.0635152 0.190581 0.190546C-0.0635268 0.444607 -0.0635268 0.865121 0.190581 1.11918L5.07119 5.9989L0.190581 10.8786C-0.0635268 11.1327 -0.0635268 11.5532 0.190581 11.8073C0.322015 11.9387 0.488499 12 0.654984 12C0.821468 12 0.987952 11.9387 1.11939 11.8073L6 6.92754L10.8806 11.8073C11.012 11.9387 11.1785 12 11.345 12C11.5115 12 11.678 11.9387 11.8094 11.8073C12.0635 11.5532 12.0635 11.1327 11.8094 10.8786L6.92881 5.9989Z"
                fill="black"
              />
            </svg>