   <svg
              xmlns="http://www.w3.org/2000/svg"
              width="25"
              height="32"
              viewBox="0 0 25 32"
              fill="none"
            >
              <path
                d="M16.2905 20.1152C16.2905 20.1152 15.9436 20.4622 15.2498 21.156C14.5559 21.8499 13.2201 22.1968 11.2422 22.1968C9.26432 22.1968 7.57357 21.5029 6.16992 20.1152C4.76628 18.7275 4.06445 17.0448 4.06445 15.0669C4.06445 13.089 4.76628 11.3983 6.16992 9.99463C7.57357 8.59098 9.26432 7.88916 11.2422 7.88916C13.2201 7.88916 14.9028 8.59098 16.2905 9.99463C17.6782 11.3983 18.3721 13.089 18.3721 15.0669C18.3721 17.0448 17.6782 18.7275 16.2905 20.1152ZM11.2422 24.2544C12.901 24.2544 14.4323 23.8397 15.8359 23.0103C17.2396 22.1808 18.3561 21.0643 19.1855 19.6606C20.015 18.257 20.4297 16.7257 20.4297 15.0669C20.4297 12.5148 19.5285 10.3455 17.7261 8.55908C15.9237 6.77262 13.7544 5.87939 11.2183 5.87939C8.68213 5.87939 6.52083 6.77262 4.73438 8.55908C2.94792 10.3455 2.05469 12.5068 2.05469 15.043C2.05469 17.5791 2.94792 19.7484 4.73438 21.5508C6.52083 23.3532 8.6901 24.2544 11.2422 24.2544ZM21.4346 25.2593L22.1523 24.5415L17.7021 20.0913L16.9844 20.8091L16.2666 21.5269L20.7168 25.9771L21.4346 25.2593Z"
                fill="#243237"
              />
            </svg>