     <svg
              width="25"
              height="32"
              viewBox="0 0 25 32"
              fill="none"
              xmlns="http://www.w3.org/2000/svg"
            >
              <path
                d="M16.7905 20.1152C16.7905 20.1152 16.4436 20.4622 15.7498 21.156C15.0559 21.8499 13.7201 22.1968 11.7422 22.1968C9.76432 22.1968 8.07357 21.5029 6.66992 20.1152C5.26628 18.7275 4.56445 17.0448 4.56445 15.0669C4.56445 13.089 5.26628 11.3983 6.66992 9.99463C8.07357 8.59098 9.76432 7.88916 11.7422 7.88916C13.7201 7.88916 15.4028 8.59098 16.7905 9.99463C18.1782 11.3983 18.8721 13.089 18.8721 15.0669C18.8721 17.0448 18.1782 18.7275 16.7905 20.1152ZM11.7422 24.2544C13.401 24.2544 14.9323 23.8397 16.3359 23.0103C17.7396 22.1808 18.8561 21.0643 19.6855 19.6606C20.515 18.257 20.9297 16.7257 20.9297 15.0669C20.9297 12.5148 20.0285 10.3455 18.2261 8.55908C16.4237 6.77262 14.2544 5.87939 11.7183 5.87939C9.18213 5.87939 7.02083 6.77262 5.23438 8.55908C3.44792 10.3455 2.55469 12.5068 2.55469 15.043C2.55469 17.5791 3.44792 19.7484 5.23438 21.5508C7.02083 23.3532 9.1901 24.2544 11.7422 24.2544ZM21.9346 25.2593L22.6523 24.5415L18.2021 20.0913L17.4844 20.8091L16.7666 21.5269L21.2168 25.9771L21.9346 25.2593Z"
                fill="white"
              />
            </svg>