  <svg
                    xmlns="http://www.w3.org/2000/svg"
                    width="25"
                    height="32"
                    viewBox="0 0 25 32"
                    fill="none"
                  >
                    <path
                      d="M16.2905 20.1382C16.2905 20.1382 15.9436 20.4851 15.2498 21.179C14.5559 21.8728 13.2201 22.2197 11.2422 22.2197C9.26432 22.2197 7.57357 21.5259 6.16992 20.1382C4.76628 18.7505 4.06445 17.0677 4.06445 15.0898C4.06445 13.112 4.76628 11.4212 6.16992 10.0176C7.57357 8.61393 9.26432 7.91211 11.2422 7.91211C13.2201 7.91211 14.9028 8.61393 16.2905 10.0176C17.6782 11.4212 18.3721 13.112 18.3721 15.0898C18.3721 17.0677 17.6782 18.7505 16.2905 20.1382ZM11.2422 24.2773C12.901 24.2773 14.4323 23.8626 15.8359 23.0332C17.2396 22.2038 18.3561 21.0872 19.1855 19.6836C20.015 18.2799 20.4297 16.7487 20.4297 15.0898C20.4297 12.5378 19.5285 10.3685 17.7261 8.58203C15.9237 6.79557 13.7544 5.90234 11.2183 5.90234C8.68213 5.90234 6.52083 6.79557 4.73438 8.58203C2.94792 10.3685 2.05469 12.5298 2.05469 15.0659C2.05469 17.6021 2.94792 19.7713 4.73438 21.5737C6.52083 23.3761 8.6901 24.2773 11.2422 24.2773ZM21.4346 25.2822L22.1523 24.5645L17.7021 20.1143L16.9844 20.832L16.2666 21.5498L20.7168 26L21.4346 25.2822Z"
                      fill="#BBBABF"
                      fill-opacity="0.5"
                    />
                  </svg>