<svg xmlns="http://www.w3.org/2000/svg" width="60" height="50" viewBox="0 0 60 50" fill="none">
<path d="M58.0624 27.6102L26.7608 37.179L24.7989 33.7162L56.9267 23.8949C57.3785 23.7568 57.68 23.312 57.6363 22.8458L55.8494 1.30249C55.8272 0.998953 55.672 0.721979 55.4074 0.548965C55.1428 0.37595 54.8323 0.329812 54.5483 0.416622L13.0881 13.0908L11.0442 9.49804C10.8889 9.22107 10.6075 9.0391 10.2841 8.99691L1.38924 7.87927C0.831702 7.80991 0.330794 8.20283 0.261214 8.76012C0.18769 9.3045 0.584583 9.81793 1.12922 9.89124L9.52602 10.9495L25.3939 38.8945C25.6313 39.3016 26.1171 39.5057 26.5689 39.3676L58.645 29.562C59.1742 29.4003 59.479 28.8275 59.3173 28.2986C59.1557 27.7697 58.5827 27.4652 58.0535 27.627L58.0624 27.6102ZM53.9394 2.71862L55.5478 22.2006L23.7814 31.9114L14.1185 14.8917L53.9523 2.71467L53.9394 2.71862Z" fill="#CBE8FF"/>
<path d="M35.255 40.6336C32.9703 41.3321 31.6665 43.7618 32.3685 46.0581C33.0704 48.3543 35.497 49.6437 37.7946 48.9414C40.0923 48.239 41.3831 45.8132 40.6812 43.5169C39.9792 41.2207 37.5526 39.9313 35.255 40.6336ZM37.2031 47.0063C35.9769 47.3812 34.6793 46.6917 34.3047 45.4662C33.93 44.2407 34.6203 42.9435 35.8465 42.5687C37.0728 42.1938 38.3704 42.8833 38.745 44.1088C39.1196 45.3343 38.4294 46.6315 37.2031 47.0063Z" fill="#CBE8FF"/>
<path d="M51.1576 35.7723C48.8729 36.4707 47.5691 38.9005 48.271 41.1967C48.973 43.493 51.3996 44.7824 53.6972 44.08C55.9948 43.3777 57.2857 40.9518 56.5837 38.6556C55.8818 36.3594 53.4552 35.0699 51.1576 35.7723ZM53.1057 42.145C51.8794 42.5199 50.5818 41.8304 50.2072 40.6049C49.8326 39.3793 50.5228 38.0822 51.7491 37.7073C52.9753 37.3325 54.2729 38.022 54.6475 39.2475C55.0222 40.473 54.3319 41.7701 53.1057 42.145Z" fill="#CBE8FF"/>
</svg>