  <svg
              class="w-[68px] flex items-center justify-center"
              width="40"
              height="40"
              viewBox="0 0 40 40"
              fill="none"
              xmlns="http://www.w3.org/2000/svg"
            >
              <path
                d="M38.7018 27.0109C38.755 26.9257 38.7869 26.8299 38.8082 26.7341C39.5637 24.626 40 22.3689 40 20.0053C40 17.1839 39.4041 14.5116 38.3506 12.0735C38.3293 12.0202 38.3081 11.9776 38.2868 11.9351C36.9247 8.85813 34.8071 6.19643 32.1681 4.1629C32.0936 4.07772 32.0085 4.01384 31.9021 3.97125C28.5714 1.49055 24.4533 0 19.9947 0C19.7712 0 19.569 0.0212936 19.3456 0.0319404C19.2604 0.0319404 19.1753 0.0319404 19.0902 0.0425872C15.153 0.223583 11.5137 1.52249 8.49162 3.6625C8.42777 3.69444 8.37457 3.73702 8.32136 3.79026C3.29875 7.42081 0 13.3191 0 19.9947C0 30.5244 8.18303 39.1695 18.5156 39.9255C18.622 39.9681 18.7284 40 18.8348 40C18.9093 40 18.9944 39.9787 19.0689 39.9574C19.3775 39.9681 19.6754 40 19.9947 40C24.5916 40 28.8268 38.4243 32.2107 35.7945C32.2958 35.7519 32.3703 35.6987 32.4342 35.6242C35.2434 33.3883 37.4142 30.4072 38.7018 27.0003V27.0109ZM38.4038 19.9947C38.4038 21.5278 38.191 23.0077 37.8399 24.4344L35.4562 19.6859L37.5738 14.5116C38.1165 16.247 38.4038 18.0889 38.4038 19.9947ZM36.7225 12.3609L34.0303 18.9513L28.1777 19.1855L23.2615 12.7868L25.0705 6.8033L31.3488 5.53633C33.6472 7.34629 35.4988 9.67793 36.7332 12.3716L36.7225 12.3609ZM24.4214 34.5595L29.8164 35.539C27.1774 37.2212 24.0809 38.2326 20.7502 38.371L24.4214 34.5595ZM18.5688 38.3391C15.8127 38.1262 13.2376 37.317 10.9604 36.0181C11.0242 35.8584 11.0561 35.688 11.0136 35.5071L9.26842 28.8422L13.7058 25.5842L21.7398 27.8733L23.2721 33.4842L18.59 38.3497L18.5688 38.3391ZM22.0697 26.2976L14.3336 24.0937V15.8531C14.3336 15.8531 14.3336 15.8211 14.3336 15.8105C14.3336 15.7573 14.3123 15.704 14.3017 15.6508C14.291 15.5976 14.2804 15.555 14.2591 15.5124C14.2378 15.4698 14.2059 15.4272 14.174 15.3953C14.1421 15.3527 14.1101 15.3101 14.0676 15.2675C14.0569 15.2569 14.0463 15.2356 14.0356 15.2249L8.85342 11.1791L9.64086 4.8017C12.3224 2.95981 15.5254 1.83125 18.9625 1.63961L23.5488 6.32419L21.7398 12.3183L18.8986 13.2553C18.4836 13.3937 18.2495 13.8408 18.3879 14.2667C18.4943 14.6074 18.8135 14.8203 19.1434 14.8203C19.2285 14.8203 19.3136 14.8097 19.3881 14.7777L22.0803 13.8941L26.7837 20.016L22.0591 26.3082L22.0697 26.2976ZM24.7087 5.23822L21.1971 1.65025C24.2298 1.84189 27.0604 2.77881 29.5185 4.26936L24.7087 5.23822ZM7.85315 6.20708L7.25725 11.0301L2.80926 13.4895C3.88401 10.6681 5.62916 8.17674 7.85315 6.20708ZM2.12823 15.6614C2.12823 15.6614 2.17079 15.6614 2.19207 15.6401L7.917 12.478L12.7374 16.2364V24.2853L8.24687 27.5858L2.77733 25.1797C2.62836 25.1158 2.47938 25.1158 2.34105 25.1371C1.8622 23.4975 1.59617 21.7833 1.59617 19.9947C1.59617 18.5041 1.79835 17.0562 2.12823 15.6614ZM3.0008 27.0216L7.68289 29.087L9.19394 34.8682C6.46981 32.8773 4.30966 30.1837 3.0008 27.0216ZM31.6361 34.2507L24.7832 33.0051L23.2509 27.3835L28.2096 20.7825L34.0942 20.5483L37.1482 26.6276C35.9883 29.63 34.0835 32.2491 31.6361 34.2507Z"
                fill="#9A33AE"
              />
              <path
                d="M16.8768 14.4051C16.8023 14.3306 16.7066 14.2773 16.6108 14.2348C16.4193 14.1496 16.1958 14.1496 16.0043 14.2348C15.9085 14.2773 15.8127 14.3306 15.7489 14.4051C15.5999 14.5542 15.5148 14.7565 15.5148 14.9694C15.5148 15.1823 15.5999 15.3846 15.7489 15.5337C15.8127 15.6082 15.9085 15.6721 16.0043 15.704C16.1 15.7466 16.2064 15.7679 16.3022 15.7679C16.4086 15.7679 16.515 15.7466 16.6108 15.704C16.7066 15.6721 16.8023 15.6082 16.8768 15.5337C16.9407 15.4591 17.0045 15.374 17.0471 15.2781C17.0897 15.1823 17.1109 15.0759 17.1109 14.9694C17.1109 14.8629 17.0897 14.7671 17.0471 14.6606C17.0045 14.5648 16.9407 14.4796 16.8768 14.4051Z"
                fill="#9A33AE"
              />
            </svg>