<svg width="34" height="34" viewBox="0 0 34 34" fill="none" xmlns="http://www.w3.org/2000/svg">
<path d="M32.8965 22.9593C32.9417 22.8869 32.9689 22.8054 32.987 22.724C33.6292 20.9321 34 19.0136 34 17.0045C34 14.6063 33.4935 12.3348 32.598 10.2624C32.5799 10.2172 32.5619 10.181 32.5438 10.1448C31.386 7.52941 29.5861 5.26697 27.3429 3.53846C27.2796 3.46606 27.2072 3.41176 27.1168 3.37557C24.2857 1.26697 20.7853 0 16.9955 0C16.8055 0 16.6337 0.0180995 16.4437 0.0271493C16.3714 0.0271493 16.299 0.0271493 16.2267 0.0361991C12.88 0.190045 9.78665 1.29412 7.21788 3.11312C7.16361 3.14027 7.11838 3.17647 7.07316 3.22172C2.80394 6.30769 0 11.3213 0 16.9955C0 25.9457 6.95557 33.2941 15.7382 33.9366C15.8287 33.9728 15.9191 34 16.0096 34C16.0729 34 16.1453 33.9819 16.2086 33.9638C16.4709 33.9729 16.7241 34 16.9955 34C20.9029 34 24.5028 32.6606 27.3791 30.4253C27.4515 30.3891 27.5148 30.3439 27.569 30.2805C29.9569 28.3801 31.8021 25.8462 32.8965 22.9502V22.9593ZM32.6433 16.9955C32.6433 18.2986 32.4624 19.5566 32.1639 20.7692L30.1378 16.733L31.9378 12.3348C32.399 13.81 32.6433 15.3756 32.6433 16.9955ZM31.2142 10.5068L28.9258 16.1086L23.951 16.3077L19.7723 10.8688L21.3099 5.7828L26.6464 4.70588C28.6002 6.24434 30.174 8.22624 31.2232 10.5158L31.2142 10.5068ZM20.7582 29.3756L25.344 30.2081C23.1008 31.638 20.4687 32.4977 17.6377 32.6154L20.7582 29.3756ZM15.7835 32.5882C13.4408 32.4072 11.2519 31.7195 9.31631 30.6154C9.37058 30.4796 9.39771 30.3348 9.36153 30.181L7.87816 24.5158L11.6499 21.7466L18.4789 23.6923L19.7813 28.4615L15.8015 32.5973L15.7835 32.5882ZM18.7592 22.3529L12.1836 20.4796V13.4751C12.1836 13.4751 12.1836 13.448 12.1836 13.4389C12.1836 13.3937 12.1655 13.3484 12.1564 13.3032C12.1474 13.2579 12.1383 13.2217 12.1202 13.1855C12.1022 13.1493 12.075 13.1131 12.0479 13.086C12.0208 13.0498 11.9936 13.0136 11.9574 12.9774C11.9484 12.9683 11.9393 12.9502 11.9303 12.9412L7.52541 9.50226L8.19473 4.08145C10.4741 2.51584 13.1966 1.55656 16.1181 1.39367L20.0165 5.37557L18.4789 10.4706L16.0638 11.267C15.7111 11.3846 15.5121 11.7647 15.6297 12.1267C15.7201 12.4163 15.9915 12.5973 16.2719 12.5973C16.3442 12.5973 16.4166 12.5882 16.4799 12.5611L18.7683 11.81L22.7662 17.0136L18.7502 22.362L18.7592 22.3529ZM21.0024 4.45249L18.0176 1.40271C20.5954 1.56561 23.0013 2.36199 25.0907 3.62896L21.0024 4.45249ZM6.67518 5.27602L6.16866 9.37556L2.38787 11.4661C3.30141 9.06787 4.78478 6.95023 6.67518 5.27602ZM1.80899 13.3122C1.80899 13.3122 1.84517 13.3122 1.86326 13.2941L6.72945 10.6063L10.8268 13.8009V20.6425L7.00984 23.448L2.36073 21.4027C2.2341 21.3484 2.10748 21.3484 1.98989 21.3665C1.58287 19.9728 1.35674 18.5158 1.35674 16.9955C1.35674 15.7285 1.5286 14.4977 1.80899 13.3122ZM2.55068 22.9683L6.53046 24.724L7.81485 29.638C5.49934 27.9457 3.66321 25.6561 2.55068 22.9683ZM26.8907 29.1131L21.0657 28.0543L19.7632 23.276L23.9782 17.6652L28.98 17.4661L31.576 22.6335C30.5901 25.1855 28.971 27.4118 26.8907 29.1131Z" fill="#4063FD"/>
<path d="M14.3453 12.2443C14.282 12.181 14.2006 12.1357 14.1192 12.0995C13.9564 12.0271 13.7664 12.0271 13.6036 12.0995C13.5222 12.1357 13.4408 12.181 13.3865 12.2443C13.2599 12.371 13.1876 12.543 13.1876 12.724C13.1876 12.905 13.2599 13.0769 13.3865 13.2036C13.4408 13.267 13.5222 13.3213 13.6036 13.3484C13.685 13.3846 13.7755 13.4027 13.8569 13.4027C13.9473 13.4027 14.0378 13.3846 14.1192 13.3484C14.2006 13.3213 14.282 13.267 14.3453 13.2036C14.3996 13.1403 14.4538 13.0679 14.49 12.9864C14.5262 12.905 14.5443 12.8145 14.5443 12.724C14.5443 12.6335 14.5262 12.552 14.49 12.4615C14.4538 12.3801 14.3996 12.3077 14.3453 12.2443Z" fill="#4063FD"/>
</svg>
