<svg xmlns="http://www.w3.org/2000/svg" width="44" height="45" viewBox="0 0 44 45" fill="none">
<path d="M42.8202 34.1005C42.6316 34.1825 42.403 34.2071 42.1902 34.1649L27.2753 30.8502L19.5152 44.0246C19.2922 44.4058 18.8394 44.6027 18.4085 44.5058C17.9775 44.4089 17.6532 44.0413 17.6093 43.5965L16.1359 28.3774L1.20835 25.0682C0.777413 24.9713 0.453047 24.6036 0.409197 24.1589C0.365347 23.7141 0.61516 23.2913 1.0176 23.1163L15.0276 17.0244L13.5722 1.81245C13.5284 1.3677 13.7782 0.94487 14.1806 0.769878C14.5956 0.589418 15.0627 0.700541 15.3581 1.03593L25.484 12.4927L39.4939 6.40078C39.909 6.22032 40.376 6.33144 40.6714 6.66683C40.9667 7.00222 41.027 7.48472 40.7914 7.87144L33.0439 21.0404L43.1698 32.4971C43.4652 32.8325 43.5255 33.315 43.2899 33.7017C43.1811 33.8986 43.0017 34.0365 42.8131 34.1185L42.8202 34.1005ZM4.7489 23.7531L17.309 26.5357C17.74 26.6326 18.0643 27.0003 18.1082 27.445L19.3415 40.2549L25.8722 29.1711C26.0952 28.7898 26.548 28.593 26.9789 28.6899L39.539 31.4725L31.0115 21.8344C30.7161 21.499 30.6558 21.0165 30.8914 20.6297L37.4221 9.54597L25.6255 14.6754C25.2105 14.8559 24.7435 14.7447 24.4481 14.4094L15.9205 4.77125L17.1539 17.5811C17.1977 18.0258 16.9479 18.4487 16.5455 18.6237L4.7489 23.7531Z" fill="#CBE8FF"/>
</svg>