  <svg
              class="w-[68px] flex items-center justify-center"
              width="33"
              height="32"
              viewBox="0 0 33 32"
              fill="none"
              xmlns="http://www.w3.org/2000/svg"
            >
              <path
                d="M32.1813 18.4276C32.0721 18.4276 31.9629 18.4055 31.8647 18.3614C31.7664 18.3283 31.6682 18.2621 31.6027 18.1848C31.5263 18.1076 31.4608 18.0193 31.4171 17.92C31.3844 17.8207 31.3516 17.7103 31.3516 17.6C31.3516 17.3903 31.4499 17.1697 31.6027 17.0152C31.6682 16.9379 31.7664 16.8828 31.8647 16.8386C32.0612 16.7503 32.2904 16.7503 32.4869 16.8386C32.5852 16.8828 32.6834 16.9379 32.7598 17.0152C32.9127 17.1697 33 17.3793 33 17.6C33 17.7103 32.9782 17.8207 32.9345 17.92C32.8908 18.0193 32.8363 18.1076 32.7598 18.1848C32.6834 18.2621 32.5852 18.3283 32.4869 18.3614C32.3887 18.4055 32.2795 18.4276 32.1813 18.4276Z"
                fill="#9A33AE"
              />
              <path
                d="M32.1812 32H0.818722C0.371154 32 0 31.6248 0 31.1724V0.827586C0 0.375172 0.371154 0 0.818722 0H32.1812C32.6288 0 33 0.375172 33 0.827586V14.4662C33 14.9186 32.6288 15.2938 32.1812 15.2938C31.7337 15.2938 31.3625 14.9186 31.3625 14.4662V1.65517H1.63744V30.3448H31.3625V20.8662C31.3625 20.4138 31.7337 20.0386 32.1812 20.0386C32.6288 20.0386 33 20.4138 33 20.8662V31.1724C33 31.6248 32.6288 32 32.1812 32Z"
                fill="#9A33AE"
              />
              <path
                d="M28.164 25.7655H4.82498C4.37741 25.7655 4.00626 25.3904 4.00626 24.9379C4.00626 24.4855 4.37741 24.1104 4.82498 24.1104H28.164C28.6116 24.1104 28.9827 24.4855 28.9827 24.9379C28.9827 25.3904 28.6116 25.7655 28.164 25.7655Z"
                fill="#9A33AE"
              />
              <path
                d="M21.396 28.5793C20.9484 28.5793 20.5773 28.2041 20.5773 27.7517V22.1352C20.5773 21.6828 20.9484 21.3076 21.396 21.3076C21.8435 21.3076 22.2147 21.6828 22.2147 22.1352V27.7517C22.2147 28.2041 21.8435 28.5793 21.396 28.5793Z"
                fill="#9A33AE"
              />
              <path
                d="M12.8921 19.4097C12.7502 19.4097 12.6083 19.3766 12.4773 19.2993C12.2263 19.1559 12.0734 18.88 12.0734 18.5821V7.58069C12.0734 7.28276 12.2263 7.01793 12.4773 6.86345C12.7284 6.72 13.045 6.72 13.2961 6.86345L22.826 12.3586C23.077 12.5021 23.2408 12.7779 23.2408 13.0759C23.2408 13.3738 23.088 13.6497 22.826 13.7931L13.2961 19.2883C13.1651 19.3655 13.034 19.3986 12.8921 19.3986V19.4097ZM13.7109 9.01518V17.1586L20.7737 13.0869L13.7109 9.01518Z"
                fill="#9A33AE"
              />
            </svg>