  <svg
              class="w-[68px] flex items-center justify-center"
              width="48"
              height="38"
              viewBox="0 0 48 38"
              fill="none"
              xmlns="http://www.w3.org/2000/svg"
            >
              <path
                d="M33.2223 30.642C32.8155 30.9753 31.6567 31.9753 30.387 33.0494C29.1666 34.0864 27.8599 35.1975 27.0586 35.8765C21.499 31.3333 17.7884 28.1852 14.497 24.8765C14.1395 24.5185 13.5478 24.5185 13.1903 24.8765C12.8328 25.2346 12.8328 25.8272 13.1903 26.1852C16.6543 29.6667 20.5374 32.9506 26.4792 37.7901C26.6518 37.9259 26.8491 38 27.0586 38C27.2682 38 27.4654 37.9259 27.638 37.7901C28.2174 37.321 29.9678 35.8272 31.5704 34.4568C32.8278 33.3827 33.9866 32.3951 34.3811 32.0617C34.7756 31.7407 34.8372 31.1481 34.5043 30.7531C34.1838 30.358 33.5921 30.2963 33.1976 30.6296L33.2223 30.642Z"
                fill="#F50269"
              />
              <path
                d="M47.9659 11.7407C47.9659 11.5926 47.9659 11.4568 47.9659 11.3086C47.9659 5.17284 42.7514 0 36.5753 0C32.7785 0 29.2036 2.01235 27.0586 5.24691C24.9137 2.01235 21.3387 0 17.5419 0C11.3658 0 6.15136 5.18519 6.15136 11.3086C6.15136 11.4568 6.15138 11.6049 6.1637 11.642C6.1637 11.7161 6.10206 12.3827 6.23767 13.4938C6.2993 14 6.75545 14.3704 7.2732 14.2963C7.77862 14.2346 8.13607 13.7778 8.07443 13.2593C7.96349 12.3951 8.00047 11.8765 8.00047 11.8148C8.00047 11.7654 8.00047 11.7284 8.00047 11.679C8.00047 11.5556 8.00047 11.4321 8.00047 11.3086C8.00047 6.18519 12.3644 1.85185 17.5419 1.85185C21.1168 1.85185 24.6178 4.1358 26.2327 7.51852C26.5409 8.16049 27.601 8.16049 27.8969 7.51852C29.5118 4.12346 33.0004 1.85185 36.5753 1.85185C41.7528 1.85185 46.1168 6.18519 46.1168 11.3086V11.6173C46.1168 11.6173 46.1168 11.7654 46.1168 11.8025C46.1168 11.8642 46.5359 18.1111 39.6326 24.8889C39.2628 25.2469 39.2628 25.8272 39.6326 26.1975C39.8175 26.3827 40.0517 26.4691 40.2982 26.4691C40.5448 26.4691 40.7667 26.3827 40.9516 26.2099C47.5714 19.7037 48.1384 13.4074 47.9782 11.7407H47.9659Z"
                fill="#F50269"
              />
              <path
                d="M37.7465 27.7407C37.6602 27.6543 37.5492 27.5926 37.4383 27.5432C37.2164 27.4568 36.9575 27.4568 36.7356 27.5432C36.6247 27.5926 36.5261 27.6543 36.4274 27.7407C36.3411 27.8395 36.2795 27.9383 36.2302 28.0494C36.1809 28.1605 36.1686 28.284 36.1686 28.4074C36.1686 28.5185 36.1686 28.642 36.2302 28.7531C36.2919 28.8642 36.3411 28.9753 36.4274 29.0617C36.5261 29.1481 36.6247 29.2099 36.7356 29.2593C36.8466 29.3086 36.9699 29.3333 37.0932 29.3333C37.2041 29.3333 37.3273 29.3086 37.4383 29.2593C37.5492 29.2099 37.6602 29.1481 37.7465 29.0617C37.8328 28.9753 37.8944 28.8642 37.9438 28.7531C37.9931 28.642 38.0177 28.5185 38.0177 28.4074C38.0177 28.284 37.9931 28.1605 37.9438 28.0494C37.8944 27.9383 37.8328 27.8395 37.7465 27.7407Z"
                fill="#F50269"
              />
              <path
                d="M36.5877 19.1975C36.5877 18.6914 36.1685 18.2716 35.6631 18.2716H23.0399C22.6947 18.2716 22.3742 18.4691 22.214 18.7778L20.5621 22.0494L19.9704 9.11111C19.9457 8.66667 19.6129 8.2963 19.1691 8.23457C18.7253 8.18519 18.3062 8.44445 18.1706 8.87654L15.175 18.6173H0.924554C0.419131 18.6173 0 19.037 0 19.5432C0 20.0494 0.419131 20.4691 0.924554 20.4691H15.853C16.2598 20.4691 16.6173 20.2099 16.7406 19.8148L18.3678 14.5185L18.8732 25.6543C18.8979 26.0741 19.1938 26.4321 19.6006 26.5185C19.6622 26.5309 19.7361 26.5432 19.7978 26.5432C20.1429 26.5432 20.4634 26.3457 20.6237 26.037L23.607 20.1358H35.6631C36.1685 20.1358 36.5877 19.7161 36.5877 19.2099V19.1975Z"
                fill="#F50269"
              />
            </svg>